<svg id="Layer_1" data-name="Layer 1" xmlns="http://www.w3.org/2000/svg" viewBox="0 0 113.478 152.301"><defs><style>.cls-1{fill:#ed3137;}.cls-2{fill:#136ca8;}.cls-3{fill:#ec2f35;}.cls-4{fill:#f4454a;}</style></defs><path class="cls-1" d="M72.778,0c2.116,3.5,4.516,7.136,3.393,11.2-1.363,4.939-3,10.1-5.857,14.254-3.254,4.738-7.931,8.52-12.08,12.626-2.738,2.711-5.9,5.035-8.412,7.927-6.394,7.352-6.857,13.77-2.018,22.216,1.721,3,3.474,5.989,5.7,9.813-1.57-.429-2.265-.4-2.554-.732-3.751-4.263-7.875-8.284-11.056-12.943-5.36-7.849-4.652-13.936,1.956-20.8,3.182-3.307,6.81-6.194,10.305-9.191,3.592-3.081,7.386-5.935,10.883-9.116C70.434,18.526,74.539,10.45,72.778,0Z" transform="translate(0 0)"/><path class="cls-2" d="M95.358,139.686c-10.9,1.694-21.743,4.1-32.708,4.921a217.779,217.779,0,0,1-55.923-3.283c-2.388-.442-4.491-2.41-6.727-3.671,1.9-1.791,3.57-4,5.778-5.262a37.147,37.147,0,0,1,8.383-2.987,5.508,5.508,0,0,1,3.808.564L9.564,133.96l.088,1.5a40.642,40.642,0,0,0,5.2,2.069c13.338,3.331,26.972,3.443,40.568,3.061,11.758-.329,23.5-1.393,35.236-2.219a28.191,28.191,0,0,0,4.646-1.116Z" transform="translate(0 0)"/><path class="cls-3" d="M66,82.947c1.58-4.476-.011-8.023-2.7-11.7a36.6,36.6,0,0,1-5.818-11.069c-1.734-6.01.939-11.2,5.181-15.51C68.632,38.6,76.25,35.248,84,32.176a7.411,7.411,0,0,1,2.489.124c-3.072,2.247-5.776,4.2-8.45,6.191-1.6,1.189-3.2,2.381-4.71,3.673-9.034,7.728-9.594,12.143-2.707,21.879C73.109,67.557,75.5,71.035,74,75.67l-.607.095.323.476-.212.736L72.6,78.763l-.178.24c-.174-.065-.347-.128-.521-.191l.324.416-.586.87-.725.911-.267-.036.261.062-.6.74-.13.134q-.309.309-.616.621l-.134.13q-.309.308-.615.617l-.175.159Z" transform="translate(0 0)"/><path class="cls-2" d="M35.373,118.132c-.888,3.181,1.749,3.378,3.488,3.464,7.713.382,15.439.5,23.163.627a12.457,12.457,0,0,0,4.441-.6c5.327-1.972,9.55.389,13.947,4.122-5.867,1.3-11.7,3.419-17.611,3.7-8.152.391-16.374-.544-24.556-1.061a8.017,8.017,0,0,1-4.195-1.474,48.684,48.684,0,0,1-4.88-4.935l6.258-3.8Z" transform="translate(0 0)"/><path class="cls-2" d="M32.276,100.429c-1.931,4.105-1.362,5.218,2.563,5.743a112.022,112.022,0,0,0,35.358-.565c4.727-.873,9.054-1.289,12.891,3.107-1.984.493-3.914,1.026-5.869,1.448-14.625,3.157-29.323,4.248-44.109,1.219a23.424,23.424,0,0,1-6.275-2.278c-3.062-1.64-3.124-3.678-.274-5.643A60.125,60.125,0,0,1,32.276,100.429Z" transform="translate(0 0)"/><path class="cls-2" d="M86.279,90.95c-2.873.929-5.683,2.193-8.627,2.732a174.553,174.553,0,0,1-58.1,1.249A21.383,21.383,0,0,1,12.039,91.8,25.823,25.823,0,0,1,31.093,85l-7.76,4.126.175,1.718c3.536.577,7.1,1.761,10.605,1.624,15.566-.607,31.117-1.588,46.673-2.45,1.716-.1,3.425-.3,5.137-.455Z" transform="translate(0 0)"/><path class="cls-2" d="M33.166,149.314c19.226.844,38.458,1.031,57.393-2.9,6.86-1.426,13.416-4.292,20.12-6.473a10.323,10.323,0,0,1,1.952-.213c-2.623,4.288-6.492,6.28-10.853,7.647-11.794,3.7-24,4.557-36.214,4.863-9.464.238-18.949-.259-28.422-.522a30.218,30.218,0,0,1-4.727-.867Z" transform="translate(0 0)"/><path class="cls-2" d="M92.288,110.614c.952-.993,1.863-2.029,2.864-2.97,3.393-3.191,7.519-5.874,10.075-9.624,4.413-6.474.669-13.318-7.15-14.315A3.049,3.049,0,0,1,95.7,82.231c3.148,0,6.4-.511,9.423.1,7.351,1.487,10.575,9.57,6.7,16.132-2.98,5.039-7.8,7.818-12.982,10.028-2.083.888-4.331,1.394-6.5,2.074Z" transform="translate(0 0)"/><path class="cls-2" d="M95.358,139.686l-.051-2.435c1.992-.668,4.153-1.05,5.925-2.089,1.577-.926,2.723-2.58,4.4-4.253,1.777.985,1.955,3.038-.493,4.486C102.1,137.193,98.637,138.288,95.358,139.686Z" transform="translate(0 0)"/><path class="cls-2" d="M33.166,149.314l-.751,1.532-8.722-1.33.086-1.043Z" transform="translate(0 0)"/><path class="cls-4" d="M66,82.947l2.646.49Q66.323,85.38,64,87.319l-.579-.581Z" transform="translate(0 0)"/><path class="cls-4" d="M72.6,78.764l.907-1.786Z" transform="translate(0 0)"/><path class="cls-4" d="M73.722,76.242l-.323-.476.607-.095A.489.489,0,0,1,73.722,76.242Z" transform="translate(0 0)"/><path class="cls-4" d="M72.228,79.229l-.324-.416c.174.063.347.126.521.191Z" transform="translate(0 0)"/><path class="cls-4" d="M70.917,81.014l.725-.911Z" transform="translate(0 0)"/><path class="cls-4" d="M70.312,81.776l.6-.74Q70.613,81.407,70.312,81.776Z" transform="translate(0 0)"/><path class="cls-4" d="M69.566,82.531q.308-.312.616-.621C69.978,82.114,69.772,82.324,69.566,82.531Z" transform="translate(0 0)"/><path class="cls-4" d="M68.817,83.278q.306-.309.615-.617C69.228,82.867,69.022,83.073,68.817,83.278Z" transform="translate(0 0)"/><polygon class="cls-2" points="92.336 110.569 92.275 110.711 92.29 110.615 92.336 110.569"/><path class="cls-2" d="M35.428,118.183l.044-.3c-.034.081-.067.162-.1.245Z" transform="translate(0 0)"/></svg>