<svg id="Layer_1" data-name="Layer 1" xmlns="http://www.w3.org/2000/svg" viewBox="0 0 2516.432 434.811"><defs><style>.cls-1{fill:#897a7a;}.cls-2{fill:#887979;}.cls-3{fill:#1998dc;}.cls-4{fill:#fe5d3b;}.cls-5{fill:#8c7e7e;}.cls-6{fill:#0f95db;}.cls-7{fill:#8c7d7d;}.cls-8{fill:#0e95da;}.cls-9{fill:#fe5c3a;}.cls-10{fill:#fe603e;}.cls-11{fill:#1397db;}.cls-12{fill:#fe6444;}.cls-13{fill:#908383;}.cls-14{fill:#299fde;}.cls-15{fill:#32a3df;}.cls-16{fill:#20a820;}.cls-17{fill:#f7fbfd;}</style></defs><path class="cls-1" d="M-3121.3,329.365c30.42,0,59.112-.392,87.764.487,3.66.113,8.814,6.245,10.391,10.628,10.216,28.39,19.586,57.084,29.346,85.64,2.045,5.982,4.559,11.8,8.936,16.988V334.024l48.644,5.159v185.39c-17.516,0-35.722.447-53.865-.427-3.131-.151-7.086-5.408-8.807-9.158-16.326-35.566-32.258-71.314-48.287-107.018-2.237-4.982-4.386-10-8.822-14.506-2.692,40.235-5.384,80.469-8.131,121.529h-52.009C-3117.855,453.348-3119.542,392.665-3121.3,329.365Z" transform="translate(4158.391 -266.334)"/><path class="cls-2" d="M-3611.218,517.647c-26.581-1.842-48.68-3.454-70.791-4.874-12.046-.773-19.554-6.17-24.11-18-18.3-47.536-17.115-95.233-1.484-142.782,2.159-6.566,10.521-14.485,17.1-15.656,47.678-8.485,95.5-10.8,143.26.985,15.681,3.868,24.043,11.529,25.949,28.4,4.651,41.186,2.443,81.958-3.422,122.782-2.244,15.622-13.477,21.947-26.168,23.866C-3572.215,515.593-3593.933,516.253-3611.218,517.647Zm-.471-124.141-.074.7c-2.829,0-5.676-.209-8.485.031-51.877,4.416-47.376,2.4-48.057,50.628-.04,2.823.487,5.654.449,8.477-.118,8.746,4.653,13.193,12.821,13.751,17.367,1.185,34.879,3.652,52.126,2.5,40.181-2.674,40.761-4.107,40.685-44.77-.007-3.3-.3-6.609-.188-9.9.363-10.863-4.867-16.815-15.577-17.965C-3589.217,395.753-3600.456,394.653-3611.689,393.506Z" transform="translate(4158.391 -266.334)"/><path class="cls-2" d="M-1881.97,517.681c-27.328-1.885-49.893-3.521-72.47-4.967-12.209-.782-19.326-6.787-23.757-18.468-18.057-47.595-16.833-95.3-.93-142.783,2.178-6.5,10.763-14.162,17.423-15.328,47.7-8.346,95.515-10.487,143.258,1.258,15.992,3.934,23.54,12.478,25.424,28.952,4.6,40.224,2.115,80.057-3.009,119.993-2.061,16.058-12.433,23.722-25.925,25.833C-1843.258,515.5-1864.967,516.235-1881.97,517.681Zm-2.486-124.24q-.041.372-.079.742c-1.415,0-2.836-.085-4.244.013-54.532,3.8-52.274,1.111-51.059,58.7.2,9.466,5.238,13.757,13.914,14.375,15.965,1.136,32.007,3.263,47.921,2.62,42.064-1.7,44.174-4.443,43.942-46.06-.018-3.3-.285-6.608-.208-9.906.243-10.386-5.163-15.746-15.079-16.873C-1861.037,395.72-1872.752,394.633-1884.456,393.441Z" transform="translate(4158.391 -266.334)"/><path class="cls-2" d="M-2111.378,517.795c-28.957-2.009-51.526-3.6-74.1-5.131-12.162-.825-19.134-6.963-23.645-18.628-18.209-47.091-16.074-94.168-2.078-141.607,2.834-9.608,8.57-15.287,18.61-16.827,47.888-7.345,95.711-10.241,143.283,2.089,19.983,5.179,22.22,8.435,24.817,28.791,5.063,39.677,2.739,79.068-2.366,118.581-1.965,15.209-10.068,24.033-23.463,26.222C-2072.5,514.909-2095.072,516.158-2111.378,517.795Zm-6.69-124.716c-11.8,1.739-26.332,3.279-40.53,6.358-3.995.866-9.593,5.943-10.024,9.61-1.7,14.43-1.861,29.063-2.128,43.629-.181,9.88,5.925,14.183,15.121,14.8,14.574.981,29.344,3.81,43.7,2.422,48.5-4.69,46.374.321,47.386-48.634.049-2.359-.049-4.723-.153-7.081-.433-9.894-5.335-15.913-15.343-17.085C-2091.73,395.733-2103.448,394.613-2118.068,393.079Z" transform="translate(4158.391 -266.334)"/><path class="cls-3" d="M-3828.481,592.793c-1.72.727-6.1,1.189-6.889,3.117-11.989,29.506-30.895,53.68-57.122,73.9l11.813,4.9c-22.342-5.882-37.181,11.479-55.343,17.394-121.013,39.413-235.993-55.624-221.056-178.067,7.952-65.2,45.77-108.9,105.482-134.371,5.608-2.392,11.466-4.2,18.347-6.693l-17.722-10.545,1.448-2.886,17.8,6.441c13.565-17.593,13.557-17.585-1.529-31.888-11.642-11.038-23.322-22.036-34.851-33.191-3.184-3.08-5.888-6.656-11.457-13.031,15.477-2.109,27.285-3.816,39.119-5.312,41.631-5.261,83.29-10.3,124.9-15.753,12.883-1.688,22.865.908,32.8,10.718,34.566,34.149,70.276,67.137,105.488,100.633,3.9,3.71,7.393,7.848,12.163,12.953-4.473,2.087-6.769,3.5-9.262,4.257-6.851,2.094-19.324,3.159-19.71,5.983-1.529,11.164.687,22.848,1.582,34.334.579,7.425,1.277,14.842,2.08,24.079,8.441.4,8.807,9.165,8.676,19.666-.479,38.23-.9,76.49.149,114.7.446,16.2-8.907,14.223-19,14.379s-18.186.661-17.592-14.184c1.131-28.238.328-56.553.328-84.836l-4.611-.271C-3824.49,537.416-3826.522,565.612-3828.481,592.793Zm-136.384-79.7-4.2.445q-5.7-4.337-11.4-8.672l12.618-9.463c2.543,2.029,4.858,5.335,7.673,5.838,7.464,1.332,15.63,3.189,22.516,1.259,3.042-.854,4.606-10.334,4.765-15.956.043-1.54-7.371-4.527-11.457-4.706-10.746-.471-21.543.238-32.319.478l-25.485-23.028c-1.093-13.358-7.952-19.257-19.726-16.967.007-3.315,1.442-8.03-.211-9.718-11.1-11.332-17.758-28.224-36.45-30.43l6.354-10.309q-2.087-1.467-4.172-2.935L-4067.1,402.87l-2.786,2.525-6.278-2.681c-15.665,15.368-31.805,30.29-46.812,46.277-8.61,9.171-4.656,17.887,4.837,24.53l.544,3.813-6.292,4.682-.1-.057c-2.163-4.959-4.327-9.917-8.031-18.406-22.548,51.738-23.225,99.036,2.755,145.885l8.294,4.436,13.988,2.074q-.072,1.224-.145,2.446l-14.917,2.374c1.75,3.13,2.628,5.284,3.995,7.059,37.359,48.492,86.7,69.858,147.315,62.836,21.6-2.5,43.412-7.219,60.171-23.465l.464-.541c1.269.048,2.866.625,3.759.069,60.572-37.685,87.454-116.572,65.537-176.322q-4.11-4.471-8.219-8.942l.043-4.283c-.878-5.468-1.757-10.935-2.487-15.479-7.409,2.533-12.447,4.381-17.565,5.978-9.388,2.929-18.823,5.709-28.239,8.552l-6.05.206-22.613,3.469c2.915,15.84-3.81,26.908-15,35.941l-.1.132c-.049-1.6.118-4.553-.178-4.6-7.53-1.2-15.105-2.129-22.7-2.844A36.225,36.225,0,0,0-3964.865,513.093Zm-95.347-218.4c2.765,3.281,3.776,4.739,5.035,5.936,35.208,33.465,70.277,67.081,105.914,100.083,3.732,3.455,11.038,5.032,16.361,4.458,35.127-3.787,70.168-8.377,105.23-12.758,14.038-1.754,28.058-3.641,43.254-5.619-2.111-3.341-2.65-4.73-3.625-5.66-35.487-33.851-70.87-67.815-106.772-101.221-3.383-3.148-10.2-4.216-15.183-3.746-21.1,1.987-42.112,4.885-63.148,7.519C-4001.437,287.229-4029.719,290.835-4060.212,294.694Zm47.1,58.713c-7.457,14.815-14.743,28.433-21.016,42.5-1.2,2.688.488,8.15,2.723,10.651,19.465,21.782,39.154,43.377,59.355,64.473,2.893,3.021,9.2,4.929,13.38,4.208,28.279-4.878,56.442-10.457,84.555-16.232,3.626-.745,9.109-3.395,9.717-6.075,3.471-15.291,5.726-30.859,8.637-47.739-27.992,3.5-53.548,7.26-79.236,9.5-6.4.559-14.82-1.971-19.588-6.174C-3974.293,391.148-3992.959,372.582-4013.108,353.407Zm165.364,53.238c-1.1,13.024-5.91,27.437-2.521,39.554,5.556,19.866,16.44,38.24,25.266,57.661,10.91-6.16,6.171-17.65,6.242-27.084.072-9.408,1.031-16.632,10.239-16.645V398.976Zm55.174,191.1V470.646l-15.662.74V597.741Z" transform="translate(4158.391 -266.334)"/><path class="cls-1" d="M-2628.527,333.254v58.155c-29.015,0-57.684-.135-86.35.083-8.463.064-17.131.22-25.28,2.141-3.581.844-7.69,5.867-8.5,9.65-.485,2.259,4.663,7.989,7.777,8.4,24.279,3.229,48.666,5.68,73.046,8.108,26.652,2.655,48.39,11.8,57.184,40.132,7.07,22.783-.283,40.507-23.34,46.355-19.459,4.935-39.9,7.188-60.018,8.056-30.076,1.3-60.248.337-92.043.337V464.558c3.189,0,7.669-.064,12.147.01,29.708.488,59.415,1.207,89.124,1.353,6.354.031,15.091,2.3,15.355-9.236.239-10.462-5.831-11.95-14.473-12.394-24.463-1.258-48.923-2.857-73.32-5.037-19.443-1.738-26.973-7.889-31.408-26.83a119.269,119.269,0,0,1-3.213-33.551c1.28-22.364,12.843-37.953,34.732-44.932C-2714.822,320.458-2672.516,325.131-2628.527,333.254Z" transform="translate(4158.391 -266.334)"/><path class="cls-1" d="M-2349.626,520.044h-56.811c0-6.071-.081-11.121.013-16.167.908-49.055,2.1-98.106,2.558-147.164.092-9.85,2.928-13.671,12.909-12.865,8.823.713,17.75.149,28.356.149,1.665,24.29,3.26,47.55,4.913,71.669h46.338V339.451h53.115V516.139l-46.361,2.1c-1.026-21.061-2-40.988-2.977-61.114-12.858,0-24.614-.843-36.1.546-3.189.385-7.885,7.361-7.933,11.361C-2351.8,485.466-2350.472,501.917-2349.626,520.044Z" transform="translate(4158.391 -266.334)"/><path class="cls-2" d="M-3426.7,464.566c-.994,16.473-1.926,31.929-2.93,48.581h-48.991v-170.2c47.229-3.494,95.983-12.673,145.274-.337,13.319,3.333,21.636,9.907,21.466,23.668-.277,22.523-.963,45.1-2.953,67.519-1.069,12.049-9.279,18.56-22.041,19.8-24.852,2.415-49.623,5.672-74.42,8.647C-3416.321,462.847-3421.316,463.747-3426.7,464.566Zm-9.881-92.814v52.733c10.737-.787,19.992-1.388,29.232-2.158,26.727-2.226,33.268-11.272,29.214-37.713-1.613-10.519-7.035-15.107-16.674-14.939C-3408.729,369.916-3422.639,371.017-3436.577,371.752Z" transform="translate(4158.391 -266.334)"/><path class="cls-2" d="M-3282.912,337.057h135.14c.74,11.476,1.389,21.55,2.109,32.721l-93.034,6.155v18.52l63.79-3.153c0,14.19.537,27.26-.421,40.219-.209,2.827-5.41,6.8-8.916,7.606-15.514,3.557-31.248,6.15-48.341,9.363,1.141,9.612,2.173,18.3,3.464,29.179l72.859-6.9c2.584,16.056,5.017,31.173,7.623,47.367h-134.273Z" transform="translate(4158.391 -266.334)"/><path class="cls-2" d="M-2446.734,393.947c-27.283,0-53.005-1.211-78.552.384-20.336,1.269-25.2,7.382-25.64,27.661-.291,13.594,1.706,27.246,2.85,40.857.692,8.229,5.5,11.317,13.5,10.361,26.638-3.183,53.3-6.2,79.929-9.434,6.9-.838,13.729-2.237,21.443-3.52V497.5c-41.993,8.671-84.16,16.764-126.88,7.805-9.314-1.954-20.265-11.989-24.2-21.031-19.351-44.457-15.688-88.46,10.481-129.287,4.95-7.723,16.022-13.5,25.389-16.04,30.441-8.264,61.518-8.223,92.327-1.211,3.538.805,8.79,5.091,8.937,7.983C-2446.3,362.517-2446.734,379.379-2446.734,393.947Z" transform="translate(4158.391 -266.334)"/><path class="cls-1" d="M-1699.1,332.471c-3.545,44.766-6.949,87.766-10.523,132.9h63.858c1.335,16.177,2.518,30.508,3.806,46.117l-115.718,7.743V335.5Z" transform="translate(4158.391 -266.334)"/><path class="cls-4" d="M-2446.571,633.978h-14.022V575.155c17.42-3.464,17.42-3.464,29.886,18.233,5.361-14.049,13.186-23.652,31.237-17.1v55.486h-15.756q-.837-12.243-1.668-24.42-1.461-.495-2.922-.991c-3.794,8.022-7.587,16.043-12.476,26.383-4.629-10.214-8.5-18.759-12.374-27.3l-1.9.188Z" transform="translate(4158.391 -266.334)"/><path class="cls-5" d="M-2502.271,632.32l-12.635-27.227-2.541.69v27.962h-13.472V574.079l20.98-1.429c2.566,6.833,4.854,12.93,7.812,20.811,4.473-6.571,7.139-13.865,12.334-17.135,4.836-3.043,12.365-1.8,19.968-2.574.982,20.253,1.879,38.76,2.808,57.924h-18.516c-.408-8.554-.824-17.252-1.447-30.312C-2492.982,613.516-2497.323,622.3-2502.271,632.32Z" transform="translate(4158.391 -266.334)"/><path class="cls-5" d="M-1753.463,631.751h-18.7V605.729l-3.241-.783-13.059,27.749-12.774-27.45-2.056.337V633.5l-13.624,1.213v-59.5c19.347-4.238,19.347-4.238,29.16,18.917,6.511-13.7,13.7-25.636,31.745-18.007Q-1754.781,603-1753.463,631.751Z" transform="translate(4158.391 -266.334)"/><path class="cls-6" d="M-2790.621,630.553h-16.308V574.139c24.463-4.686,24.463-4.686,40.275,28.695.316-7.034.576-11.217.672-15.4.094-4.111.02-8.226.02-13.559l15.39,1.926v55.719c-12.934,5.593-20.753,1.349-25.019-12.129a56.815,56.815,0,0,0-12.329-20.818C-2788.779,608.738-2789.638,618.908-2790.621,630.553Z" transform="translate(4158.391 -266.334)"/><path class="cls-1" d="M-3486.579,595.121c-.852,12.1-1.7,24.19-2.587,36.73-12.2,4.645-20.3,1.973-24.514-11.5-2.477-7.929-6.907-15.248-12.049-26.24-1.431,14.186-2.52,24.974-3.675,36.415h-15.981V574.146c23.919-4.4,23.919-4.4,39.924,26.369.576-10.464.984-17.876,1.466-26.641l13.081,1.814c1.7,7.384,3.114,13.506,4.526,19.628Zm-18.632,8.114c.3-.272.813-.528.851-.842s-.4-.684-.637-1.029c-.289.3-.782.579-.812.9S-3505.4,602.95-3505.211,603.235Z" transform="translate(4158.391 -266.334)"/><path class="cls-6" d="M-2038.991,631.573c-32.592-.4-38.428-8.252-34.707-39.719,1.681-14.212,7.918-20.125,21.668-19.09a11.419,11.419,0,0,0,1.405-.059c39.233-1.9,47.946,8.941,37.794,47.427C-2017.052,636.128-2030.779,629.627-2038.991,631.573Zm-1.184-38.853c-9.927.135-18.79-.2-18.452,13.457.333,13.463,10.43,9.9,17.149,10.162,7.864.3,17.179,1.1,16.964-12.346C-2024.721,591.076-2033.412,593.416-2040.175,592.72Z" transform="translate(4158.391 -266.334)"/><path class="cls-6" d="M-3123.981,631.548c-29.348-.389-36.452-9.509-32.933-38.58,1.852-15.3,8.873-20.563,23.7-20.5,40.181.183,40.775.867,38.688,40.969-.707,13.583-7.619,18-19.606,18.106C-3117.413,631.577-3120.7,631.551-3123.981,631.548Zm-1.048-14.651c7.417-1.776,17.537,1.5,17.8-12.07.263-13.541-8.934-11.965-17.127-12.017-8.479-.054-16.809-.468-16.995,12.528C-3141.541,618.634-3132.006,615.185-3125.029,616.9Z" transform="translate(4158.391 -266.334)"/><path class="cls-7" d="M-2574.541,634.116c-8.8-3.168-23.873-4.713-25.188-9.813-3.679-14.26-1.811-29.992-1.675-45.138.013-1.523,3.142-4.319,4.83-4.323,15.786-.034,31.594.085,47.335,1.1,2.208.142,5.216,5.106,5.881,8.255A72.834,72.834,0,0,1-2542,602.4C-2543.289,630.61-2544.916,631.985-2574.541,634.116Zm1.4-17.245c9.107-.844,17.965-.639,17.673-13.2-.291-12.594-9.359-10.724-17.035-10.883-8.783-.182-16.781.107-16.726,12.922C-2589.176,619.138-2579.121,614.83-2573.145,616.871Z" transform="translate(4158.391 -266.334)"/><path class="cls-6" d="M-2849.189,631.538c-29.5-.4-36.73-10.192-32.475-40.094,2.026-14.238,8.652-18.822,22.172-18.879,40.143-.17,43.542-.068,39.377,42.413C-2821.6,630.158-2825.067,631.869-2849.189,631.538Zm.835-38.855c-8.821.472-18.164-.923-18.074,13.055.086,13.291,9.776,10.61,16.68,10.7,7.769.1,17.394,1.357,17.483-12C-2832.181,591.876-2840.545,593.176-2848.354,592.683Z" transform="translate(4158.391 -266.334)"/><path class="cls-7" d="M-1921.742,631.6c-30.079-.3-37.149-9.456-33.075-39.574,1.862-13.773,7.513-20.563,21.619-19.276a21.932,21.932,0,0,0,2.813-.1c36.54-1.389,41.377,3.579,37.964,39C-1894.16,629.692-1897.319,631.842-1921.742,631.6Zm-1.359-14.873c8.932-1.022,18.047.092,17.547-13.193-.492-13.063-9.574-10.441-17.053-10.739-8.964-.357-17.127.374-17.019,12.98C-1939.511,619.113-1929.131,614.685-1923.1,616.723Z" transform="translate(4158.391 -266.334)"/><path class="cls-7" d="M-3628.555,572.464c1.408,0,2.817-.029,4.224,0,24.9.6,27.406,3.143,27.276,27.654-.158,29.568-2.582,32.461-32.236,31.135-9.048-.4-22.17-1.988-26.009-7.875-8.69-13.326-8.37-30.907-.031-44.247,3.769-6.03,17.141-6.051,26.156-8.8Q-3628.866,571.4-3628.555,572.464Zm-.005,20.264c-6.241.527-15.553-1.188-16.142,11.933-.638,14.2,10.125,11.624,17.583,11.83,7.326.2,16.384,1.112,16.5-11.689C-3610.5,592.276-3618.224,592.747-3628.56,592.728Z" transform="translate(4158.391 -266.334)"/><path class="cls-8" d="M-3001.689,611.065V575.628c11.355-4.827,16.319-1.959,16.549,9.134.2,9.428.614,18.865,1.357,28.264.77,9.744-4.73,16.156-12.762,17.819-9.9,2.049-20.82,2.751-30.546.611-5.066-1.114-11.334-9.185-12.127-14.81-1.807-12.815-.57-26.059-.57-39.876h15.822C-3022.407,613-3022.407,613-3001.689,611.065Z" transform="translate(4158.391 -266.334)"/><path class="cls-6" d="M-3279.031,613.114l9.237,18.942H-3289c-4.517-7.172-8.625-13.692-12.732-20.212l-8.48,16.814-12.223.605V575.684c13.649,0,26.335-1.364,38.474.621,5.427.888,13.012,8.038,13.741,13.181C-3269.348,595.622-3274.778,602.652-3279.031,613.114Zm-23.147-31.278c-3.179,11.239-5.1,19.809,6.043,18.2,3.493-.506,6.3-5.753,9.421-8.83Z" transform="translate(4158.391 -266.334)"/><path class="cls-5" d="M-1868.622,628.644h-12.1V575.893c14.121,0,27.237-1.386,39.791.668,5.166.846,12.379,8.842,12.784,14.043.479,6.158-5.389,12.81-9.6,21.516l8.8,18.2c-16.943,5.879-18.673,4.943-23.944-10.28-1.053-3.041-4.152-5.373-6.308-8.032Zm5.719-47.851c-.887,12.916-1.787,20.991,9.015,19.191,3.209-.535,5.544-6.327,8.279-9.711Z" transform="translate(4158.391 -266.334)"/><path class="cls-5" d="M-2625.084,609.292c3.218,7.077,6.435,14.154,10.4,22.887h-20.315c-6.145-5.714.7-20.433-14.941-20.175l-2.075,16.486-14.341.737V575.19c11.636,0,22.171-1.55,31.943.515,7.191,1.519,16.413,6.392,19.1,12.324,2.314,5.105-3.331,13.822-5.457,20.942Zm-21.524-27.552-3.834,4.8c.814,6.151-1.535,14.987,9.681,13.538,3.5-.452,6.4-5.6,9.575-8.6Z" transform="translate(4158.391 -266.334)"/><path class="cls-9" d="M-2342.588,631.588c-1.5-18.884-2.9-36.4-4.468-56.085,15.288,1.219,28.782,1.789,42.129,3.507,11.949,1.538,12.4,11.316,12.361,20.515-.042,9.625,2.407,20.876-11.226,24.028C-2316.056,626.39-2328.445,628.684-2342.588,631.588Zm11.889-16.779c9.437-3.132,21.263-.263,18.941-13.963-2.153-12.7-11.574-10.751-21.583-8.953C-2332.469,599.458-2331.68,606.295-2330.7,614.809Z" transform="translate(4158.391 -266.334)"/><path class="cls-4" d="M-2282.249,575.361c15.375,1.235,28.023,2.141,40.648,3.3,10.858,1,14.093,8.417,13.754,17.883-.367,10.237,4.132,23.061-11.02,26.947-12.213,3.133-24.692,5.228-38.921,8.17C-2279.277,612.869-2280.666,595.34-2282.249,575.361Zm16.757,40.2c8.21-4.52,20.531-.253,18.644-14.229-1.725-12.774-11.246-11-20.632-10.031,0,4.643-.2,8.339.06,12C-2267.191,606.511-2266.445,609.685-2265.492,615.557Z" transform="translate(4158.391 -266.334)"/><path class="cls-7" d="M-2906.415,440.016c-3.359-14.79.068-20.912,14.936-20.258,24.418,1.073,48.918.291,74.936.291.611,6.73,1.179,12.977,1.813,19.967Z" transform="translate(4158.391 -266.334)"/><path class="cls-10" d="M-2129.541,581.069l-30.471,8.414q-.015,1.1-.029,2.2l18.639,1.1c.4,4.11.827,8.434,1.02,10.4l-17.22,11.684c6.461.775,12.925,1.536,19.383,2.337.916.114,1.808.42,3.7.874l2.487,12.882h-42.286V574.4c15.342,2.637,31.209-6.728,44.765,6.652Z" transform="translate(4158.391 -266.334)"/><path class="cls-10" d="M-3372.411,631.119V576.314c23.315-5.442,40.017-2.605,42.98,8.88l-28.628,2.137q-.127,1.987-.256,3.977l18.444,1.592c.5,3.765,1.033,7.73,1.67,12.492-4.114,1.223-7.737,1.906-10.993,3.393-2.535,1.158-4.613,3.317-6.895,5.031,2.874,1.434,5.641,3.718,8.647,4.095,4.1.515,8.385-.422,14.009-.842,1.026,4.31,2.041,8.577,3.344,14.05Z" transform="translate(4158.391 -266.334)"/><path class="cls-9" d="M-3400.07,613.2h-12.719v18.241h-16.956V578.869c9.116-3.721,14.363-2.521,13.8,8.138-.477,9.037,1.59,15.29,14.164,10.988q.768-9.829,1.718-21.972h15.161V630.87l-13.12.8C-3398.8,624.667-3399.45,618.787-3400.07,613.2Z" transform="translate(4158.391 -266.334)"/><path class="cls-8" d="M-3214.366,577.471q-1.834,1.857-3.667,3.715c-.3.22-.849.446-.844.659a9.831,9.831,0,0,0,.39,1.916l-27.453,4.647.111,3.062,17.154,1.453c9.111,17.742-9.322,13.056-19.471,22.12l27.171,3.734c.585,3.142,1.4,7.5,2.358,12.657H-3259.9v-58c15.681,1.2,30.527,2.331,45.372,3.462Z" transform="translate(4158.391 -266.334)"/><path class="cls-11" d="M-3214.366,577.471l-.161-.576c7.489-3.957,12.114-2.109,14.585,6.324,2.509,8.565,5.845,16.888,8.864,25.443,13.08-8.757,5.008-32.7,28.52-37.465-4.488,20.207-6.878,38.049-13.067,54.455-1.827,4.842-14.391,5.628-23.544,8.795C-3204.748,613.533-3209.557,595.5-3214.366,577.471Z" transform="translate(4158.391 -266.334)"/><path class="cls-8" d="M-2974.651,594.574V574.429h44.54c.335,6.219.6,11.181.873,16.227-26.921,4.736-9.683,27.233-18.53,40.693l-12.486,1.029V596.645Z" transform="translate(4158.391 -266.334)"/><path class="cls-4" d="M-3486.388,595.316c.538-6.89,1.076-13.779,1.637-20.965h44.378c.447,6.1.808,11.043,1.21,16.533-27.816,3.909-9.042,26.916-19.624,40.6l-11.779.738v-35.9l-16.012-1.207Z" transform="translate(4158.391 -266.334)"/><path class="cls-8" d="M-2129.541,581.069l-.014-.019c3.122-2.64,6.09-7.309,9.394-7.562,12.045-.919,24.2-.363,37.409-.363.414,7.542.686,12.482,1.013,18.427-9.249,1-17.253,2.647-15.686,14.636,1.023,7.82.193,15.883.193,24.726l-15.324,1.681V596.652l-13.907-1.861C-2127.526,590.052-2128.534,585.561-2129.541,581.069Z" transform="translate(4158.391 -266.334)"/><path class="cls-5" d="M-1958.694,590.728l-28.99,2.876.1,2.727,14.282,7.382c-18.573,3.726-10.4,17.832-13.178,28.6l-17.839,1.54v-57.88c11.626,0,22.876-1,33.762.554C-1966.848,577.056-1964.057,584.012-1958.694,590.728Z" transform="translate(4158.391 -266.334)"/><path class="cls-5" d="M-2672.28,590.625l-29.082,2.96q-.075,1.447-.149,2.895l17.376,8.395-15.326,6.515v21.154h-18.873V575.961c11.8,0,23.063-1.039,33.936.559C-2680.552,577.085-2677.65,584.082-2672.28,590.625Z" transform="translate(4158.391 -266.334)"/><path class="cls-12" d="M-2355.15,633.629h-31.259c6.029-19.117,9.253-37.665-8.137-55.885l36.251-2.3c1.08,8.235,5.051,15.148-5.271,20.956-2.589,1.456-.556,12.678.784,19.113C-2361.636,621.009-2358.438,626.079-2355.15,633.629Z" transform="translate(4158.391 -266.334)"/><path class="cls-13" d="M-3554.354,633.486h-31c1.02-9.916,3.525-19.747,2.567-29.228-.877-8.676-5.5-16.972-9.078-27.171l37.476-1.707c-4.136,8.623-7.951,14.056-9.281,20.042a47.5,47.5,0,0,0-.145,19.626C-3562.665,620.476-3558.711,625.309-3554.354,633.486Z" transform="translate(4158.391 -266.334)"/><path class="cls-3" d="M-2888.407,575.284c-10.432,20.409-15.879,38.6-.216,57.99h-31.541c3.458-18.8,9.8-37.716-9.929-55.768Z" transform="translate(4158.391 -266.334)"/><path class="cls-5" d="M-3688.757,573.61l16.948-.885c0,16.01,1.328,31.329-.424,46.287-1.378,11.763-13.135,15.658-29.848,13.2-9.571-1.406-11.178-6.937-9.247-16.138C-3668.449,621.754-3695.263,589.436-3688.757,573.61Z" transform="translate(4158.391 -266.334)"/><path class="cls-10" d="M-2216.822,574.054l17.8-.986c-.76,14.073-1.471,27.263-2.172,40.249,19.6,3.114,19.6,3.114,19.493,16.247l-35.124,2.677Z" transform="translate(4158.391 -266.334)"/><path class="cls-11" d="M-3047.5,629.546l-35.845,2.807V574.3l17.785-1.147c-.83,14.215-1.585,27.147-2.386,40.875l19.223,1.776C-3048.349,620.009-3047.963,624.354-3047.5,629.546Z" transform="translate(4158.391 -266.334)"/><path class="cls-14" d="M-2732.3,640.378c-2-3.036-4.278-5.928-5.893-9.154-1.145-2.288-2.507-5.483-1.713-7.434.754-1.852,4.291-3.764,6.413-3.57,2.807.258,7.729,2.54,7.729,3.952,0,5.913-1.5,11.827-2.451,17.74Z" transform="translate(4158.391 -266.334)"/><path class="cls-11" d="M-3218.487,583.761a9.831,9.831,0,0,1-.39-1.916c-.005-.213.547-.439.844-.659Q-3218.259,582.473-3218.487,583.761Z" transform="translate(4158.391 -266.334)"/><path class="cls-15" d="M-3940.926,515.846c8.226,10.63,1.956,18.124-5.179,25.863-9.674,10.492-19.549,20.924-27.91,32.421-2.427,3.338.033,10.234.252,15.5l-4.75.017c-4.929-12.542,3.483-35.511,16.548-45.753,5.418-4.247,10.53-8.884,15.779-13.344.852-4.326,4.683-10.259-4.845-8.979l-11.5-2.758,2.908-2.445,18.6-.389Z" transform="translate(4158.391 -266.334)"/><path class="cls-15" d="M-4069.883,405.4l7.28,14.959-22.086,1.089c8.9,13.7,17.605,9.432,26.514,3.659,9.5-6.156,9.582-6.03,13.711,3.032-4.266.795-9.1.562-12.7,2.56-16.329,9.064-21.094,8.684-36.3-6.189l19.361-14.576c-.277-.975-1.164-4.095-2.052-7.215Z" transform="translate(4158.391 -266.334)"/><path class="cls-14" d="M-3979.246,484.68l11.394,10.723-12.619,9.463q-9.586-15.835-19.17-31.672Z" transform="translate(4158.391 -266.334)"/><path class="cls-14" d="M-3871.832,515.883c13.023-2.039,14-10.094,11.385-21.055-3.628-15.2-.647-19.211,11.476-17.649l-.043,4.283c-12.131,2.965-5.088,10.257-3.669,16.28l-10.6,27.91-5.691-.964Z" transform="translate(4158.391 -266.334)"/><path class="cls-15" d="M-4058.546,402.173l-8.551.7q5.367-6.969,10.733-13.94,2.085,1.469,4.172,2.935Z" transform="translate(4158.391 -266.334)"/><path class="cls-15" d="M-3897.262,476.23q1.41,2.874,2.818,5.749l-8.867-5.543Z" transform="translate(4158.391 -266.334)"/><path class="cls-15" d="M-4118.136,473.521l2.9-3.074q-1.179,3.441-2.358,6.885Q-4117.863,475.429-4118.136,473.521Z" transform="translate(4158.391 -266.334)"/><path class="cls-14" d="M-3964.865,513.093a9.7,9.7,0,0,1,.5,2.041c.012.284-.534.592-.826.889l-3.878-2.486Z" transform="translate(4158.391 -266.334)"/><path class="cls-14" d="M-3978.513,589.646l4.75-.017,5.67,1.126V609.39h0l-18.713,16.893,9.543,4.144c-7.488,3.675-13.563,6.334-19.323,9.559-8.975,5.025-17.814,10.307-26.567,15.714-9.8,6.055-15.671,1.478-20.3-7.05q-10.7-19.705-21.422-39.4l6.22-.259,11.423.413q1.074,2.688,2.147,5.375l.3-.121c-2.456.407-4.914.812-8.189,1.352l5.059,8.81c10.7,31.845,14.9,33.409,42.182,13.537,5.058-3.685,7.527-10.745,11.932-15.57,3.209-3.515,8.28-5.368,11.345-8.964,3.246-3.808,5.1-8.8,8.317-14.646l-14.269-2.247Z" transform="translate(4158.391 -266.334)"/><path class="cls-14" d="M-4073.494,559.046q7.788,13.852,15.577,27.7-.365,1.484-.73,2.966c-8.5-11.043-17.131-22-25.4-33.213a13.258,13.258,0,0,1-2.235-7.837c.8-20.47-4.323-20.771-22.98-23.165-18.943-2.43-24.493-9.8-22.239-28.39.783.334,2.082.512,2.261,1.057,8.2,24.967,3.361,19.016,30.4,22.4,19.383,2.425,18.909,1.012,18.39,20.5-.156,5.879,4.381,11.883,6.768,17.829Z" transform="translate(4158.391 -266.334)"/><path class="cls-14" d="M-4072.757,440.705c8.434-.859,15.622-1.579,21.141,8.38,2.485,4.485,12.474,5.19,19.25,6.8,6.456,1.533,13.162,2.012,19.758,2.954l-5.529.94-15.048,1.872c-7.839-2.684-18.635-3.139-22.763-8.622-5.071-6.733-10.048-8.1-16.855-8.658Q-4072.779,442.537-4072.757,440.705Z" transform="translate(4158.391 -266.334)"/><path class="cls-15" d="M-3968.093,609.39l15.542-7.807q1.095,1.491,2.189,2.984l-20.466,11.891,5.394,7.635,10.889,1.578,3.134,2.528c-8.577,11.193-13.928-.177-20.763-2.141,1.491-6.1,2.785-11.381,4.078-16.667Z" transform="translate(4158.391 -266.334)"/><path class="cls-16" d="M-4021.318,593.843c4.22,20.142,14.56-1.584,22.97,9.322-5.789,2.573-11.14,6.9-16.189,6.572-3.988-.259-7.6-6.244-11.385-9.685Q-4023.621,596.947-4021.318,593.843Z" transform="translate(4158.391 -266.334)"/><path class="cls-15" d="M-3952.551,601.582c2.261-1.63,4.456-3.365,6.813-4.843,1.083-.678,2.483-.851,8.835-2.884-5.743,13.577-10.134,23.959-14.517,34.342-1.036-.84-2.081-1.683-3.125-2.526q2.091-10.551,4.183-21.1Z" transform="translate(4158.391 -266.334)"/><path class="cls-16" d="M-4113.828,489.669q6.861,8.265,13.72,16.531l-4.851,4.064-13.447-16.774Z" transform="translate(4158.391 -266.334)"/><path class="cls-16" d="M-4046.906,572.261-4030,585.417l-3.749,4.915-16.682-13.246Z" transform="translate(4158.391 -266.334)"/><path class="cls-16" d="M-4073.689,558.9l6.615-8.469,12.126,13.03-2.909,2.272-15.63-6.679Z" transform="translate(4158.391 -266.334)"/><path class="cls-16" d="M-3956.591,583.861l14.881-8.1C-3941.942,587.577-3942.591,587.945-3956.591,583.861Z" transform="translate(4158.391 -266.334)"/><path class="cls-15" d="M-4072.757,440.705q-.022,1.833-.046,3.665l-25.608,6.465Z" transform="translate(4158.391 -266.334)"/><path class="cls-15" d="M-3885.978,493.157l13.8,20.016-2.392,2.841Z" transform="translate(4158.391 -266.334)"/><path class="cls-16" d="M-3919.74,667.113l-14.855-6.687,2.544-5.314,13.945,7.66Z" transform="translate(4158.391 -266.334)"/><path class="cls-16" d="M-3885.99,552.647l14.086-11.577,3.155,5.6-17.019,6.2Z" transform="translate(4158.391 -266.334)"/><path class="cls-16" d="M-3905.555,564.307l-14.221,8.913-2.306-5.508,16.225-3.771Z" transform="translate(4158.391 -266.334)"/><path class="cls-16" d="M-4083.291,620.45l-9.41-2.2q.494-2,.989-4.007l9.341,2.47Z" transform="translate(4158.391 -266.334)"/><path class="cls-16" d="M-4045.091,614.781q-1.073-2.688-2.147-5.375,1.858-.2,3.713-.391s.688-.05.688-.05h8.6q.273,1.5.544,2.991Z" transform="translate(4158.391 -266.334)"/><path class="cls-3" d="M-4015.487,463.25q-1.318-1.74-2.645-3.476,2.757-.464,5.524-.936l10.741.3-3.138,5.681Z" transform="translate(4158.391 -266.334)"/><path class="cls-16" d="M-4058.661,608.993l-6.22.259c-4.271-3.049-8.132-6.073.5-8.345l.076.073Z" transform="translate(4158.391 -266.334)"/><path class="cls-16" d="M-3956.537,646.142l11.012,4.116-2.664,4.4q-4.331-4.071-8.661-8.144Z" transform="translate(4158.391 -266.334)"/><path class="cls-15" d="M-3894.482,481.933l8.637,11.412Z" transform="translate(4158.391 -266.334)"/><path class="cls-16" d="M-4123.884,482.016q-2.281,5.043-4.565,10.085l-3.862-2.576,8.331-7.566Z" transform="translate(4158.391 -266.334)"/><path class="cls-16" d="M-3854.936,532.7l7.634-9.064,3.219,3.783-10.419,5.715Z" transform="translate(4158.391 -266.334)"/><path class="cls-16" d="M-4064.379,600.907q2.823-4.261,5.647-8.522l.113.11-5.685,8.485Z" transform="translate(4158.391 -266.334)"/><path class="cls-16" d="M-3905.857,563.941l3.836-4.284,1.705,3.412q-2.621.617-5.24,1.236Z" transform="translate(4158.391 -266.334)"/><path class="cls-16" d="M-4058.647,589.715q.364-1.482.73-2.966l3.76,3.178-4.463,2.567-.112-.109Q-4058.681,591.05-4058.647,589.715Z" transform="translate(4158.391 -266.334)"/><path class="cls-16" d="M-3854.5,533.131l-2.895,4.2-1.7-1.681q2.082-1.473,4.161-2.949Z" transform="translate(4158.391 -266.334)"/><path class="cls-15" d="M-4104.084,456.494l5.886-5.836Z" transform="translate(4158.391 -266.334)"/><path class="cls-16" d="M-3885.768,552.869l-3.535,4.223-.914-.916q2.115-1.764,4.228-3.528Z" transform="translate(4158.391 -266.334)"/><path class="cls-16" d="M-3962.287,643.357q2.872,1.393,5.748,2.787l-.311.367q-2.817-1.461-5.631-2.927Z" transform="translate(4158.391 -266.334)"/><path class="cls-15" d="M-4106.853,462.2q1.475-2.965,2.948-5.932Q-4105.379,459.229-4106.853,462.2Z" transform="translate(4158.391 -266.334)"/><path class="cls-16" d="M-3962.481,643.584l-3.64-1.237a12.241,12.241,0,0,1,.731-1.006c1.058.631,2.077,1.329,3.1,2.017Z" transform="translate(4158.391 -266.334)"/><path class="cls-16" d="M-3933.229,576.466c-.03.295.046.73-.114.85a2.608,2.608,0,0,1-1.013.243l.149-1.469Z" transform="translate(4158.391 -266.334)"/><path class="cls-15" d="M-4109.73,465.017l3.037-3.021Z" transform="translate(4158.391 -266.334)"/><path class="cls-14" d="M-3874.569,516.014l2.392-2.841a15.113,15.113,0,0,1,.668,1.843,2.592,2.592,0,0,1-.2,1.006Z" transform="translate(4158.391 -266.334)"/><path class="cls-14" d="M-4042.837,608.965s-.692.052-.688.05S-4042.837,608.965-4042.837,608.965Z" transform="translate(4158.391 -266.334)"/><path class="cls-15" d="M-4112.58,467.845l3.05-3.031Z" transform="translate(4158.391 -266.334)"/><path class="cls-15" d="M-4115.424,470.664l3.053-3.031Z" transform="translate(4158.391 -266.334)"/><path class="cls-17" d="M-3910.555,667.2l-1.86-1.318c.776.251,1.552.5,2.326.765C-3910.091,666.657-3910.555,667.2-3910.555,667.2Z" transform="translate(4158.391 -266.334)"/><path class="cls-3" d="M-4030.412,442.086l8.66.082-6.263,5.894Z" transform="translate(4158.391 -266.334)"/><path class="cls-15" d="M-4036.047,433.582q1.461,2.935,2.92,5.873Q-4034.586,436.518-4036.047,433.582Z" transform="translate(4158.391 -266.334)"/><path class="cls-15" d="M-4044.618,428l5.882,2.894Z" transform="translate(4158.391 -266.334)"/><path class="cls-15" d="M-4038.91,430.761l3.007,3.007Z" transform="translate(4158.391 -266.334)"/><path class="cls-3" d="M-4033.285,439.266l3.07,3.016Z" transform="translate(4158.391 -266.334)"/></svg>