<svg id="Layer_1" data-name="Layer 1" xmlns="http://www.w3.org/2000/svg" viewBox="0 0 2869.41 595.48"><defs><style>.cls-1{fill:#325e36;}.cls-2{fill:#0692da;}.cls-3{fill:#325e37;}.cls-4{fill:#325f37;}.cls-5{fill:#0993da;}.cls-6{fill:#0592da;}.cls-7{fill:#0a93da;}.cls-8{fill:#a06e41;}.cls-9{fill:#a27044;}.cls-10{fill:#446d49;}.cls-11{fill:#24542a;}.cls-12{fill:#a16f42;}.cls-13{fill:#a06d3f;}.cls-14{fill:#9e6b3c;}.cls-15{fill:#d6edf8;}.cls-16{fill:#a97b52;}.cls-17{fill:#9dd4ef;}.cls-18{fill:#b3ddf3;}.cls-19{fill:#cfe9f7;}.cls-20{fill:#def0f9;}.cls-21{fill:#91ceed;}.cls-22{fill:#c9e7f6;}.cls-23{fill:#fdfefd;}.cls-24{fill:#229bdc;}</style></defs><path class="cls-1" d="M-1951.52-1444.26c5.91-6.66,10.79-17.35,17.93-19.16,16-4.06,33.53-6.47,49.79-4.44,19.29,2.42,32.16,15.5,37.9,35.4,23.46,81.3,47.51,162.44,71.37,243.63,1,3.42,2.28,6.77,4.6,13.59,8.32-29.33,15.79-55.42,23.13-81.54q24.61-87.57,49.14-175.17c6.89-24.52,24-37.94,49.62-37.24a171.8,171.8,0,0,1,37.36,5.2c12,3,19,11.71,18.71,24.9-1.52,4.57-4.36,9.14-4.37,13.71q-.37,159.38,0,318.76c0,4.57,2.84,9.14,4.35,13.71-2.71,17.76-11.77,23.75-33.59,22.23-17.21-1.21-24.65-8.63-24.68-26q-.23-118.56-.08-237.13v-15c-10.49-4.35-15-1.88-18,8.43-24.66,82.88-49.89,165.59-75.09,248.31-6.18,20.27-26.37,28.45-43.24,16.41-6.19-4.41-10.65-13-13-20.63q-38.74-123.06-76.27-246.49c-3.26-10.74-7.73-12.76-17.9-7v43q0,105.16-.08,210.32c0,15.83-6.41,23.2-20.65,25.45-20,3.14-31.32-2-36.84-16.62,1.19-4.75,3.41-9.5,3.42-14.25q.29-164.05,0-328.12C-1948.07-1434.78-1950.31-1439.52-1951.52-1444.26Z" transform="translate(2439.2 1470.15)"/><path class="cls-2" d="M-.79-1213l-16.47-15.1c18.47-12.44,18.25-14.6-6.24-40.55h56l-.3-.21,5.66,3.52,45.48,13.26,64.37,17.9c-2.13,1.58-4.07,4.11-6.42,4.56-9.93,1.93-20,3.25-30,4.79L54-1218l.56,4.18,57-7.43,51-8.11,8.24-.26,11.61-2.45,5.42-.49,75.82-8.8-.51-3.61-74.73,6.88,48.92-11.34,6-2L240-1256.8l-6.53,4.83c-6.44.6-12.92.87-19.3,1.86-21.93,3.38-43.82,7-65.72,10.56,0-1.22,0-2.44,0-3.65l5.14-4.8q1.72-7.38,3.46-14.75c0-1.28,0-2.56.08-3.84-.12-1.82-.23-3.64-.34-5.45l-5.64-9.44.63-6.12,6.64-6.73h-.17c3.51,1.34,7.15,4.09,10.52,3.79q30.15-2.7,60.19-6.63c53.48-7,106.93-14.21,160.39-21.34,19.09-1.61,22.95,6,13.78,27l-5.26,3.37-31,9.12c8.37,2.65,15,4.78,21.65,6.85,15.71,4.9,24.24,23.2,16.73,37.82-1.67,3.27-7.06,5.64-11.15,6.5-13.76,2.88-27.71,4.9-41.59,7.25L310.14-1215l-10.7,1.26.21,4.41h10.21l42.53-7.33c8-2.65,13,1,13.87,8.54,1.56,13.64,2,27.42,2.9,41.14a2.36,2.36,0,0,0-.33,2.54c-.75,2-1.5,3.94-2.23,5.91,0,1,0,2,.07,3l2.91-2.72,22.6-7.49,5.09-1.31c1.85,6.26,4.4,12.42,5.41,18.82,3.7,23.35-1.12,29.37-24.44,32.66-106.67,15-213.37,29.9-319.94,45.56-13.2,1.94-21.9.18-27.16-12.56-2.13-5.15-5.15-9.94-7.76-14.9l17.49-10.29-11.62-3.72c1-2.53,2-5,3-7.53l0,0,11.84,2.64c8.86-.4,17.8-.21,26.57-1.31,47.56-5.94,95.07-12.21,142.61-18.37l13.47-1.06-.29-5.83-12.92,1.37L45.34-1120.95c-13.52-.27-14.63-10.26-15.86-20.15l12-1.36-.15-2.08H-8c-1.51-10-2.87-19.09-4.24-28.18l30.36,0,5.69-2.85,11.41-.84L45.79-1172c5.54,1.37,11.18,4.18,16.59,3.81,12.12-.84,24.12-3.26,36.17-5l6.31-2.9-3.27-3.85-4.14,5.26c-9.23.35-18.46.89-27.69,1-7.22.09-14.45-.34-21.68-.54l-12.71-10.58L31-1188.59,21-1195.41l.1.09-5.84-2.89.16.12-3-3,.11.11-5.78-5.79.15.12L1-1209.52l.17.15Zm242.73,71.36,14.4-1.67,13.91-1.55,6.18-1.09,10.82-1.58,5.68-.31,54.9-6.24-.16-1.22H261.78l-62.21,2.84-92.72,2.7c-12-.1-24-.42-36-.06-1.57,0-3,3.58-4.54,5.5l14.09,2.66,25.66-2.84,93.61-4,36.55-.86.09,10ZM151.14-1181l61.37-.54,12.86-3.18c13.14-.41,26.28-.72,39.42-1.25q47.23-1.89,94.45-3.94l.15-8-12.67,2.58-120.68,6c-5.61-1.53-11.25-4.37-16.84-4.28-8.94.14-18.82-4.38-26.75,3.63l-27.33.6-26.87,5.87C136.07-1176.88,143.22-1176.47,151.14-1181Zm119.32-76.6,87-17.68-.78-3.89-85.73,16.24-8,1.6.15,2.36ZM1.83-1249.25c.57,9-1.51,17.85,1.77,20.83,13.63,12.4,28.87,23,44.29,34.92C51.43-1228.52,22.92-1233.49,1.83-1249.25Zm324.28-1.06c-.22-1.41-.44-2.82-.65-4.23l-51.15,7.25.65,4.19Zm-32.57,46.48,1.34-5.66c-2.92-.42-5.84-.92-8.77-1.08a8.51,8.51,0,0,0-.84,3.45C287.93-1205.83,290.76-1204.88,293.54-1203.83Zm-172.59,28c.48-1.44,1-2.89,1.43-4.34l-8.33-3q-.78,2.4-1.57,4.79Zm133.59-31.68c-1.62,2.23-3.38,3.58-3.34,4.89s1.86,2.57,2.91,3.86c1.41-1.36,3.28-2.52,4-4.18C258.42-1203.64,256.27-1205.39,254.54-1207.52Zm111.77-46.57c5.47-1,8.17-.67,9.59-1.88s2-4,2.86-6.14l-2.12-1.49Zm-140.56,56.33c-2.49-1.23-4.12-2.73-5.34-2.46s-2.34,2.24-3.48,3.47c1.59,1.17,3,2.8,4.83,3.29C222.45-1193.27,223.85-1195.64,225.75-1197.76Zm7.35-2c0,1.18,0,2.37,0,3.56,3.16-.17,6.32-.29,9.47-.62.23,0,.31-1.54.68-3.56Zm44.32-2.65-.19-2.83c-1.26-.33-3-1.32-3.69-.84-1.38,1-2.19,2.79-3.23,4.26ZM35.76-1093.56l-3.63,4.37a36.37,36.37,0,0,0,6,2.53c.51.13,2.3-2.37,2.15-2.54A47.34,47.34,0,0,0,35.76-1093.56Zm217.82-158.81c.94-1.65,2.27-3.06,2-3.64-.63-1.2-2.11-2-3.24-2.89-.45,1.15-1.33,2.35-1.21,3.44S252.44-1253.7,253.58-1252.37ZM356.75-1157l.45,3.19,8.06-1-.47-3.16Z" transform="translate(2439.2 1470.15)"/><path class="cls-3" d="M-2304.65-1073c-16,0-32.1.06-48.15,0-54.26-.24-85.95-31.87-86.29-86.1,0-8.47-.27-17,.11-25.42.78-17.55,9.24-24.61,29-24.71,20.6-.11,29.44,7,30.29,25.06.49,10.33-.24,20.75.62,31,1.62,19.41,11.41,29.41,30.89,29.9q43.86,1.1,87.78,0c20-.53,30.52-11.67,31.36-32.71.82-20.68.87-41.45,0-62.13-1-22.48-12.6-32.88-35.58-33.07-30.2-.26-60.41.06-90.62-.11-51.74-.31-83.12-31.15-83.83-82.37-.25-17.89.26-35.79-.09-53.67-1.09-54.31,38.42-78.52,79.74-81.06a857.85,857.85,0,0,1,110.39.05c44.25,3,80.42,28.67,79.82,81.12-.09,7.53.1,15.07,0,22.6-.36,20.18-8.88,27.91-30.5,27.85-20.86-.07-28.56-7.51-29.06-27.45-.26-10.3-.11-20.79-2-30.83-2.81-14.73-12.88-22.9-28-23.09-30.2-.37-60.42-.54-90.62,0-17.4.33-28.29,10.46-29.32,28.23a511.51,511.51,0,0,0,0,60.66c1.18,19.29,12.41,28.19,33.59,28.43,29.73.34,59.47,0,89.21.13,54.57.16,86.57,31.83,86.72,85.82.07,21.19.45,42.39-.15,63.56-1.25,44-33,76.15-77.23,78-19.32.8-38.7.13-58.05.13Z" transform="translate(2439.2 1470.15)"/><path class="cls-3" d="M-757.87-1272.1c0-38.12.69-76.26-.18-114.36-1.24-53.82,37.74-79.5,80.35-82a1022.94,1022.94,0,0,1,108.94-.07c39.91,2,82.76,26.47,80.41,81.65-.46,10.8.26,21.66-.22,32.46-.68,15.46-9.56,22.62-27.73,23.14-19.1.55-29.67-6.17-31.19-21.16-1-10.25-.27-20.68-.49-31-.52-23.88-11.13-34.7-34.68-34.88-27.37-.21-54.74-.26-82.1,0-21.15.22-33.24,11-33.37,31.92q-.72,115.77.08,231.54c.14,20.47,11.65,31.23,32.2,31.67,28.77.62,57.57.68,86.34,0,20.41-.51,30.59-11.66,31.42-32.36.4-9.87-.23-19.78.28-29.64.88-16.93,10.07-24.11,29.89-24S-489-1202-488.5-1185c.34,11.29.23,22.59,0,33.88-.88,43-30.91,75.69-74.14,77.47-40,1.65-80.23,1.6-120.27.06-43.56-1.68-74.33-34.85-74.85-78.47C-758.23-1192.09-757.86-1232.1-757.87-1272.1Z" transform="translate(2439.2 1470.15)"/><path class="cls-4" d="M-284.7-1419.11c-9.24,28-17.43,52.77-25.53,77.54q-40.53,124-81,248c-8.16,24.89-20.53,30.41-44,20.21-16-6.95-20.19-15.63-14.6-32.66q55.6-169.5,111.41-338.93c5.25-16,16.08-23.79,32.45-24.3,11.78-.37,23.58-.16,35.38-.14,23.77,0,34.57,7.68,41.84,29.82q42.7,130,85.31,259.94c7.77,23.67,15.61,47.31,23.21,71,6.42,20.06,1.22,30.4-18.18,37-20.09,6.83-31.47,1.55-38.18-18.82q-51.42-156-102.49-312.16C-280.49-1406.91-282-1411.19-284.7-1419.11Z" transform="translate(2439.2 1470.15)"/><path class="cls-4" d="M-1461.42-1418.38v17.94q0,150.38,0,300.74c0,22.23-9.14,31-31,30.54-20.06-.42-28-8.35-28-28.66q-.09-169.42,0-338.86c0-23.14,8.13-31.88,31.33-32.08,48.59-.43,97.28-1.86,145.77.43,40.4,1.91,80.1,26.49,79.39,79.84-.4,29.65.42,59.31-.19,89-.95,46.53-31.34,77.55-78.06,79.49-22.61,1-45.29.54-67.94.18-14.19-.22-20.37-8.16-20.45-24.58s5.82-24.73,19.94-25.29c17.43-.69,34.91,0,52.36-.36,23.61-.55,34.82-11.29,35.32-34.7q.82-39.53,0-79.07c-.52-23.24-12.28-34.32-35.54-34.45C-1392.36-1418.52-1426.21-1418.38-1461.42-1418.38Z" transform="translate(2439.2 1470.15)"/><path class="cls-3" d="M-1129.18-1122.93c53.68,0,105.5,0,157.31,0,22.5,0,28.2,6.05,27.18,28.64-.71,15.78-5.88,21.17-21.67,21.2q-94.81.19-189.64,0c-22.52-.07-32.1-9.27-32.14-31.82q-.37-170.1,0-340.2c0-18,7-24.17,25.18-24.28,29.89-.18,33.79,3.76,33.79,34.21q0,147.51,0,295Z" transform="translate(2439.2 1470.15)"/><path class="cls-5" d="M158.25-1294.32h.17l-69.57,6.19-8.52-.53.24.16c-11.75-3.83-23.46-7.79-35.26-11.46-16.57-5.15-33.2-10.09-49.8-15.11l0-4.45,3.88-.6c13.09,2.77,16-5.24,16.58-15.63l10.67,2.34-.59,3.77-1.24.1,2,1.5-.18-.16q.77,2.49,1.52,5l-5.8,3.94,4.21,2.4,75.28,23.29v-14.79l3.9-4.94.21-6.51-11.27-8.9,3.92-2.84c.24-1.75,1-4.93.66-5-4.43-1.56-9-2.68-13.55-3.92l7.67-2.16c31.53,2.65,62.82,13.33,94.75,2.9l142.79-19c-.21-1.49-.43-3-.64-4.46l-142.15,18.59c-30.54,6.92-60.58,2.68-90.53-3.89,0-1.34,0-2.68-.08-4l15,.74.09-3.7L54.79-1363l-.57,3.09,6.3,1.44c0,1.29,0,2.58,0,3.86l-12.17,2.25,9.3,2.35-4.27,2.62-9.65-1.07q.09-10.46.2-20.91l106.43,14.47q.33-2.82.68-5.63c-19.81-2.44-39.66-4.59-59.42-7.39-16.81-2.39-33.52-5.52-50.27-8.32l6.43-2.5,101.47,13.35c.15-1.37.31-2.75.46-4.13l-18.17-4.41.3-4.38,16.33,1.08.19-4.9-50.66-4.17L32.91-1390c-7.29,9.26-7.29,9.26-11.85,2.63l3.76-1.18c-.26-.36-.71-1-.74-1-1.08.64-2.12,1.35-3.16,2l-11.42.76,11.22,27.55-5.31,0L12-1366.87l-3.27,2,3.71,5.81-.34,4.5-6.61,3.15-4,.67L-1.77-1359c3.92-6.75,1.37-9.2-5.75-8.59l12.7-7.67c-4.75-10.53,7.41-26.2-10.21-34.51-.35-1.16-.7-2.31-1-3.47L4-1413c17.52,6.55,34.08,17,54.13,13.31l88.93-1.71,5.58-.08,9.57-.66q37.44-1,74.87-2,80.39-2,160.78-4l19.83-4.75-.19.28c8.89-.34,14.08,5.16,12.41,12.68-2,9.21-6.66,18.17-11.78,26.2-1.82,2.86-8.4,2.71-11,3.43,1.64,10.39,4.42,20.46,4.53,30.56.15,14.23-10.79,16.89-22.34,17.67-12.63,1.33-25.28,2.46-37.88,4Q254.82-1306.33,158.25-1294.32Zm-10.18-93.14c-9.51-10.39-42-11-53.17-3.5ZM376-1368.3l-1.92-3-11,7,2.06,3.19Zm20.73-2.94c-.79-.33-1.74-1.1-2.31-.87s-.73,1.44-1.07,2.22c.79.33,1.75,1.1,2.31.88S396.36-1370.45,396.7-1371.24Zm-52.3,9.92a3.49,3.49,0,0,0-1.18.39c-.11.1.16.67.26,1a3.43,3.43,0,0,0,1.18-.4C344.77-1360.4,344.49-1361,344.4-1361.32Zm41.91-4.25,1.13-.61c-.33-.27-.64-.72-1-.75s-.74.35-1.11.56ZM352.9-1367a3.28,3.28,0,0,0-1.18.39c-.11.1.16.67.26,1a3.43,3.43,0,0,0,1.18-.4C353.27-1366,353-1366.62,352.9-1367Z" transform="translate(2439.2 1470.15)"/><path class="cls-6" d="M152.63-1401.53l-5.59.08c-3.79-1.55-7.6-4.47-11.37-4.43-25.92.25-51.82,1.11-77.73,1.77l-46.26-11.61c6.16-17,1.88-30.85-16.17-43,8.33-1.55,13.5-3.26,18.71-3.37,116.72-2.57,233.44-5.22,350.17-7.07,15.82-.25,31.92,2.7,47.41,6.24,4.7,1.08,11,9.15,11,14-.05,12.06-3.32,24.12-5.3,36.17l.19-.28-19.88.53c-8-.1-16.05-.53-24.05-.24-45.43,1.68-90.83,3.79-136.27,5.2-24.87.78-49.78.45-74.68.62Z" transform="translate(2439.2 1470.15)"/><path class="cls-3" d="M-2029.73-1270.19q0,84.68,0,169.37c0,10.63.43,23.39-11.5,26.12s-26.25,2.64-37.8-1.26c-5.46-1.84-9.68-15.42-9.77-23.73-.76-71-.44-142.09-.44-213.13,0-43.29-.07-86.57,0-129.86.06-21.46,6.12-26.75,29.84-26.74s29.51,5.15,29.55,27Q-2029.62-1356.29-2029.73-1270.19Z" transform="translate(2439.2 1470.15)"/><path class="cls-3" d="M-837.23-1270.55q0,85.4,0,170.78c0,21.83-7.89,29.3-30.17,29.21-21.45-.1-29.21-7.51-29.23-28.78q-.11-171.48,0-343c0-22.11,6-27.15,30.91-27.13,22.28,0,28.43,5.59,28.47,26.69Q-837.1-1356.63-837.23-1270.55Z" transform="translate(2439.2 1470.15)"/><path class="cls-4" d="M-247.35-1193a38,38,0,0,1-38.37,38.45,38.14,38.14,0,0,1-38-37.5A38.35,38.35,0,0,1-286-1231.3,38.17,38.17,0,0,1-247.35-1193Z" transform="translate(2439.2 1470.15)"/><path class="cls-7" d="M151.78-1287.6l-.63,6.11-28.09,4.21-14.82,1.21L108-1273l49.06,10.22q-1.74,7.37-3.46,14.75l-53.15-13.42-57.28-16.1-1,3.65,58.23,16.09,48.11,14.58c0,1.21,0,2.43,0,3.64l-65-15.5-45.5-13.47-5.73-.37.3.21c1.43-8.88,2.86-17.75,4.37-27.14l43.73,7.32-.24-.16,8.44,4.48c5,.59,10,2,14.89,1.61C119.73-1283.89,135.74-1285.87,151.78-1287.6Z" transform="translate(2439.2 1470.15)"/><path class="cls-8" d="M-766.74-913.26-783.87-897c-3.64-7.06-7.66-14-10.83-21.22-3.62-8.29-6.5-16.9-9.93-26h14.57c2.27,12.1,4.49,23.91,6.71,35.72l4.59.75c1.53-9.21,3-18.43,4.64-27.62a76.16,76.16,0,0,1,2.36-8c2.28,1.7,5.75,2.93,6.64,5.18,3.56,9,6.32,18.37,12.64,27.6,1.78-10.61,3.56-21.22,5.72-34.12,6.56-.43,17.51-1.68,28.42-1.44,2.45.06,6.31,5.1,6.86,8.3,1.1,6.4-.21,13.17.53,19.67.72,6.31,2.76,12.47,4.43,19.59h-16.6c.68-12.2,1.73-24,1.6-35.86,0-1.9-5.35-5.3-8.11-5.19s-6.78,3.19-7.86,5.91c-3.09,7.83-4.26,16.45-7.62,24.13-2.11,4.82-6.82,8.51-10.36,12.7-3.16-4-6.41-8-9.41-12.14A17.51,17.51,0,0,1-766.74-913.26Z" transform="translate(2439.2 1470.15)"/><path class="cls-9" d="M-1736.16-898.31h-13.9c.63-9.2,2-18.54,1.54-27.78-.21-4.08-4.23-8-6.52-11.93-4.62,4.26-12.25,7.94-13.21,12.9-1.59,8.2,1.13,17.22,2.11,26.72h-15.2c1.07-7.56,3.1-15.2,2.93-22.78-.15-7.09-2.63-14.13-4.67-24l16.88,1.7c9.42-1,19.35-9.34,27.34,4.69,27.24-12.53,30.55-10.1,31.06,20.08.11,6.3,2.3,12.56,3.75,19.93h-15.73c.63-9.7,1.8-19.55,1.6-29.37-.07-3.31-4.55-9.58-5.42-9.31-5,1.54-13.25,4.16-13.66,7.29C-1738.54-920.41-1736.82-910.24-1736.16-898.31Z" transform="translate(2439.2 1470.15)"/><path class="cls-10" d="M-1951.52-1444.26c1.21,4.74,3.45,9.48,3.45,14.22q.3,164.05,0,328.12c0,4.75-2.23,9.5-3.42,14.25-.56-4.12-1.61-8.23-1.61-12.34q-.14-165.95,0-331.9C-1953.09-1436-1952.06-1440.14-1951.52-1444.26Z" transform="translate(2439.2 1470.15)"/><path class="cls-11" d="M-1592-1092.91c-1.51-4.57-4.34-9.14-4.35-13.71q-.37-159.39,0-318.76c0-4.57,2.85-9.14,4.37-13.71q.32,108.36.57,216.73C-1591.38-1179.21-1591.78-1136.06-1592-1092.91Z" transform="translate(2439.2 1470.15)"/><path class="cls-8" d="M-381.28-916.3c-2.64,5.5-3.41,8.39-5.17,10.45-2.78,3.24-6.22,5.92-9.38,8.84-2.8-3.14-6.75-5.82-8.18-9.49-4.82-12.27-8.74-24.9-13.12-37.74h13.33c2.73,12.43,5.38,24.48,8,36.53l4.07.28,6.48-34.42c5.1-.95,5.1-.95,19.4,31.92,1.89-11,3.78-22,5.95-34.53h13.58c-3.94,11.67-7.33,23.44-12,34.68-2,4.86-6.66,8.62-10.11,12.89-3.23-4-6.53-7.92-9.62-12C-379-910.21-379.4-912-381.28-916.3Z" transform="translate(2439.2 1470.15)"/><path class="cls-12" d="M-202.92-895.75l-6.77-8.9c2.8-3.23,5.49-6.35,8.19-9.48l-3.39.54c-1.45-7.89-5.82-16.7-3.66-23.43,3.44-10.72,14.26-11.54,25-10.6,5.87.51,12-1.87,19.79-3.27-1.84,8.43-1.35,19.31-6.44,25.9-5.81,7.52-16.6,11.23-25.55,16.8,7.15,1.5,15,3.2,22.91,4.78,10,2,10.4,8,6.41,15.62-5.83,11.13-30.2,17.43-40.25,9.69s-4.06-13.3,3.92-17.8c1.88,4.21,2.91,11.28,5.78,12.12,9.61,2.8,18.71.39,27.79-12ZM-172.84-931c-8.53-5-13.37-9.76-18.62-10.24-2.72-.26-9.5,8.48-8.58,10.5,2.21,4.84,7.38,9.93,12.35,11.3C-184.9-918.67-180.11-925.08-172.84-931Z" transform="translate(2439.2 1470.15)"/><path class="cls-9" d="M-575.93-898.8c9-13.43,7.31-61.18-4.83-70,6.55-1.18,12-3.84,15.36-2.23,2.79,1.33,4.19,7.66,4.4,11.87.59,11.23.2,22.51.2,36,9.12-5.38,18.71-7.66,9.81-21.55l18.64-1.55,1.82,3.45-16.12,20.56,18.84,21.43c-5.45,5.83-10.93,5.87-16-2.14-1.75-2.79-3.18-6-5.54-8.13s-5.8-3.37-8.76-5c-.65,3.39-1.87,6.82-1.71,10.17.09,1.81,2.56,3.5,5.37,7Z" transform="translate(2439.2 1470.15)"/><path class="cls-13" d="M-1110.37-942.66-1126-922.12l18.1,21.59c-4.17,4.94-9.41,6.31-14.93-1.85-1.06-1.55-1.85-3.44-3.25-4.58-3.94-3.17-8.13-6-12.22-9v17.69l-18.11.87c10-15,8.7-61.58-3.42-71.6,6.46-1,11.46-3.09,15.32-1.81,2.26.76,3.65,6.9,3.8,10.68.48,11.68.17,23.39.17,38.83l17.68-15.22-8.26-4c.56-1.23,1.13-2.46,1.7-3.69l16.59-2.43C-1112-945.34-1111.19-944-1110.37-942.66Z" transform="translate(2439.2 1470.15)"/><path class="cls-14" d="M-1420.36-898.31H-1437c8.76-15.74,6.73-61.9-3-69.13,13.84-8,17-6.31,17.2,9.07.07,5.89,0,11.78,0,18.27,29.92-9.25,30.4-8.67,31,21.18.13,6.53,3,13,4.75,20.3h-15.7c.54-9.32,1.73-19,1.32-28.59-.16-3.72-3.95-7.28-6.08-10.91-4.94,3-13.5,5.41-14.12,9.14C-1423.16-919.71-1421.1-909.84-1420.36-898.31Z" transform="translate(2439.2 1470.15)"/><path class="cls-13" d="M-1310.35-969c12.38-5.7,14.68-4.43,15,10.09.1,4.68.09,9.36.27,14,0,.82.74,1.62,2.23-1.43,8.8,2,19.82,1.53,25.89,6.74,9.26,8,8,20.52,2.07,31.12-6.34,11.24-16.88,14.06-29.08,12.06-7.41-1.21-11.39-4.46-11-13,.73-14.48.6-29.05,0-43.54C-1305.16-957.74-1308-962.4-1310.35-969Zm14.84,48.82c-1,8.93-1,17.85,11.35,17.5,11.21-.32,13-9.3,13.28-17.84.26-8.84-2.06-17.62-13.25-17.49C-1295.83-937.87-1296.72-929.24-1295.51-920.17Z" transform="translate(2439.2 1470.15)"/><path class="cls-15" d="M158.25-1294.32q96.58-11.94,193.17-23.85c12.6-1.55,25.25-2.68,37.88-4,0,1.23,0,2.45.05,3.68-53.46,7.13-106.91,14.37-160.39,21.34q-30,3.92-60.19,6.63C165.4-1290.23,161.76-1293,158.25-1294.32Z" transform="translate(2439.2 1470.15)"/><path class="cls-14" d="M-232.11-947.72c-2.84-7.89-5-13.93-7.83-21.75,1.81-.34,7.23-3.09,10.41-1.46,2.75,1.4,3.95,7.74,4.09,11.95.46,15-.17,30.11.42,45.13.16,4,3.23,7.85,6.3,14.8-3.4,0-8,.12-12.5,0-2.54-.09-5.3-1.49-7.55-.85-15.29,4.34-25.27-.37-28.79-14-3.82-14.83,4.88-29.89,19.12-32.64C-244.37-947.41-240.12-947.22-232.11-947.72Zm-2.24,24.88c.74-8.22,1.21-17.29-11.05-17.59-11.87-.3-12.86,9.27-13.2,17.54-.38,8.9,2.65,17.4,13.26,18C-232.3-904-234-914-234.35-922.84Z" transform="translate(2439.2 1470.15)"/><path class="cls-12" d="M-1837.53-910c-9.44,4.49-19,12.93-28.3,12.67-18.77-.54-29.46-22.08-24.18-43.19,4.78-19.09,21.71-29.3,39.66-23.91,12,3.6,13.33,7.94,5.69,21.44-1.43-2.13-2.88-3.72-3.67-5.59-3.47-8.21-14.57-13-21.54-8-11,7.88-11.55,20-9.66,31.91,1.69,10.65,7.92,19,19.15,19.53,7.57.37,15.33-3,23-4.67Z" transform="translate(2439.2 1470.15)"/><path class="cls-8" d="M-942.72-920.6c-3.56-8-6.13-13.7-8.69-19.44l-16.36,10.17c-4.44-4.44-6-9.74,3.61-13.81,16.71-7.07,29.71-5.39,28.17,18.42-.51,7.9,2.09,16,3.26,24l3.87-.34c-.55.71-1.06,2-1.68,2-11.09,1-22.24,2.72-33.27,2.16-3.09-.16-8.6-7.64-8-10.9.72-4.16,5.9-8.7,10.26-10.73S-951.69-920-942.72-920.6Z" transform="translate(2439.2 1470.15)"/><path class="cls-14" d="M-503.43-898c-.77,0-4,.42-7.2.43s-6.44-.33-7.89-.42c1.27-8.06,3.46-15.57,3.34-23-.11-7.08-2.63-14.13-4.69-24.1l15.66,2.09c-.08,1.53-.16,3-.25,4.57,2.85-1.45,5.68-2.93,8.55-4.35,14.24-7.06,20.64-2.93,21.43,13.44.47,9.83,1.5,19.63,2.36,30.55h-13.55c.69-9.35,2.18-18.7,1.67-27.93-.21-3.9-4.64-7.57-7.15-11.35-4.8,3.2-13.08,5.84-13.71,9.71C-506.35-919.21-504.22-909.42-503.43-898Z" transform="translate(2439.2 1470.15)"/><path class="cls-12" d="M-865.55-923.87c1.22,18.49,6,21.39,27.89,18.11-7.86,10.45-18.93,12.44-29.18,5.24s-13.16-22.25-6.5-34.06c6.28-11.13,19.05-16.46,28.45-10.34,4.41,2.88,6.48,9.33,9.62,14.16-4.59,2.3-9,5.49-13.81,6.64S-859.29-923.87-865.55-923.87Z" transform="translate(2439.2 1470.15)"/><path class="cls-12" d="M-1687.95-923.91c2.48,18.3,3.57,19,30.27,19.22-10.17,7.72-19.39,11.64-30.15,4.8-10.06-6.4-12.56-16.28-10.24-27.15,2.2-10.3,8.17-19,19.42-19.37a27.44,27.44,0,0,1,18.26,7.28c6.75,6.74,2.78,14.24-7,15.24a96,96,0,0,1-9.89,0C-1680.51-923.92-1683.77-923.91-1687.95-923.91Z" transform="translate(2439.2 1470.15)"/><path class="cls-12" d="M-1009.9-923.88c2.94,18.82,5.42,20.26,30.93,18.42-9.76,8.51-18.88,12.43-29.6,6-11.14-6.72-14.15-17.24-10.59-29.23,3.36-11.32,10.94-20.06,23.35-17.67,6.23,1.19,14.91,8.24,15.92,13.82,1.81,10-8.25,8.57-15.1,8.69C-999.65-923.81-1004.31-923.88-1009.9-923.88Z" transform="translate(2439.2 1470.15)"/><path class="cls-14" d="M-1371.44-923.91c1.88,18,3.41,18.95,28.85,19.2-14,11.07-26,10.73-34.81-1-8-10.58-6.07-30,5.84-36.31,6.59-3.5,16.57-2.12,24.58-.61,2.58.49,5.33,8.6,4.91,12.92-.23,2.27-7,4.9-11.08,5.55C-1359.08-923.21-1365.27-923.91-1371.44-923.91Z" transform="translate(2439.2 1470.15)"/><path class="cls-12" d="M-926.49-944.86h14.55c2.74,12.51,5.26,24.06,7.79,35.62l4.52.18,6.92-35.39h14.35c-5.11,12.77-9.75,25.61-15.48,37.94-1.81,3.9-6.52,6.46-9.91,9.63-2.8-3.24-6.62-6.06-8.21-9.82C-917.11-918.88-921.45-931.41-926.49-944.86Z" transform="translate(2439.2 1470.15)"/><path class="cls-13" d="M-1837.37-909.88q.45-6.68.89-13.35c.86-13.14,8.57-22.36,20-23.62,12-1.33,20,4.21,23.94,15.29,4.76,13.33.1,28.41-10.56,33.4-11.29,5.28-21,2.5-28.76-7.31-1.47-1.86-3.76-3.07-5.67-4.58Zm39.4-6.22c-3.37-12.35-3.35-23.13-15.69-24.35-10.82-1.07-12.39,8-12.62,16.3-.27,9.76,1.14,20.55,13,20.88C-1808.28-903.13-1803.07-911.57-1798-916.1Z" transform="translate(2439.2 1470.15)"/><path class="cls-8" d="M-1549.78-921.27c.15,14.9-8.89,25.37-22.08,25.55-13.52.18-23.77-10.92-23.83-25.8,0-14.35,9.45-25.14,22.46-25.51C-1559.52-947.41-1549.93-936.88-1549.78-921.27Zm-7.17,2.84c-3.63-11.31-4.35-21.5-16-22s-12.38,9.45-12.35,18c0,9.91,2.54,20.48,14.63,19.22C-1565.64-903.76-1561.51-913.1-1556.95-918.43Z" transform="translate(2439.2 1470.15)"/><path class="cls-13" d="M-441.91-895.73c-13.47-.12-23.58-11.77-23.21-26.75.36-14.54,10.28-24.82,23.67-24.53,13,.29,22.26,11.08,22.24,26S-428.6-895.61-441.91-895.73Zm-15.83-29.66c3.37,12.21,4.78,22.48,17.12,22.64,10.92.14,11.34-9.53,11.24-17.51-.12-9.61-1.5-20.75-14-19.71C-448.52-939.53-453-930.51-457.74-925.39Z" transform="translate(2439.2 1470.15)"/><path class="cls-9" d="M-1211.59-919.79c-1.36,16.26-9.35,24.72-22.76,24.09-13-.62-22-11.25-22.1-25.85,0-14.79,8.94-25.15,22.16-25.49,13.55-.36,21.06,7.7,22.7,24.33Zm-34.66-2.63c.47,9.75,2.27,19.35,13.89,19.65,11.28.3,11.55-9.86,11.43-17.58-.13-8.81-.92-19.53-13-20.06S-1245.57-930.66-1246.25-922.42Z" transform="translate(2439.2 1470.15)"/><path class="cls-8" d="M-1211.59-919.79v-2.92c2-2.14,4.82-4,5.74-6.5,4.89-13.41,14.32-20.11,26.65-17.45,13.31,2.88,18,12.91,18.14,25.14s-4.47,22.26-17.73,25.36c-11.93,2.79-21.69-4-26.89-17.24C-1206.67-915.91-1209.57-917.68-1211.59-919.79Zm43.31,1.29c-3.41-11.45-4.25-21.55-16-21.92-11.5-.36-12.56,9.45-12.37,18.09.21,9.86,2.86,20.44,14.87,19.17C-1176.78-903.69-1172.75-913.12-1168.28-918.5Z" transform="translate(2439.2 1470.15)"/><path class="cls-12" d="M-148.49-923.87c1.33,18.28,6.45,21.4,27.88,18.1-7.65,10.5-18.69,12.48-29,5.19-10.81-7.66-13.32-23-5.76-35.21,6.73-10.83,19.81-15.23,28.9-8.47,3.94,2.93,5.58,8.94,8.27,13.54-4.57,2.29-8.94,5.53-13.78,6.59C-137.2-923-142.9-923.87-148.49-923.87ZM-148-931h20C-136.48-944.27-140.39-944.21-148-931Z" transform="translate(2439.2 1470.15)"/><path class="cls-13" d="M-303.66-923.89c1.94,18,3.1,18.73,29,19.15-13.87,11.08-25.75,10.85-34.66-.66-8.42-10.88-6.18-30.69,6.22-37.16,6.31-3.3,15.84-2.21,23.36-.55,3,.66,6.54,8.54,5.91,12.5-.44,2.79-7.32,5.62-11.71,6.45C-291.38-923.06-297.55-923.89-303.66-923.89Zm22.67-7c-12.45-13.4-15-13.15-21,0Z" transform="translate(2439.2 1470.15)"/><path class="cls-16" d="M-343.61-967.77c15.46-7.26,18.48-5.54,18.61,9.67.13,14.05-.35,28.11.23,42.13.22,5.41,2.64,10.73,4.36,17.25h-20.76C-331.77-911.86-333-959.23-343.61-967.77Z" transform="translate(2439.2 1470.15)"/><path class="cls-14" d="M-1027-898.38h-20.18c9.78-12.89,8.32-61.7-4-70.23,6.56-1.22,11.94-3.92,15.23-2.32,2.79,1.35,4.23,7.63,4.39,11.79.53,13.58-.22,27.2.38,40.77C-1030.89-912.13-1028.63-906-1027-898.38Z" transform="translate(2439.2 1470.15)"/><path class="cls-16" d="M-1471.2-944.1c1.54-2.31,5.23-7.84,8-12l17.88,14.87-12.51,7v27.9l12,.56,1.06,3.91c-5.49,1.78-11.94,6.15-16.18,4.57-3.83-1.42-6.48-9.12-7.43-14.44C-1470.13-921.58-1470.23-931.65-1471.2-944.1Z" transform="translate(2439.2 1470.15)"/><path class="cls-5" d="M18.14-1172.77l-30.36,0q5.09-19.2,10.16-38.41l3.27,1.76-.17-.15,5.87,2.91-.15-.12,5.78,5.79-.11-.11,3,3-.16-.12,5.84,2.89-.1-.09q1.66,3.53,3.32,7.05l-.47,7.43-5.67,2.32Zm-7.78-3.82c.34-.78,1.1-1.74.88-2.3S9.8-1179.62,9-1180c-.34.79-1.11,1.74-.89,2.3S9.57-1176.93,10.36-1176.59Z" transform="translate(2439.2 1470.15)"/><path class="cls-12" d="M-1516-937.14c-16.44,11.45-17.39,27.06.85,38.5l-25.5,1.31c1.24-8.51,3.33-16.1,3.17-23.65-.14-7.15-2.63-14.25-4.6-23.87,4.61-3.24,11.33-5,14.71,4.63l20.05-4.71v16.67l-3,.54Z" transform="translate(2439.2 1470.15)"/><path class="cls-14" d="M-1611.91-964c1.17,8.68-1.38,19.47,13.18,20.19-15.19,13.91-16.3,33.73-1.31,44.68h-23.81c6.93-11.87,6.09-33-1.18-40.15,3.73-9.91,7.3-19.43,10.88-28.94Z" transform="translate(2439.2 1470.15)"/><path class="cls-14" d="M-699.28-940.76c2.42-2.6,5.16-5,7.17-7.88,1.78-2.56,2.74-5.69,3.44-7.2l17.74,14.75-12.3,6.18v29.4H-671l.9,3.71c-5.59,1.55-12.28,5.67-16.44,3.89-3.66-1.56-5.41-9.55-6.38-15-1.66-9.26-2-18.74-3-28.12Z" transform="translate(2439.2 1470.15)"/><path class="cls-8" d="M-647.48-938.43c27.33-13.1,30.65-10.86,31.08,19.72.08,6.25,2.1,12.47,3.57,20.65l-16.21.73c1-8,2.53-14.91,2.62-21.88.26-21.49-2.28-22.91-20.93-12.86Q-647.41-935.25-647.48-938.43Z" transform="translate(2439.2 1470.15)"/><path class="cls-5" d="M32.29-1119c-1,2.5-2,5-3,7.53l11.62,3.72-17.49,10.29s0-.2,0-.21c1.52-1.75,3-3.5,4.52-5.25l-1.48-1.8-5.75,3.28-7.07-11.23,3.47-6.39L9.9-1120.6c.15-1.63.29-3.27.45-4.87.72-.27,1.42-.57,2.13-.88l-2.21.4-3.06.58c-.22-4.82-.47-9.62-.72-14.42l23-1.31c1.23,9.89,2.34,19.88,15.86,20.15-.4,1.51-.8,3-1.19,4.53l-11.84-2.64-7.71-2.6c-.2.87-.39,1.75-.58,2.63Zm-4.55-9.68-1.88-.59.3,1Z" transform="translate(2439.2 1470.15)"/><path class="cls-5" d="M1.5-1350.77l4-.67,54.9,11.32,38.13,8.56-3.92,2.84L8.52-1344.27c1.32,3.9,1.38,5.66,2.27,6.35,1.43,1.09,3.4,1.48,5.15,2.16-.62,10.39-3.49,18.4-16.58,15.63Q.42-1335.44,1.5-1350.77Z" transform="translate(2439.2 1470.15)"/><path class="cls-14" d="M-647.48-938.43q.08,3.18.13,6.36c.4,10.87.8,21.73,1.24,33.71h-12.7l-.45-4c.81-15,1.66-30.05,2.42-45.08.25-5.06.29-10.13.43-15.2q.28-4.41.59-8.81c2.7,3.22,7.15,6.15,7.74,9.71C-646.82-954.17-647.56-946.23-647.48-938.43Z" transform="translate(2439.2 1470.15)"/><path class="cls-5" d="M397.27-1167.07l-5.09,1.31-19.32,1.11a4,4,0,0,0-.65-2.44c.59-4.49,1.18-9,2.31-17.53Z" transform="translate(2439.2 1470.15)"/><path class="cls-17" d="M11.68-1415.72l46.26,11.61.18,4.37C38.07-1396,21.51-1406.5,4-1413Z" transform="translate(2439.2 1470.15)"/><path class="cls-9" d="M-1096.12-883.43c0-7.45-.38-13.19.18-18.84.23-2.32,2.85-6.43,3.79-6.27,2.73.46,6.8,2.18,7.45,4.28C-1081.6-894.08-1086.68-887.8-1096.12-883.43Z" transform="translate(2439.2 1470.15)"/><path class="cls-18" d="M352.39-1216.69l-42.53,7.33c.1-1.89.19-3.78.28-5.67l42.35-5.55Z" transform="translate(2439.2 1470.15)"/><path class="cls-16" d="M-1611.91-964l-2.24-4.22c6.71-8.13,14-7.62,22-1.66C-1595.13-954.24-1606.54-969.58-1611.91-964Z" transform="translate(2439.2 1470.15)"/><path class="cls-5" d="M-7.52-1367.63c7.12-.61,9.67,1.84,5.75,8.59l-11.09-1.32a11.16,11.16,0,0,1,.66-1.13Q-9.87-1364.56-7.52-1367.63Z" transform="translate(2439.2 1470.15)"/><path class="cls-2" d="M6.49-1139.79c.25,4.8.5,9.6.72,14.42-2.19-3.11-4.35-6.23-6.51-9.35.14-1.63.29-3.26.43-4.88Z" transform="translate(2439.2 1470.15)"/><path class="cls-8" d="M-655.82-971.49q-.3,4.4-.59,8.81l-12.55-5Z" transform="translate(2439.2 1470.15)"/><path class="cls-2" d="M9.9-1120.6l7.18,1.51-3.47,6.39C12.37-1115.34,11.14-1118,9.9-1120.6Z" transform="translate(2439.2 1470.15)"/><path class="cls-2" d="M20.68-1101.47l5.75-3.28,1.48,1.8c-1.5,1.75-3,3.5-4.52,5.25C22.47-1098.95,21.58-1100.21,20.68-1101.47Z" transform="translate(2439.2 1470.15)"/><path class="cls-8" d="M-659.26-902.4l.45,4-4.52-.68Z" transform="translate(2439.2 1470.15)"/><path class="cls-5" d="M-4.52-1319.53l0,4.45Z" transform="translate(2439.2 1470.15)"/><path class="cls-7" d="M397.87-1288.12l5.26-3.37Z" transform="translate(2439.2 1470.15)"/><path class="cls-19" d="M372.21-1167.09a3.91,3.91,0,0,1,.64,2.44l-4,.18a2.36,2.36,0,0,1,.33-2.54Z" transform="translate(2439.2 1470.15)"/><path class="cls-17" d="M-6.07-1413.28c.34,1.16.69,2.31,1,3.47C-5.38-1411-5.73-1412.12-6.07-1413.28Z" transform="translate(2439.2 1470.15)"/><path class="cls-2" d="M10.27-1125.95l2.21-.4c-.71.31-1.41.61-2.13.88C10.34-1125.51,10.27-1125.95,10.27-1125.95Z" transform="translate(2439.2 1470.15)"/><path class="cls-5" d="M1.13-1139.6c-.14,1.62-.29,3.25-.43,4.88C.84-1136.34,1-1138,1.13-1139.6Z" transform="translate(2439.2 1470.15)"/><path class="cls-18" d="M1.21-1209.37l-3.27-1.76A2.23,2.23,0,0,1-.79-1213Z" transform="translate(2439.2 1470.15)"/><path class="cls-19" d="M44.15-1116.42c.39-1.51.79-3,1.19-4.53l168.25-20.67c-.09,1.84-.18,3.68-.26,5.52-47.54,6.16-95.05,12.43-142.61,18.37C62-1116.63,53-1116.82,44.15-1116.42Z" transform="translate(2439.2 1470.15)"/><path class="cls-20" d="M1.83-1249.25c21.09,15.76,49.6,20.73,46.06,55.75C32.47-1205.38,17.23-1216,3.6-1228.42.32-1231.4,2.4-1240.23,1.83-1249.25Zm6.34,16.07,3.32,2.13,8.62,6.54,1.77-2.51-8-6.59-3.5-2.06-5.72-3.25-1.16,1.82Z" transform="translate(2439.2 1470.15)"/><path class="cls-15" d="M83.4-1255.06l65,15.5c21.9-3.53,43.79-7.17,65.72-10.55,6.38-1,12.86-1.26,19.3-1.86l3.93,2.5-48.92,11.34c-.19,1.85-.39,3.69-.58,5.53l-5.42.49c-2.26-12.45-9.72,2.27-13.66-2.46.68,1.64,1.36,3.27,2.05,4.91l-8.24.26-14.91-4.82-64.37-17.9Z" transform="translate(2439.2 1470.15)"/><path class="cls-17" d="M226.06-1189.29l120.66-6,12.52,5.41q-47.22,2-94.45,3.94c-13.14.53-26.28.84-39.43,1.25C225.59-1186.22,225.83-1187.75,226.06-1189.29Z" transform="translate(2439.2 1470.15)"/><path class="cls-19" d="M261.77-1155.34h85.9l.16,1.22-54.9,6.24-3-3.95-2.7,4.26L276.43-1146l-6.18,1.1-13.91,1.54c-.07-1.17-.15-2.34-.23-3.51l10.27-1.55-4.61-2Z" transform="translate(2439.2 1470.15)"/><path class="cls-17" d="M106.85-1149.8l92.72-2.7c0,1.32.08,2.65.13,4l-93.61,4C106.34-1146.3,106.6-1148,106.85-1149.8Z" transform="translate(2439.2 1470.15)"/><path class="cls-18" d="M270.92-1262.9l85.73-16.24.78,3.89-87,17.68C270.61-1259.35,270.77-1261.12,270.92-1262.9Z" transform="translate(2439.2 1470.15)"/><path class="cls-19" d="M151.78-1287.6c-16,1.73-32,3.71-48.12,5-4.89.41-9.92-1-14.89-1.61,0-1.32,0-2.63.08-4l69.57-6.19Z" transform="translate(2439.2 1470.15)"/><path class="cls-17" d="M212.51-1181.51l-61.37.54,4-8.37,27.33-.6Z" transform="translate(2439.2 1470.15)"/><path class="cls-21" d="M187.86-1232.6c.19-1.84.39-3.68.58-5.53l74.73-6.88.51,3.61Z" transform="translate(2439.2 1470.15)"/><path class="cls-5" d="M212.51-1181.51l-30.06-8.43c7.93-8,17.81-3.49,26.75-3.63,5.59-.09,11.23,2.75,16.85,4.28-.22,1.54-.46,3.07-.69,4.6Z" transform="translate(2439.2 1470.15)"/><path class="cls-5" d="M106.85-1149.8c-.25,1.75-.51,3.5-.76,5.26l-25.66,2.84-14.09-2.66c1.51-1.92,3-5.45,4.54-5.5C82.86-1150.22,94.86-1149.9,106.85-1149.8Z" transform="translate(2439.2 1470.15)"/><path class="cls-22" d="M199.7-1148.53c0-1.32-.09-2.65-.13-4l62.2-2.84v4.89l-25.52,1.06Z" transform="translate(2439.2 1470.15)"/><path class="cls-21" d="M147.68-1234.22l14.91,4.82-51,8.11c-.09-1.19-.18-2.39-.28-3.58,10-1.54,20.05-2.86,30-4.79C143.61-1230.11,145.55-1232.64,147.68-1234.22Z" transform="translate(2439.2 1470.15)"/><path class="cls-18" d="M100.44-1261.42,153.59-1248l-5.14,4.8-48.11-14.58Z" transform="translate(2439.2 1470.15)"/><path class="cls-21" d="M326.11-1250.31,275-1243.1l-.65-4.19,51.15-7.25C325.67-1253.13,325.89-1251.72,326.11-1250.31Z" transform="translate(2439.2 1470.15)"/><path class="cls-18" d="M157.05-1262.75,108-1273l.25-3.1,14.82-1.21-.12-.12,8.66,3-.24-.11,25.77,8C157.1-1265.31,157.07-1264,157.05-1262.75Z" transform="translate(2439.2 1470.15)"/><path class="cls-19" d="M83.4-1255.06l-.09,2.94-45.48-13.26c0-1,.05-2.1.07-3.15Z" transform="translate(2439.2 1470.15)"/><path class="cls-17" d="M111.28-1224.87c.1,1.19.19,2.39.28,3.58l-57,7.43L54-1218Z" transform="translate(2439.2 1470.15)"/><path class="cls-22" d="M98.55-1173.24c-12,1.78-24,4.2-36.17,5-5.41.37-11.05-2.44-16.59-3.81l2.3-2.26c7.22.2,14.45.63,21.67.54,9.23-.11,18.46-.65,27.7-1A2.27,2.27,0,0,1,98.55-1173.24Z" transform="translate(2439.2 1470.15)"/><path class="cls-22" d="M123.06-1277.28l28.09-4.21,5.64,9.45-25.43-2.52.24.11-8.66-3Z" transform="translate(2439.2 1470.15)"/><path class="cls-5" d="M155.12-1189.34l-4,8.37c-7.92,4.5-15.07,4.09-22.89-2.5Z" transform="translate(2439.2 1470.15)"/><path class="cls-5" d="M236.25-1149.39l25.52-1.06,4.61,2-10.27,1.55-14.17,5.19-5.6,2.31Z" transform="translate(2439.2 1470.15)"/><path class="cls-5" d="M213.33-1136.1c.08-1.84.17-3.68.26-5.52l12.92-1.37.29,5.83Z" transform="translate(2439.2 1470.15)"/><path class="cls-18" d="M18.14-1178.61l5.67-2.32,6.8-.56-1.77-4.64L31-1188.6l4.35,3.75c0,2.8-.09,5.59-.13,8.39l-11.41.84Z" transform="translate(2439.2 1470.15)"/><path class="cls-5" d="M359.24-1189.88l-12.52-5.41,12.67-2.58Z" transform="translate(2439.2 1470.15)"/><path class="cls-7" d="M131.36-1274.56l25.43,2.52c.11,1.81.22,3.63.34,5.45Z" transform="translate(2439.2 1470.15)"/><path class="cls-21" d="M170.83-1229.66c-.69-1.64-1.37-3.27-2.05-4.91,3.94,4.73,11.4-10,13.66,2.46Z" transform="translate(2439.2 1470.15)"/><path class="cls-23" d="M368.83-1164.47l4-.18,19.33-1.11-22.6,7.49-3-.29Z" transform="translate(2439.2 1470.15)"/><path class="cls-22" d="M35.24-1176.46c0-2.8.08-5.59.13-8.39l12.71,10.58L45.79-1172Z" transform="translate(2439.2 1470.15)"/><path class="cls-5" d="M310.14-1215c-.09,1.89-.18,3.78-.28,5.67H299.65l-.21-4.41Z" transform="translate(2439.2 1470.15)"/><path class="cls-5" d="M293.54-1203.83c-2.78-1.05-5.61-2-8.27-3.29a8.51,8.51,0,0,1,.84-3.45c2.93.16,5.85.66,8.77,1.08Z" transform="translate(2439.2 1470.15)"/><path class="cls-5" d="M121-1175.84l-8.47-2.5q.8-2.39,1.57-4.79l8.33,3C121.91-1178.73,121.43-1177.28,121-1175.84Z" transform="translate(2439.2 1470.15)"/><path class="cls-22" d="M241.94-1141.68l14.17-5.19c.08,1.17.16,2.34.23,3.51Z" transform="translate(2439.2 1470.15)"/><path class="cls-7" d="M237.36-1249.47l-3.93-2.5,6.53-4.83,3.42,5.31Z" transform="translate(2439.2 1470.15)"/><path class="cls-5" d="M254.54-1207.52c1.73,2.13,3.88,3.88,3.57,4.57-.72,1.66-2.59,2.82-4,4.18-1.05-1.29-2.87-2.55-2.91-3.86S252.92-1205.29,254.54-1207.52Z" transform="translate(2439.2 1470.15)"/><path class="cls-7" d="M366.31-1254.09l10.33-9.51,2.12,1.49c-.9,2.11-1.3,4.81-2.86,6.14S371.78-1255,366.31-1254.09Z" transform="translate(2439.2 1470.15)"/><path class="cls-5" d="M225.75-1197.76c-1.9,2.12-3.3,4.49-4,4.3-1.78-.49-3.24-2.12-4.83-3.29,1.14-1.23,2.13-3.16,3.48-3.47S223.26-1199,225.75-1197.76Z" transform="translate(2439.2 1470.15)"/><path class="cls-5" d="M233.1-1199.75l10.19-.62c-.37,2-.45,3.54-.68,3.56-3.15.33-6.31.45-9.47.62C233.13-1197.38,233.11-1198.57,233.1-1199.75Z" transform="translate(2439.2 1470.15)"/><path class="cls-5" d="M277.42-1202.4l-7.11.59c1-1.47,1.85-3.26,3.23-4.26.68-.48,2.43.51,3.69.84Z" transform="translate(2439.2 1470.15)"/><path class="cls-5" d="M98.55-1173.24a2.27,2.27,0,0,0-1.09-1.49l4.13-5.26,3.27,3.85Z" transform="translate(2439.2 1470.15)"/><path class="cls-5" d="M35.76-1093.56a47.34,47.34,0,0,1,4.48,4.36c.15.17-1.64,2.67-2.15,2.54a36.37,36.37,0,0,1-6-2.53Z" transform="translate(2439.2 1470.15)"/><path class="cls-18" d="M24.28-1188.36q-1.65-3.53-3.32-7.05L31-1188.59c-.73.81-1.45,1.63-2.18,2.46Z" transform="translate(2439.2 1470.15)"/><path class="cls-7" d="M270.92-1262.9c-.15,1.78-.31,3.55-.46,5.33l-7.43-1.37-.15-2.36Z" transform="translate(2439.2 1470.15)"/><path class="cls-7" d="M253.58-1252.37c-1.14-1.33-2.38-2.15-2.48-3.09s.76-2.29,1.21-3.44c1.13.93,2.61,1.69,3.24,2.89C255.85-1255.43,254.52-1254,253.58-1252.37Z" transform="translate(2439.2 1470.15)"/><path class="cls-5" d="M66.34-1144.36l14.09,2.66Z" transform="translate(2439.2 1470.15)"/><path class="cls-5" d="M18.14-1178.61l5.69,3-5.69,2.85Z" transform="translate(2439.2 1470.15)"/><path class="cls-22" d="M270.25-1144.9l6.18-1.1Z" transform="translate(2439.2 1470.15)"/><path class="cls-22" d="M356.75-1157l8-1,.47,3.16-8.06,1Z" transform="translate(2439.2 1470.15)"/><path class="cls-22" d="M287.25-1147.57l2.7-4.26,3,3.95Z" transform="translate(2439.2 1470.15)"/><path class="cls-18" d="M12.54-1200.94l-5.78-5.79Z" transform="translate(2439.2 1470.15)"/><path class="cls-18" d="M21.06-1195.32l-5.84-2.89Z" transform="translate(2439.2 1470.15)"/><path class="cls-18" d="M6.91-1206.61,1-1209.52Z" transform="translate(2439.2 1470.15)"/><path class="cls-23" d="M37.9-1268.53c0,1,0,2.1-.07,3.15l-5.66-3.52Z" transform="translate(2439.2 1470.15)"/><path class="cls-18" d="M15.38-1198.09l-3-3Z" transform="translate(2439.2 1470.15)"/><path class="cls-19" d="M369.58-1158.27l-2.91,2.72c0-1,0-2-.07-3Z" transform="translate(2439.2 1470.15)"/><path class="cls-24" d="M131.82-1378.3l-.3,4.38c-13.77-1.29-27.51-3-41.3-3.75-14.13-.8-28.31-.74-42.46-1.06l-6.43,2.5-10.48,1c1.46,1.64,2.91,3.29,4.37,4.94l2.62.21,6.07.71q-.1,10.45-.2,20.91l-3-.42c-.77-4.33-1.53-8.67-2.74-15.55l-8.51,10.94-8.74-5.76L9.5-1386.79l11.42-.76.14.16c4.56,6.63,4.56,6.63,11.85-2.64l64.69,7.68Z" transform="translate(2439.2 1470.15)"/><path class="cls-20" d="M162.8-1406.89c24.9-.17,49.81.16,74.68-.62,45.44-1.41,90.84-3.52,136.27-5.2,8-.29,16,.14,24.05.24,0,1.41,0,2.82.05,4.22q-80.4,2-160.78,4-37.44,1-74.87,2Z" transform="translate(2439.2 1470.15)"/><path class="cls-22" d="M188.08-1344.62l142.15-18.59c.21,1.49.43,3,.64,4.46l-142.79,19Z" transform="translate(2439.2 1470.15)"/><path class="cls-20" d="M15.94-1335.76c-1.75-.68-3.72-1.07-5.15-2.16-.89-.69-.95-2.45-2.27-6.35l86.11,15.55,11.27,8.9-79.29-13.6Z" transform="translate(2439.2 1470.15)"/><path class="cls-19" d="M35.22-1370.28c-1.46-1.65-2.91-3.3-4.37-4.94l10.48-1c16.75,2.8,33.46,5.93,50.27,8.32,19.76,2.8,39.61,5,59.42,7.39q-.35,2.8-.68,5.63L43.91-1369.36l-6.07-.71A4.06,4.06,0,0,0,35.22-1370.28Z" transform="translate(2439.2 1470.15)"/><path class="cls-15" d="M188.08-1344.62v4.83c-31.93,10.43-63.22-.25-94.75-2.9L57.63-1350l-9.3-2.35,12.17-2.25,37.05,6.09C127.5-1341.94,157.54-1337.7,188.08-1344.62Z" transform="translate(2439.2 1470.15)"/><path class="cls-15" d="M101.79-1308.37v14.79l-75.28-23.29c19.75,3.4,39.46,7.09,59.29,10,5,.73,10.27-1,15.42-1.65Z" transform="translate(2439.2 1470.15)"/><path class="cls-20" d="M47.76-1378.73c14.15.32,28.33.26,42.46,1.06,13.79.79,27.53,2.46,41.3,3.75l18.17,4.41c-.15,1.38-.31,2.76-.46,4.13Z" transform="translate(2439.2 1470.15)"/><path class="cls-19" d="M101.79-1308.37l-.57-.15L28.1-1323.21q-.75-2.51-1.52-5l79.11,14.9Z" transform="translate(2439.2 1470.15)"/><path class="cls-22" d="M148.07-1387.46,94.9-1391C106.11-1398.42,138.56-1397.85,148.07-1387.46Z" transform="translate(2439.2 1470.15)"/><path class="cls-5" d="M105.69-1313.31l-79.11-14.9.17.16a1.17,1.17,0,0,1-.73-1.6l.59-3.77,79.29,13.6Z" transform="translate(2439.2 1470.15)"/><path class="cls-5" d="M28.1-1323.21l73.12,14.69c-5.15.62-10.47,2.38-15.42,1.65-19.83-2.91-39.54-6.6-59.29-10l-4.21-2.4Z" transform="translate(2439.2 1470.15)"/><path class="cls-22" d="M60.52-1358.46l-6.3-1.44.57-3.09,57.76,7.5-.09,3.7-15-.74Z" transform="translate(2439.2 1470.15)"/><path class="cls-15" d="M40.71-1348.87l3,.42,9.66,1.07,7.23,2.83-.18,4.43-54.9-11.32,6.62-3.16,17.34,3.28Z" transform="translate(2439.2 1470.15)"/><path class="cls-20" d="M58.12-1399.74l-.18-4.37c25.91-.66,51.81-1.52,77.73-1.77,3.77,0,7.58,2.88,11.37,4.43Z" transform="translate(2439.2 1470.15)"/><path class="cls-18" d="M97.6-1382.35,32.91-1390l64.77,3.74Z" transform="translate(2439.2 1470.15)"/><path class="cls-20" d="M97.6-1382.35l.08-3.94,50.66,4.17-.19,4.9-16.33-1.08Z" transform="translate(2439.2 1470.15)"/><path class="cls-22" d="M60.42-1340.12l.18-4.43,25.06,4c4.54,1.24,9.12,2.36,13.55,3.92.33.12-.42,3.3-.66,5Z" transform="translate(2439.2 1470.15)"/><path class="cls-24" d="M60.52-1358.46l37,5.93c0,1.34,0,2.68.07,4l-37-6.09C60.51-1355.88,60.52-1357.17,60.52-1358.46Z" transform="translate(2439.2 1470.15)"/><path class="cls-5" d="M85.66-1340.53l-25.06-4-7.23-2.83,4.26-2.62,35.7,7.31Z" transform="translate(2439.2 1470.15)"/><path class="cls-5" d="M29.48-1351.32l-17.34-3.28c.12-1.49.23-3,.34-4.49l2.93-.12,5.31,0,8.74,5.76C29.47-1352.76,29.48-1352,29.48-1351.32Z" transform="translate(2439.2 1470.15)"/><path class="cls-23" d="M397.85-1408.25c0-1.4,0-2.81-.05-4.22l19.88-.53Z" transform="translate(2439.2 1470.15)"/><path class="cls-5" d="M376-1368.3l-10.85,7.17-2.06-3.19,11-7Z" transform="translate(2439.2 1470.15)"/><path class="cls-24" d="M15.41-1359.21l-2.93.12-3.71-5.81,3.27-2Z" transform="translate(2439.2 1470.15)"/><path class="cls-21" d="M162.8-1406.89l-.6,4.7-9.57.66Z" transform="translate(2439.2 1470.15)"/><path class="cls-5" d="M396.7-1371.23c-.34.78-.51,2-1.07,2.22s-1.52-.55-2.31-.88c.34-.78.51-2,1.07-2.22S395.91-1371.57,396.7-1371.23Z" transform="translate(2439.2 1470.15)"/><path class="cls-23" d="M88.85-1288.14c0,1.32,0,2.63-.08,4l-8.44-4.48Z" transform="translate(2439.2 1470.15)"/><path class="cls-5" d="M344.4-1361.32c.09.35.37.92.26,1a3.43,3.43,0,0,1-1.18.4c-.1-.35-.37-.92-.26-1A3.49,3.49,0,0,1,344.4-1361.32Z" transform="translate(2439.2 1470.15)"/><path class="cls-5" d="M386.31-1365.57l-1-.8c.37-.21.76-.59,1.11-.56s.66.48,1,.75Z" transform="translate(2439.2 1470.15)"/><path class="cls-5" d="M352.9-1367c.09.35.37.92.26,1a3.43,3.43,0,0,1-1.18.4c-.1-.35-.37-.92-.26-1A3.28,3.28,0,0,1,352.9-1367Z" transform="translate(2439.2 1470.15)"/><path class="cls-24" d="M20.92-1387.55c1-.7,2.08-1.41,3.16-2,0,0,.48.67.74,1l-3.76,1.18Z" transform="translate(2439.2 1470.15)"/><path class="cls-19" d="M26-1329.65a1.17,1.17,0,0,0,.73,1.6l-2-1.5Z" transform="translate(2439.2 1470.15)"/><path class="cls-17" d="M100.44-1261.42l-.1,3.64-58.23-16.09,1-3.65Z" transform="translate(2439.2 1470.15)"/><path class="cls-5" d="M24.28-1188.36l4.56,2.23,1.77,4.64-6.8.56Q24-1184.65,24.28-1188.36Z" transform="translate(2439.2 1470.15)"/><path class="cls-5" d="M10.36-1176.59c-.79-.34-2-.51-2.23-1.07s.55-1.51.89-2.3c.78.34,2,.51,2.22,1.07S10.7-1177.37,10.36-1176.59Z" transform="translate(2439.2 1470.15)"/><path class="cls-2" d="M32.29-1119H24c.19-.88.38-1.76.58-2.63l7.71,2.6Z" transform="translate(2439.2 1470.15)"/><path class="cls-2" d="M27.74-1128.71l-1.58.46-.3-1Z" transform="translate(2439.2 1470.15)"/><path class="cls-2" d="M13.9-1233.62l8,6.6-1.77,2.51L11.49-1231Z" transform="translate(2439.2 1470.15)"/><path class="cls-2" d="M8.16-1233.17l-4.64-3.93,1.16-1.82,5.72,3.25Z" transform="translate(2439.2 1470.15)"/><path class="cls-2" d="M10.4-1235.67l3.5,2.05L11.49-1231l-3.32-2.12C8.91-1234,9.66-1234.83,10.4-1235.67Z" transform="translate(2439.2 1470.15)"/><path class="cls-7" d="M122.94-1277.4l8.66,3Z" transform="translate(2439.2 1470.15)"/><path class="cls-5" d="M29.48-1351.32c0-.72,0-1.44,0-2.16L38-1364.42c1.21,6.88,2,11.22,2.74,15.55Z" transform="translate(2439.2 1470.15)"/><path class="cls-5" d="M35.22-1370.28a4.06,4.06,0,0,1,2.62.21Z" transform="translate(2439.2 1470.15)"/></svg>