<svg id="Layer_1" data-name="Layer 1" xmlns="http://www.w3.org/2000/svg" viewBox="0 0 3961.01 4056.15"><defs><style>.cls-1{fill:#243565;}.cls-2{fill:#263767;}.cls-3{fill:#8ed8bd;}.cls-4{fill:#263867;}.cls-5{fill:#273968;}.cls-6{fill:#253766;}.cls-7{fill:#243666;}.cls-8{fill:#8dd8bd;}.cls-9{fill:#263766;}.cls-10{fill:#273867;}.cls-11{fill:#2a3b69;}.cls-12{fill:#293a69;}.cls-13{fill:#2b3c6a;}.cls-14{fill:#2a3c6a;}.cls-15{fill:#2c3d6b;}.cls-16{fill:#2e3f6c;}.cls-17{fill:#344470;}</style></defs><path class="cls-1" d="M4685.11-1642.68c-83.07,224.79-193.21,434.13-351.55,616-4.34,5-8.21,10.4-12.77,15.17-19.48,20.35-32.28,42.11-35.08,72.32-4.24,45.71-29.95,63.44-76,63.82-19.51.17-40,1.19-58.24,7.26-29.26,9.75-32.58,23.36-17.31,49.7,1.6,2.75,3.18,5.52,6.71,11.66-5.23-3.14-7.55-4.13-9.38-5.7-23.41-20.07-49.6-23-78.16-13.33-18.73,6.38-37.73,12-56.46,18.31-12.84,4.35-15.33,11.39-6.87,22.53,7.66,10.09,17.15,18.78,25.62,28.27,21.16,23.72,33.54,51,33.25,83.3,0,2.18-.45,4.35-1.1,10.19l-65.05-70.63c-20.12,15.58-41.5,29.55-59.71,46.85-26.31,25-50.25,52.47-75.34,78.76-14.67,15.36-28.75,31.43-44.65,45.42-16.72,14.72-23.44,32.6-22.94,53.9.36,15.47,1.51,30.91,2.39,48-18.09-.83-34.86-1.79-51.65-2.33-56.36-1.8-70.47,12.08-70.38,68.88,0,11.76,0,23.51,0,40.37-13.24-7.71-25.56-12.4-34.54-20.71-12-11.11-21.73-24.78-31.85-37.8-13.73-17.67-29.69-25.5-52.91-19.19-35.89,9.77-72.57,16.64-108.52,26.21-14.33,3.81-27.63,11.53-42,17.74,2.37,7.72,4.71,13.79,6.06,20.06,3.08,14.29-2.39,23-16.69,23.22-18.14.23-36.2-.53-52.94-10.63-41.66-25.13-84.13-48.8-132.95-57.53a197.35,197.35,0,0,0-93.77,5.62c-5.9,1.8-13.18,2.55-18.93.84-103-30.69-208.66-40.21-315.15-34.52-95.07,5.09-189.8,16.38-284.69,24.93-2.28.21-4.57.31-10,.67v-61.09l-4-.72c-2.56,2.95-5,6-7.69,8.84-9.49,9.78-25.46,12.67-36.19,5.34C2338.4-521,2245-564.3,2154.36-612.84c-36.43-19.52-72-32.68-115.16-33.66-69.35-1.58-132.34-27.16-185.37-74.21-31.3-27.75-69.25-39.66-110.43-41.4-21.68-.91-43.45-1-65.13-.09-94.79,3.91-166.34-38.24-220.93-112.34-44.62-60.55-67-130.41-79.53-203.71-4-23.25-9.78-46-27.13-62.52-10.55-10.07-23.8-19.39-37.5-23.44-10.84-3.2-14.81-7.46-17.85-17.09-49.76-157.74-117.92-308-185.17-458.74-28.62-64.15-55.88-128.9-84.52-193-17.46-39.1-25.46-79.81-25.31-122.39.09-24.5,0-49,0-74.6l11.91,2.7c28.56,6.46,45-7.8,40.21-36.65-5.55-33.46-11.91-66.85-19.57-99.89-28.79-124.14-80.39-239.28-141-350.63-9.1-16.73-11.17-31.72-8-50.52,18-105.07,33.42-210.57,51.58-315.6,14.09-81.5,35.72-161,71.13-236.32,35.76-76.09,89-138.57,149.26-195.89q80-76.11,159.76-152.52c35.79-34.47,60.36-75.74,72.92-124.06,9.63-37,29.48-67.33,57.44-93.85,99.66-94.5,198.27-190.1,297.4-285.15,7.82-7.5,17-13.56,24.77-21.13,27.18-26.61,60.14-32.7,96.65-30.06,38,2.75,76.16,3.52,114.24,5.31,10.72.51,14.8-5,18.59-14.68,33-84,91.16-140.06,181.55-157.19,19.39-3.68,40.51-1.48,60.33,1.44,15.57,2.3,29.61,1.47,41.8-7.44,20.51-15,40.49-30.81,59.73-47.41,16.06-13.85,30.63-29.43,46.08-44,6.16-5.82,12.16-12.65,19.6-16.07,8.44-3.89,20-8.23,27.2-5.25,5.47,2.25,8.82,15.75,8.72,24.19-.23,19.58-3.11,39.13-5.2,61.77,10.28-7.27,18.12-12.88,26-18.4,65.89-46,138.77-78.06,213.34-106.59,48.85-18.69,98.13-36.27,147.1-54.68,7.86-2.95,14.14-2.4,22.43.21,23.72,7.48,42.81,21.48,61.07,37.32,2.85,2.48,5.8,4.85,8.7,7.26,31,25.82,42,28.88,80,22.16,0,30.49,2.3,61.2-.63,91.39-3.11,32-23.88,52.15-55.66,57.61-20.31,3.48-41.41,5.63-61.91,4.35-212.62-13.27-411.67,34.1-597.7,135.74-98.05,53.58-192.3,114.14-290.67,167.1-80.1,43.13-147.56,100.79-213.16,162.26C1684.8-3627.36,1592-3542.72,1511.33-3446c-113.75,136.33-195.64,288.89-230.91,463.8-13.3,66-20,133.34-27.89,200.29-13.41,114.35-25,228.91-38.29,343.27-1.81,15.58-8.25,30.81-13.85,45.7-4.13,11-9.93,21.4-15.79,31.6-21.09,36.69-26.62,75-19.63,117.18,13.64,82.37,24.37,165.22,36.23,247.88.38,2.64,0,5.38,0,8.55-1.78-.8-3.19-1.13-4.23-1.94-10.63-8.27-21.84-14-34.91-5.64-11.26,7.19-17.84,26.33-12.93,40.64a156.75,156.75,0,0,0,15.49,33.15c12.4,19.52,26.66,20.22,42.52,3.47l8.75-9.26c16.67,40,32.24,78.31,48.57,116.3,22.34,51.94,44.18,104.14,68.23,155.29,24.5,52.12,66.35,91.46,104.47,133.18,102.3,112,213.41,215.11,324.13,318.59q129.33,120.87,257.22,243.28c6.94,6.61,12.85,9.19,22.33,6.39,11.26-3.31,23.1-4.61,34.65-7,30.75-6.22,38.36-10.65,56.6-32.63,11.33,27.62-2.48,50.64-47.53,73.93,47,23.83,90.63,48,135.94,68.38,69,31,142.28,46.28,217.81,51.37,158.56,10.69,314.66,36.9,468.83,75.24a61,61,0,0,0,28.75.12,1169.72,1169.72,0,0,1,223.29-35.26c18.15-1.06,32.11-7.71,44.9-20.43,13.25-13.18,28.67-24.15,42.52-36.78,3.26-3,5.07-8.55,5.7-13.19,1.9-13.86,2.88-27.85,4.37-43.42l21.44,18.79c7.37-24.63-2.2-43.39-9.74-66.73,28.64,22.48,43.41,50.8,61.71,77,5.88-9.23,10.5-18.92,17.42-26.5,4.92-5.38,12.94-7.91,19.58-11.71,3.38,6.33,6.87,12.62,10.07,19,.78,1.57.64,3.6,2.42,5.55q5.37-32.55,10.73-65.09l4.57-1.72c7.43,11,14.87,22,24.19,35.81,4.35-8.22,7.82-13.59,10.17-19.41,11.54-28.59,18.26-32.58,48.08-28.24a114.89,114.89,0,0,0,18.33,1.36c6-.1,12-1.25,18-1.93-.47,9-2,18.27-1.21,27.34,1.61,18.27,14.15,25.56,29.64,15.75,15-9.51,28-22.21,41.84-33.57,4.28-3.52,8.39-7.25,12.69-11,5.64,8.85,10.07,17.23,15.83,24.57,13.9,17.76,31.5,23.68,52.8,16.34a181.39,181.39,0,0,0,38.07-18.26c210.71-134.31,412-281.9,609.88-434.2,43.34-33.36,86.49-67,132.56-102.66-1.73,21.15-3.25,39.65-4.77,58.14l3.42,1.17q12.07-37.37,24.17-74.81c32.71,17.43,47,13.72,67.12-19,36-58.63,80.7-109.17,136.08-150.11,3.38-2.5,7.13-4.5,10.71-6.73ZM1194.29-1828.62c-1.48,6.41-1.81,7-1.66,7.3a63.14,63.14,0,0,0,3.15,6.26c16.33,26.78,28.89,54.36,30.92,86.79,1.74,27.71,30.06,52.8,55.74,56.78-13.1-28.6-26.79-59-41-89.17-8-17-15.85-34.18-25.59-50.17C1211.69-1817.72,1202.87-1821.78,1194.29-1828.62Zm-13,92.18,2-1c-7.1-23.32-13.89-46.74-21.58-69.86-1.55-4.67-7.52-12.07-9.75-11.51-6.16,1.57-13,5.6-16.49,10.76-2.54,3.84-2.36,12.67.44,16.35C1150.36-1772.75,1166.05-1754.76,1181.3-1736.44Z" transform="translate(-882.56 4400.63)"/><path class="cls-1" d="M4330.43-3521.4c-8.59,3.8-14.81,6.64-21.11,9.31-23.33,9.91-46.31,20.86-70.17,29.29-18,6.35-34.87.62-50.51-10.54q-184.37-131.51-369.2-262.38c-109.2-76.88-221.46-149.08-338.3-213.92-7.37-4.1-16.79-5.92-25.35-6.24-82.48-3.06-161.18-19.56-230.44-66.94-19.26-13.17-37-29.45-52.7-46.76-23.8-26.19-30.28-57.69-16-90.8,14.15-32.78,41.57-47.45,76.3-49.68,15.07-1,30.15-1.71,45.24-2.39,24.22-1.1,48,.38,70.45,13.41,2.19-4.63,3.83-8.41,5.72-12.06,12.91-25,31.67-40,61.54-39.49,26.4.48,52.88-.29,79.25-1.81,109.82-6.33,215.83,10,319.7,46.81,171.17,60.71,324.3,149.17,450.52,281.39,29.46,30.86,54.51,64.74,77.05,101q183,294.49,367,588.35c4.3,6.9,7.65,15.27,8.56,23.28,14.6,127.93,29.44,255.85,42.53,383.95,3.78,37,2.27,74.49,3.08,111.76.21,9.39,0,18.79,0,28.61,13.41,1.42,21.88-5.71,28.65-15.16,6.31-8.81,11.59-18.34,17.66-27.31,7.73-11.4,17.13-20.78,33.64-25.08-51.86,135.74-68.64,276.17-79.68,419.55-12.08-23.31-16.94-91.77-11.14-147.81,5-48.48,10.33-96.92,15.12-141.7-6.08,4.73-13.59,11-21.54,16.68-12.79,9.1-25.5,7.37-31.92-6.77a86.54,86.54,0,0,1-7.8-36.5c.43-19.47-6.55-31.37-22.34-43.5-23-17.63-43.65-38.85-62.7-60.81-41.44-47.79-70.38-103.61-97-160.53-2.21-4.7-1.41-11.89.31-17.17,14.57-44.82,20.21-90.14,8.54-136.48-9.88-39.2-31.35-71-65.79-92.06-45.46-27.79-76-65.75-93.63-116.33-16.73-48.07-38-94.68-43-146-2-20.1-1.1-40.49-1.38-60.76C4329.48-3509.52,4330-3514.08,4330.43-3521.4Z" transform="translate(-882.56 4400.63)"/><path class="cls-2" d="M3937.25-2223.91h113v369h-66.2v-248.34l-3.25-.36-40,249.38h-66.42q-20.94-122.4-42-245.38l-2.85.24v244.82h-66.47v-368.88h112l29.68,213,2.86.29C3917.47-2081.07,3927.29-2152,3937.25-2223.91Z" transform="translate(-882.56 4400.63)"/><path class="cls-3" d="M3127.36-2367.94c26.07,4.28,29.59,9.8,23.57,33.61-7.79,30.82-34.38,52.29-67.35,52.4-109,.36-218,.12-327.08.19-10.66,0-19.34-2.59-19.19-15.21s9.51-13.12,19.1-13.12q160.71.09,321.41,0c24.57,0,36.48-7.22,44-26.84H2604.67c3,15.72,17.07,26.21,36.46,26.74,17.45.48,34.93.4,52.39.05,10-.2,17.61,3,17.18,13.74-.4,9.65-6.94,15-17.27,14.61-23.5-.95-47.35.39-70.42-3.24-28.22-4.45-48.8-29.46-52.56-57.87-2.17-16.47,1.9-20.78,25.44-25.27-1.26-16-2.16-32.33-3.87-48.54-6.09-58-12.69-115.95-18.6-174-2.68-26.3,21.78-50.89,51.7-53,3.28-.23,6.6-.09,9.91-.09q228,0,455.92,0c35.08,0,59.43,21.45,58.82,53-.34,17.81-3.18,35.59-5.11,53.35-2.53,23.38-5.59,46.71-7.78,70.12-.94,10.07-3.58,18.05-15.15,18.17-9.26.1-14.3-9.62-13-22.64,3.81-37.47,8.07-74.9,11-112.44,1.83-23.68-6.5-31.49-30.37-31.5q-227.27-.06-454.51,0c-24.82,0-32.95,7.49-31,32.3,3.67,46.44,8.71,92.79,13.24,139.17,2.1,21.54,5.37,43,6.15,64.61.43,12,5.32,13.57,15.44,13.52,68.44-.33,136.88-.17,205.31-.17,80.24,0,160.48-.23,240.71.25,11.61.07,16-3.05,15.49-14.89-.37-8.83,1.35-17.82,2.75-26.64,1.33-8.37,5.77-14,15.28-13,9.3.91,13.25,6.58,12.58,15.46C3129.9-2393,3128.58-2380.88,3127.36-2367.94Z" transform="translate(-882.56 4400.63)"/><path class="cls-4" d="M3229.76-1854.29h-75.14v-369.05a102.72,102.72,0,0,1,10.31-1c34-.08,68-.24,101.93,0,36.81.27,57,15.55,63,51.65,3.81,23.06,4.52,46.93,3.77,70.34-.73,22.67-7.58,43.83-33.09,55,23.9,9.71,29,28.29,29.07,49.14.23,47.57.07,95.14.07,143.54h-73.16v-28c0-38.22.18-76.45-.12-114.67-.17-21-3.74-24.1-26.6-24.67Zm.54-233.36c25.51,2.09,30.22-1.86,31.62-25.9.3-5.16.24-10.35,0-15.52-.94-25.66-4.39-28.44-31.67-25.15Z" transform="translate(-882.56 4400.63)"/><path class="cls-5" d="M3554.34-2224h71.8v15.2q0,126,.13,252.08c0,8.88.27,18.28,3.21,26.43,1.76,4.88,9.14,11,13.66,10.76,5.45-.3,13.63-5.85,15.16-10.81,3.1-10.1,3.33-21.34,3.36-32.11.24-81.67.13-163.34.13-245v-16.09h71.45c.27,3.79.8,7.81.8,11.84.05,85.91.65,171.84-.44,257.74-.24,19.4-4.6,39.29-10.38,57.93-6.5,21-22.88,34.21-44,40.63a119.3,119.3,0,0,1-71,0c-25.65-7.88-41.47-26-48.2-51.19a173.48,173.48,0,0,1-6-43.27c-.56-88.27-.32-176.55-.32-264.83C3553.67-2217.51,3554.05-2220.24,3554.34-2224Z" transform="translate(-882.56 4400.63)"/><path class="cls-6" d="M2428-2043c0-32.06-.59-64.14.17-96.19.78-32.72,9.92-62.57,42-77.66,35.27-16.62,71.57-16.19,105.45,4.46,23.26,14.17,33,38.15,33.45,63.92,1.14,71.17,3.13,142.51-.56,213.5-3.36,64.74-53.33,97.19-116.36,81.56-38.31-9.5-62.1-40.68-63.63-86.34-1.16-34.38-.23-68.83-.23-103.25Zm107.84,3.36c0-29.26.12-58.52-.1-87.78-.05-6.55.22-13.79-2.42-19.41-2.36-5.06-8.31-11.25-13.07-11.6-5.08-.38-12.65,4.3-15.44,9-3.33,5.59-3.7,13.51-3.73,20.42q-.39,88.5,0,177c0,7.88.4,16.54,3.68,23.38,2.24,4.66,9.77,9.2,15,9.26,4.37.06,10.95-5.62,12.74-10.24,2.8-7.22,3.11-15.67,3.2-23.62C2536-1982.07,2535.84-2010.86,2535.85-2039.65Z" transform="translate(-882.56 4400.63)"/><path class="cls-7" d="M2058-2041.27q0,39.6,0,79.21c0,7.08,0,14.16-.37,21.22-2.89,56.62-34.8,89.36-87.89,90.3-55.57,1-90.89-29.84-93-87.55-2.5-69.22-1.72-138.62-.17-207.89.73-32.82,14.1-61.51,47.61-73.72,36.76-13.39,73.51-13.21,105.81,12.26,20.73,16.34,27,40.55,27.57,65.74.79,33.46.19,66.95.19,100.43Zm-74.32.56c0-11.8.06-23.59,0-35.39-.13-21.7.17-43.42-.75-65.08-.39-9.18-3.73-18.23-15.75-18-11.74.26-16.12,8.18-17.59,18.46a71,71,0,0,0-.55,9.89q0,90.58.11,181.19c0,6.51-.15,14,2.92,19.23s9.89,10.57,15.33,10.85c4.37.22,10.94-6.24,13.24-11.25,2.81-6.09,2.85-13.76,2.92-20.76C1983.84-1981.26,1983.68-2011,1983.7-2040.71Z" transform="translate(-882.56 4400.63)"/><path class="cls-8" d="M2767.62-3100.6c-8.92,53.46,14.32,105.46,57.77,132.11,19.29,11.83,40,11.75,56-3.87,29.08-28.32,75.7-20.43,93.73,16.84.76,1.57,2.1,2.86,3.61,4.87,10.05-14.81,15.67-29.87,12.73-47.07-3.14-18.41-14.34-29.55-33.69-33.16-8.59-1.6-19.36-2.43-18-13.2.91-7.26,8.92-13.62,13.75-20.38l5.09,1.16c-4.07-6.11-7.54-12.73-12.35-18.18-6.46-7.33-5.21-13.78.72-19.94,6.8-7.06,15.53-5.31,19.67,1.29,7.83,12.46,13.21,26.46,19.65,39.79,2.29,4.74,3.51,11,7.27,13.87,28.16,21.74,30.49,59.91,18.29,90.14-3,7.42-6.78,14.54-10.47,21.66-10.33,19.87-15.71,40.23-15.66,63.35.07,35.18-16.29,64.62-43,87.26-8.16,6.92-11.08,13.55-10.95,23.84.48,38,.34,36.88,38.88,42.72,23,3.48,45.78,9.95,67.69,17.78,10.5,3.76,19.77,12.88,27.53,21.44,3.42,3.78,4.44,14.71,1.56,17.89-3.27,3.62-15.36,5.32-18,2.52-29.18-30.71-69.28-28.72-105.88-37.38-12.77-3-22.92-1-34.29,5.89-30.3,18.42-61.83,18.19-92.3.05-10.68-6.36-20.21-9.4-32.87-6.2-19.56,5-40.22,5.88-59.4,11.81-14.82,4.59-28.07,14.23-42,21.61-4.42,2.33-8.85,6.36-13.31,6.4-4.78,0-11.88-2.52-13.74-6.13s-.17-11.38,2.85-14.79c16.75-18.95,38-30.74,62.94-35.26,19-3.43,38.08-6.33,57.17-9.14,9.24-1.35,15-4.91,13.06-15.49a24.92,24.92,0,0,1,0-7.06c2.18-19.6-2.29-34.6-18.84-49-24.28-21.07-37.23-50.82-35-83.32,1.85-27.23-10.45-48.79-22-70.25-18.31-33.92-10.55-77.23,19-97.84,2.28-1.59,3.55-6.13,3.53-9.28-.14-23.57-1-47.13-1.07-70.7,0-14.71,11-20.8,23.84-13.14,10.11,6,19.69,13,29.47,19.54,34.73,23.36,71.8,26.62,110.38,11.69,10.55-4.09,18.15-2.67,21.79,7.55,4,11.13-4.9,15-13.39,17.52C2859.68-3066.21,2812.43-3070.08,2767.62-3100.6Zm20.17,141c-4.11,5.83-9,11.49-12.5,17.9-19.53,35.64-13.61,93.91,12.42,125.61,24.11,29.36,65.43,41.59,104,29.15,38.13-12.3,60.18-39.62,66-78.92,3.83-26,0-51.77-8.3-76.64-4.15-12.44-14-20.25-26.82-18.43-9.1,1.29-18.53,6.44-25.94,12.25-23.22,18.24-47.8,21.09-74.06,8.75C2811.15-2945.29,2800.52-2952.33,2787.79-2959.6Zm116,202H2819.7c3.54,14-8.65,31.82,8.86,44.15,18.42,13,48.35,13,66.63-.13C2912.52-2726,2900.34-2743.8,2903.77-2757.64Zm-135.95-223.09-21-34.91c-18.84,11.58-20.47,43.65-.63,65Z" transform="translate(-882.56 4400.63)"/><path class="cls-2" d="M1854.26-2118.53h-78.54c0-8.91.37-17.27-.09-25.58-.56-10.17-6.31-15.67-16.62-15-10,.63-17.59,7-15.22,16.34,3,11.78,8,24.37,15.91,33.3,17.15,19.4,37,36.35,55.16,54.93,41.25,42.29,51.82,109,26.71,162.88-11,23.49-29.64,37.41-54.58,39.6a205.47,205.47,0,0,1-57.43-3.44c-25.46-5.08-41.7-22.28-49.71-47.3-9.25-28.9-7.57-58.42-7.23-88.73h72.89c0,14.94-.24,29.42.11,43.88.14,6.05-.38,13.49,2.82,17.73,3.86,5.13,11.44,10.44,17.22,10.24,4.79-.16,12.62-7.72,13.38-12.84,3.58-24.14.21-47.24-17.88-65.76-18.47-18.91-37.38-37.4-55.74-56.42-34.85-36.09-40.87-78.38-24.8-124.45,8.73-25,26.81-42.1,53.22-45.25a208.5,208.5,0,0,1,60.05,1.93c24.42,4.32,41.51,20.82,48.54,44.69C1847.93-2159.09,1850.22-2139.45,1854.26-2118.53Z" transform="translate(-882.56 4400.63)"/><path class="cls-9" d="M3531.07-2118.7h-75.66c0-8.63.35-16.6-.08-24.52-.58-10.64-6.17-16.77-17.3-15.84s-17.45,8.74-14.66,18.28c3.42,11.72,9.14,23.9,17.2,32.91,16.63,18.59,35.83,34.86,53.32,52.72,42,42.94,52.49,109.25,26.82,163.94-11.05,23.52-29.86,37.06-54.78,39.24a198.23,198.23,0,0,1-56-3.24c-27.17-5.51-44.37-23.9-51.51-50.8-2.65-10-4.79-20.32-5.28-30.59-.85-17.83-.24-35.72-.24-54.63h72.38c0,13.79-.2,28.19.09,42.59.12,6.06-.6,13.37,2.43,17.81,3.63,5.33,11.09,11.53,16.48,11.18s13.61-7.89,14.45-13.25c3.72-23.59.21-46.27-17.32-64.44-18.34-19-37-37.74-55.63-56.48-33.28-33.48-40.47-73.4-28.37-117.6,8.21-30,27.75-50.32,58.94-53.56,20.59-2.14,42.8-1.28,62.59,4.27,36,10.11,46.29,41.3,50.82,74.58C3530.91-2137.36,3530.63-2128.4,3531.07-2118.7Z" transform="translate(-882.56 4400.63)"/><path class="cls-6" d="M2884.34-2224.07h70.8c-15.25,123.53-30.42,246.31-45.65,369.61H2808l-45.61-369.22h70.92q12.93,120.25,25.85,240.27l2.18,0C2869-2063.14,2876.58-2142.89,2884.34-2224.07Z" transform="translate(-882.56 4400.63)"/><path class="cls-10" d="M3052.14-2010.72v84.26h75.78v71.87h-151.3v-368.86h146.72v70.78h-70.87V-2081h68.18v70.28Z" transform="translate(-882.56 4400.63)"/><path class="cls-6" d="M2163.06-2152.24v58.61h68.65v71.46h-68.54v167.34h-74.62v-368.74H2235.2v71.33Z" transform="translate(-882.56 4400.63)"/><path class="cls-6" d="M2408.87-2152.87h-42.76v298.31h-74.42v-298.22h-43v-70.61h160.18Z" transform="translate(-882.56 4400.63)"/><path class="cls-11" d="M1804.55-1711.58c.22,42.48-25.91,71.14-65.24,71.57-40.14.45-67.1-28.17-67.07-71.17,0-42,27-71,66-71.23C1777-1782.6,1804.33-1753.47,1804.55-1711.58Zm-26.66.59c.06-35.44-22.61-56.36-51.48-47.51-18.68,5.73-29.08,24.2-28.25,50.16.78,24.48,11.66,40.76,30.88,45a42.54,42.54,0,0,0,16.67.4C1766.78-1666.79,1777.84-1683.71,1777.89-1711Z" transform="translate(-882.56 4400.63)"/><path class="cls-12" d="M2764.12-1644.44v36.84h-23.6v-137.51c17.64-.45,35.55-3.31,52.67-.8,29.94,4.39,44.69,33.24,37.38,68-6.08,28.86-27.92,41.87-58.64,34.94C2769.78-1643.49,2767.59-1643.81,2764.12-1644.44Zm-.72-81v46.8c0,2.35-.49,4.88.21,7,.8,2.43,2.18,5.23,4.18,6.61,13.23,9.12,31.79,3,37.38-12C2817-1708.83,2799.81-1730.12,2763.4-1725.4Z" transform="translate(-882.56 4400.63)"/><path class="cls-13" d="M2060.45-1687.18c3.47,23.92,9.44,26.15,57.87,23.18.66,5.39,1.33,10.86,2,16-21.53,11.53-52.8,9.66-68.57-3.68s-21.57-40.78-13.65-64.07c7.4-21.75,28.3-35.24,50.44-32.55s36,17.52,38.38,41.94c.58,6,.08,12,.08,19.14Zm.33-17.74h41.35c-.45-14.87-6.28-22.26-17.7-23.24C2071.8-1729.24,2063.31-1721.23,2060.78-1704.92Z" transform="translate(-882.56 4400.63)"/><path class="cls-14" d="M3893.09-1694.89c.14,32.42-19,54.19-48.17,54.69-29.74.5-50.3-21.61-50.34-54.16,0-31.66,20.19-54,49.07-54.14S3893-1726.62,3893.09-1694.89Zm-23.73,2.25c-.81-5.89-1.07-9.67-1.89-13.32-2.74-12.14-9-20.61-22.69-21s-22.05,7.08-23.54,19.5c-1.3,10.79-1,22.85,2.72,32.75,2.31,6.11,12.55,12.85,19.11,12.73,7.25-.14,15.83-6.52,21.07-12.58C3868.23-1679.34,3868.1-1687.73,3869.36-1692.64Z" transform="translate(-882.56 4400.63)"/><path class="cls-11" d="M3228.22-1694.11c-.08,32.07-19.86,53.79-49.07,53.89-29.49.11-50.19-22.78-49.7-54.92.48-31.49,21.28-53.68,50-53.35S3228.31-1725.86,3228.22-1694.11Zm-23.55-.35c-1.69-6.82-1.51-14.63-5.28-19.13-4.9-5.85-13-12.59-19.61-12.47-7.28.12-17.23,5.89-21.06,12.2a37.68,37.68,0,0,0,.57,40.35c3.85,6,13.36,11.7,20.16,11.54s15-6.6,19.7-12.54C3203.12-1679.49,3203-1687.72,3204.67-1694.46Z" transform="translate(-882.56 4400.63)"/><path class="cls-11" d="M2667.48-1693.86c-.33,32.24-20,53.67-49.28,53.64-29.55,0-49.86-22.73-49.36-55.17.49-31.47,21.31-53.52,50.16-53.1S2667.8-1725.51,2667.48-1693.86Zm-23.81-.87c-1.05-5.45-1.52-10.68-3.11-15.54-3.61-11-11-17.07-23.14-16.79-11.67.25-19.39,6.69-21.28,17.08a87.21,87.21,0,0,0,.14,31.85c2,10.27,9.86,16.92,21.4,17.08,12.09.16,19.38-6.39,22.87-17.3C2642.25-1683.66,2642.69-1689.37,2643.67-1694.73Z" transform="translate(-882.56 4400.63)"/><path class="cls-12" d="M4049.17-1643.52h-21.74c0-17.84.27-35.58-.06-53.32-.53-27.93-7.68-33.36-37.49-28v80.88H3966.1V-1745c18.13-.48,36.65-2.32,55-1,15.65,1.11,26.76,11.78,27.72,27.51C4050.28-1693.88,4049.17-1669,4049.17-1643.52Z" transform="translate(-882.56 4400.63)"/><path class="cls-5" d="M3405.82-1745.28h24c0,20.93-.87,41.59.27,62.15,1,17.56,8.55,22.56,26,21.93,8.56-.31,11.32-3.52,11.15-12-.47-24-.16-47.92-.16-72.15H3490v101.72c-18.49.46-37.54,2.74-56.17.87-16.87-1.7-27-16.22-27.78-36C3405.16-1700.32,3405.82-1722,3405.82-1745.28Z" transform="translate(-882.56 4400.63)"/><path class="cls-5" d="M1878.67-1643.66V-1744.1c16-1.26,31.79-4.09,47.43-3.39,23.06,1,34.88,13.81,37.08,36.64.59,6.08.47,12.24.49,18.36.06,16,0,31.93,0,48.77h-24.08c0-17.46.2-34.29,0-51.12-.43-30-5.68-34.42-37.13-30.57v81.75Z" transform="translate(-882.56 4400.63)"/><path class="cls-5" d="M2744.31-1961.41H2637.22v-47.3h107.09Z" transform="translate(-882.56 4400.63)"/><path class="cls-15" d="M2372.93-1746.32c-2.12,9.76-3.29,15.12-4.41,20.29-10.48-.67-20.23-2.07-29.86-1.51-3.61.21-9.22,4.55-9.79,7.75s3.17,8.74,6.52,10.73c7.62,4.53,16.23,7.36,24.3,11.16,13,6.13,18.9,16.59,17.42,30.87-1.56,15-11.45,23.32-25.05,24.65-16,1.56-32.27.05-50.65-.15,1.86-9.81,3-15.58,4-21.26,12.42,1.06,23.92,2.77,35.4,2.63,4.12,0,8.18-4.56,12.27-7-2.59-4.07-4.27-9.57-8-11.89-7.1-4.45-15.44-6.85-23.06-10.54-12.71-6.15-19.7-16.18-17.87-30.61,1.73-13.69,10.27-23,23.54-24.69C2341.84-1747.68,2356.29-1746.32,2372.93-1746.32Z" transform="translate(-882.56 4400.63)"/><path class="cls-16" d="M2470-1780.09v33.86h35.84v20.44h-35.19c0,17.14-.37,33.11.12,49,.34,10.91,7,16.1,17.76,15.44,5.57-.34,11.09-1.62,17.88-2.68,1.4,5.66,2.8,11.33,5,20.13-13.09,1-24.62,3.14-36,2.45-15.88-1-26.54-9.76-27.44-25.47-1.91-33.37-2.21-66.9-1.09-100.29C2447-1771.18,2460.06-1774.76,2470-1780.09Z" transform="translate(-882.56 4400.63)"/><path class="cls-15" d="M2989.58-1642.52c2.05-10.14,3.22-16,4.31-21.36,12.47,1.08,24,2.68,35.53,2.72,3.78,0,10.59-3.87,10.7-6.23.19-4.1-2.68-10-6.16-12.27-7-4.54-15.4-6.92-23-10.55-12.7-6-20-15.75-18.47-30.32s10.37-23.87,24.22-25.58,28.34-.39,44.74-.39c-2.33,9.71-3.68,15.39-5,21-9.23-1-17.67-3.26-25.83-2.48-5,.49-9.62,5.55-14.41,8.55,3.34,4.08,5.95,9.33,10.19,12,6.72,4.16,14.67,6.27,21.84,9.78,12.82,6.26,18.93,16.68,17.21,31-1.69,14.16-11,22.7-24,24C3025-1641,3008.25-1642.43,2989.58-1642.52Z" transform="translate(-882.56 4400.63)"/><path class="cls-15" d="M3567.31-1772.67l24.08-3.89v30.18H3627v20.08h-34.49c0,18.44-1.15,35.79.76,52.79.52,4.65,9.74,9.92,15.91,11.83,5.22,1.61,11.81-1.24,18.67-2.24,1.35,5.59,2.63,10.92,3.86,16.05-34.6,19.68-64.11,3.33-64.38-35.1C3567.14-1712.2,3567.31-1741.43,3567.31-1772.67Z" transform="translate(-882.56 4400.63)"/><path class="cls-10" d="M3339.31-1660.45c-1.13,6.9-2,12.35-2.88,17.57-23.74,2.93-35.65-6.2-35.9-28.28-.46-39.53-.13-79.07-.13-120l23.44-4v87.3c0,8,.36,16-.07,24C3323.13-1672.08,3324.31-1661.74,3339.31-1660.45Z" transform="translate(-882.56 4400.63)"/><path class="cls-3" d="M2663.47-2496.29c.72,9.95-1,18.77-13.18,19.08-11.61.29-14.4-7.87-15.34-17.93-2.23-23.87-5-47.68-7.71-71.5-1.11-9.91.62-18.61,12-20.47,12.34-2,14.95,6.85,16,16.53Z" transform="translate(-882.56 4400.63)"/><path class="cls-17" d="M3721.62-1643.37h-22.48v-102h22.48Z" transform="translate(-882.56 4400.63)"/><path class="cls-17" d="M2190.65-1709.38H2242v20.77h-51.38Z" transform="translate(-882.56 4400.63)"/><path class="cls-8" d="M2640.8-2423.61c0-.47-.05-.94-.07-1.42-.32-10.33-2.65-23,12.69-23.31,14.1-.31,14.84,11.7,15.63,22.33.34,4.69,1,9.35,1.22,14,.3,7.86-.37,15.48-10.16,17.3s-15.43-3.31-17.68-12.13c-1.38-5.41-1.34-11.18-1.93-16.78Z" transform="translate(-882.56 4400.63)"/><path class="cls-17" d="M3727.09-1771.89c-5.58,3.65-10.86,9.63-16.83,10.43-9.25,1.25-16.09-6-14.05-14.82,1.3-5.62,9.07-13.43,14.06-13.53,5.6-.11,11.35,7.38,17,11.56C3727.24-1776.13,3727.16-1774,3727.09-1771.89Z" transform="translate(-882.56 4400.63)"/><path class="cls-1" d="M4682.55-1644.78l2.89-1.48c-.12,1.19-.23,2.39-.33,3.58Z" transform="translate(-882.56 4400.63)"/></svg>