<svg id="Layer_1" data-name="Layer 1" xmlns="http://www.w3.org/2000/svg" viewBox="0 0 3250.118 2364.432"><defs><style>.cls-1{fill:#eb9031;}.cls-2{fill:#97d2de;}.cls-3{fill:#98d2de;}.cls-4{fill:#eb9132;}.cls-5{fill:#98d3de;}.cls-6{fill:#eb9335;}.cls-7{fill:#ec9437;}.cls-8{fill:#eb9235;}.cls-9{fill:#eb9336;}.cls-10{fill:#eb9234;}.cls-11{fill:#7cc246;}.cls-12{fill:#7ac143;}.cls-13{fill:#7ec349;}.cls-14{fill:#7dc248;}.cls-15{fill:#7dc247;}.cls-16{fill:#80c44b;}.cls-17{fill:#7fc34a;}</style></defs><path class="cls-1" d="M-1069.023,1600.858c30.922-53.542,60.857-105.37,90.786-157.2q77.121-133.563,154.039-267.24c4.86-8.489,10.2-11.443,19.94-11.44q1101.014.35,2202.027.1c8.061,0,13.642,1.093,18.313,9.22q119.857,208.549,240.412,416.7c1.612,2.79,3.008,5.7,5.184,9.86Z" transform="translate(1329.493 763.573)"/><path class="cls-2" d="M-1040.6,792.167h-72.964V325.779h635.862v465.86h-72.837c0,25.459.208,48.89-.05,72.317-.366,33.2-14.223,59.667-42.89,76.4-27.708,16.176-56.836,15.527-84.955.05-26.973-14.846-41.009-38.462-42.022-69.007-.855-25.79-.176-51.63-.176-78.334H-870.523c0,24.2-.061,47.643.014,71.087.106,32.888-13.629,58.518-41.638,75.444-27.631,16.7-56.949,16.973-84.795,1.311-26.594-14.958-42.827-38.187-43.546-69.806C-1041.066,845.675-1040.6,820.22-1040.6,792.167Z" transform="translate(1329.493 763.573)"/><path class="cls-3" d="M-477.39,258.938h-636.126c-3.423-29.286.959-57.263,9.761-83.9,8.662-26.22,20.577-51.468,32.528-76.442,3.949-8.252,4.614-13.589-.106-21.585-24.433-41.385-48.011-83.273-72.194-124.807-9.311-15.993-8.8-31.354,1.2-46.516,9.658-14.649,24-18.6,40.663-17.347,14.585,1.094,24.547,9.074,31.566,20.98,17.707,30.036,35.043,60.29,52.57,90.431,3.278,5.638,6.756,11.161,11.458,18.9,61.592-51.195,131.8-78.305,210.6-78.318,78.647-.013,148.426,27.158,210.1,78.862,12.916-22.315,25.321-43.729,37.709-65.152,8.492-14.685,16.59-29.614,25.527-44.023,13.064-21.063,38.382-28.677,57.46-17.894,21.761,12.3,28.911,38.364,16.041,61.346-13.581,24.252-27.945,48.065-41.929,72.092-9.007,15.474-17.161,31.519-27.165,46.317-8.151,12.055-6.078,21.5.807,33.306,25.36,43.5,37.9,90.949,40.114,141.164C-476.639,250.045-477.13,253.765-477.39,258.938Zm-195.5-84.266c17.136-.334,31.645-14.749,31.6-31.4-.043-16.906-15.77-32.99-32.291-33.022-16.423-.032-32.279,16.156-32.322,33C-705.948,160.5-690.7,175.019-672.894,174.672Zm-214.421-32.741c-.187-17.649-13.929-31.668-31.175-31.8-17.357-.134-31.573,14.886-31.491,33.272.081,18.2,14.181,31.605,32.88,31.271C-899.964,174.367-887.121,160.249-887.315,141.931Z" transform="translate(1329.493 763.573)"/><path class="cls-4" d="M44.506-327.121,296.568-763.573,548.655-327.121Z" transform="translate(1329.493 763.573)"/><path class="cls-1" d="M857.55,471.355q516.867,0,1033.734.083a103.341,103.341,0,0,1,22.337,2.225c2.913.65,6.895,4.729,7,7.383.1,2.574-3.667,6.238-6.6,7.757-3.612,1.871-8.08,2.359-12.248,2.814-4.2.458-8.485.167-12.734.167q-1032.318,0-2064.636-.1a122.707,122.707,0,0,1-25.08-2.709c-2.919-.614-7.565-5.5-7.079-7.189.978-3.394,4.5-7.63,7.76-8.462,6.722-1.717,13.955-1.9,20.979-1.9q450.31-.117,900.623-.067Z" transform="translate(1329.493 763.573)"/><path class="cls-5" d="M-1201.583,494.509c0,34.441.073,68.882-.025,103.322-.108,38.448-24.94,65.9-60.12,66.68-37.753.834-66.672-25.9-67.16-64.936-.884-70.758-.715-141.539-.032-212.3.309-31.967,25.672-59.592,54.8-62.5,34.294-3.42,62.231,14.24,70.521,45.437,2.013,7.578,1.892,15.847,1.939,23.8C-1201.467,427.514-1201.579,461.012-1201.583,494.509Z" transform="translate(1329.493 763.573)"/><path class="cls-3" d="M-263.992,494.744c0,34.9-1.016,69.842.283,104.7,1.332,35.755-30.051,64.875-60.824,65.151-36.51.329-66.4-26.117-66.834-62.468-.844-71.681-.718-143.385-.029-215.07.3-31.265,25.085-58.627,53.674-62.229,33.489-4.219,62.373,13.489,71.368,44.31,1.809,6.2,2.225,12.972,2.263,19.486C-263.881,423.994-263.992,459.369-263.992,494.744Z" transform="translate(1329.493 763.573)"/><path class="cls-6" d="M1764.905,300.753c-5,46.718-10,93.436-15.058,140.678h-36.942c8.851-73.808,17.584-146.63,26.274-219.091,27.721-5.031,28.014-4.853,38.338,18.324,11.687,26.237,23.443,52.443,36.215,81,2.8-4.652,4.808-7.375,6.182-10.389,10.368-22.731,20.555-45.545,30.907-68.283,10.929-24,10.982-23.978,39.133-21.574,8.785,72.757,17.614,145.878,26.567,220.029H1879.46q-7.566-70.4-15.161-141.071l-3.047-.734-46.761,97.6-46.509-97.628Z" transform="translate(1329.493 763.573)"/><path class="cls-6" d="M21.33,293.552V441.39H-12.691V220.512c10.269,0,20.226-1.02,29.8.459,4.355.673,9.344,5.527,11.667,9.782,23.483,43.027,46.474,86.323,72.1,129.382V221.384h35.855V440.4c-28.177,5.613-29.469,4.906-41.794-18.076Q63.516,363.741,31.777,305.33c-2.37-4.379-5.1-8.565-7.657-12.84Z" transform="translate(1329.493 763.573)"/><path class="cls-7" d="M178.972,441.735V220.168c34.44,2.541,68.835-5.194,102.264,5.71,27.9,9.1,45.6,29.455,54.981,56.782,11.233,32.734,11.478,65.965-.406,98.431-13.128,35.861-38.714,57.931-77.683,60.343C232.392,443.026,206.477,441.735,178.972,441.735Zm35.713-31.98c11.531,0,21.385.146,31.234-.028,28.227-.5,45.383-12.613,53.7-39.431a128.93,128.93,0,0,0-.466-79.387c-5.859-18.068-17.08-32.7-36.592-35.671-15.45-2.356-31.547-.474-47.878-.474Z" transform="translate(1329.493 763.573)"/><path class="cls-8" d="M724.545,331.218c-5.171,20.846-7.718,41.281-15.333,59.613-14.1,33.949-40.334,54.078-78.207,55.5-39.655,1.488-68.317-17.245-84.531-52.452-18.865-40.962-18.89-83.484-.211-124.581,15.545-34.2,43.119-53.278,81.467-53.009,38.267.268,66.013,19.369,80.734,53.942C716.593,289.32,719.333,310.7,724.545,331.218Zm-36.814.878c-6.355-20.244-9.4-39.857-18.332-56.276-16.951-31.174-61.18-32.581-82.089-4.49-22.122,29.722-22.391,89.31-.537,119.317,20.419,28.038,64.027,28.091,81.318-2.008C677.819,371.706,681.339,351.21,687.731,332.1Z" transform="translate(1329.493 763.573)"/><path class="cls-7" d="M409.5,359.368v81.885H374.835V221.871c27.111,0,53.94-1.915,80.361.547,25.634,2.388,45.442,16.213,51.739,43.126,6.57,28.076,4.4,55.042-19.114,75.128-8.487,7.25-8.24,12.506-4.051,21.222,12.4,25.791,24.091,51.919,37.179,80.347-12.961,0-24.114.7-35.083-.416-3.389-.344-7.461-5.067-9.193-8.74-9.038-19.165-18.536-38.24-25.647-58.142-4.864-13.613-12.274-18.683-26-16.361C420.513,359.345,415.83,359.084,409.5,359.368Zm1.067-107.895v76.075c21.141-1.215,44.072,5.882,57.4-15.769,8.748-14.214,8.939-31.723-.975-45.679C453.027,246.442,431.093,252.53,410.569,251.473Z" transform="translate(1329.493 763.573)"/><path class="cls-7" d="M1344.679,442.292c-12.61,0-22.982.805-33.115-.4-3.93-.47-8.858-4.754-10.692-8.569-9.18-19.1-18.5-38.247-25.742-58.116-4.836-13.263-11.772-19.127-25.789-16.659-4.488.79-9.233.124-15.291.124v82.409h-35.317V218.6c31.049,2.126,62.674.256,92.2,7.244,46.155,10.924,58.82,78.739,23.336,113.025-3.363,3.249-7.051,6.16-11.9,10.366C1316.056,379.34,1329.809,409.588,1344.679,442.292ZM1233.918,327.615c21.512-1.427,43.6,5.552,58.023-15.566,8.059-11.8,7.346-36.83-1.439-47.037-15.509-18.017-36.414-12.429-56.584-13.68Z" transform="translate(1329.493 763.573)"/><path class="cls-9" d="M1648.509,221.23h34.571c.388,3.95,1.041,7.546,1.047,11.143.064,40.541.115,81.082-.052,121.622a166.029,166.029,0,0,1-1.644,23.945c-8.8,58.423-63.514,86.862-116.7,60.372-25.945-12.922-37.282-36.948-38.29-63.653-1.916-50.727-.555-101.578-.555-153.27H1561c.233,4.641.684,9.568.694,14.5.072,36.77-.1,73.54.174,110.308a167.259,167.259,0,0,0,2.384,29.52c5.236,27.865,18.825,37.867,46.584,35.426,18.957-1.666,29.386-9.587,33.441-28.815,2.889-13.7,3.865-28,4.051-42.047C1648.847,301.194,1648.509,262.1,1648.509,221.23Z" transform="translate(1329.493 763.573)"/><path class="cls-9" d="M-35.218,440.849C-69.586,445.6-69.586,445.6-78.454,415.39c-8.371-28.515-8.371-28.515-42.45-28.515-30.99,0-30.99,0-39.091,28.849-8.178,29.118-8.178,29.118-42.074,25.443.6-3.5.826-7.037,1.827-10.338,20.077-66.221,40.568-132.32,60.072-198.708,3.251-11.066,9.237-12.493,18.451-11.65,9.088.831,18.707-3.46,23.013,11.285C-78.4,301.289-56.743,370.426-35.218,440.849Zm-83.911-166.234c-8.277,28.342-15.4,52.729-22.847,78.237H-96.5C-103.892,327.285-110.892,303.09-119.129,274.615Z" transform="translate(1329.493 763.573)"/><path class="cls-6" d="M1364.964,399.467c22.757,4.142,43.661,9.072,64.853,11.392,13.232,1.449,25.533-3.7,30.233-18.2,4.172-12.867-1.151-25.761-15.895-34.49-17.813-10.546-37.049-18.7-54.817-29.312-21.666-12.942-32.715-32.588-29.306-58.25,3.455-26.011,18.976-42.757,43.833-50.051,9.813-2.88,20.573-4.832,30.643-4.014,15.347,1.246,30.483,5.2,45.681,8.137,8.633,1.67,11.127,6.666,9.273,15.365-1.719,8.065-1.779,16.484-2.332,22.26-20.978-3.951-40.069-8.669-59.444-10.8-12.752-1.4-24.767,3.374-28.71,17.7-3.986,14.486,2.934,24.991,15.03,31.872,18.016,10.246,36.966,18.9,54.662,29.644,21.918,13.306,33.174,33.088,30.234,59.41-3.637,32.562-27.206,54.592-64.127,55.511-20.813.518-41.794-4.737-62.657-7.7-9.393-1.332-12.02-7.315-10.309-16.281C1363.39,413.4,1364.205,404.972,1364.964,399.467Z" transform="translate(1329.493 763.573)"/><path class="cls-10" d="M1164.839,253.463h-85.605v55.961h66.041v32.1h-65.847v67.638h88.057v31.763H1043.793V221.422h121.046Z" transform="translate(1329.493 763.573)"/><path class="cls-9" d="M1022.5,220.5c-12.335,39.39-23.824,76.184-35.384,112.957-10.17,32.353-20.672,64.6-30.461,97.072-2.551,8.463-6.211,12.03-15.594,12.011-29.47-.062-29.458.355-38.087-27.265q-28.031-89.711-56.062-179.422c-1.37-4.391-2.423-8.881-4.162-15.32,10.583,0,20.031-1.119,28.969.525,3.825.7,8.194,6.658,9.591,11.085,15.03,47.609,29.509,95.392,44.159,143.122,1.765,5.752,3.652,11.467,6.763,21.208,11.717-38.02,22.21-71.982,32.643-105.962,5.807-18.913,12.118-37.7,17.028-56.849,2.729-10.644,7.863-14.725,18.657-13.315C1006.99,221.187,1013.623,220.5,1022.5,220.5Z" transform="translate(1329.493 763.573)"/><path class="cls-11" d="M1274.35,543.934l7.684,33.788,2.119.172c2.7-11.29,5.41-22.579,8.29-34.6h25.619c-7.579,21.891-13.556,43.263-22.639,63.223-3.287,7.224-13.554,11.991-21.584,15.963-2.913,1.44-8.592-2.706-13.009-4.3,2.529-4.015,4.885-8.156,7.678-11.978,1-1.373,3.061-1.976,1.931-1.291-6.982-18.809-13.626-36.709-21-56.585-1.243,5.358-2.091,9.011-3.2,13.772-32.919-4.024-15.57,22.4-21.843,36.372h-21.843v-56.8C1226.7,548.579,1250.176,537.756,1274.35,543.934Z" transform="translate(1329.493 763.573)"/><path class="cls-12" d="M-208.181,520.114c15.258,0,29.383-.7,43.407.188,15.536.987,22.578,8.286,25.237,23.64.481,2.779.856,5.587,1.089,8.4,3.2,38.63-7.277,49.455-46.131,47.966-7.47-.287-14.959-.041-23.6-.041Zm24.65,17.937V581.6c16.5,1.376,18.53-.649,18.968-17.913C-163.958,539.875-165.742,537.286-183.531,538.051Z" transform="translate(1329.493 763.573)"/><path class="cls-13" d="M326.923,581.188c7.268.5,14.541.933,21.8,1.525,10.435.85,18.184,4.687,18.862,16.729.682,12.1-4.922,19.188-16.874,19.741-12.144.562-24.487.868-36.486-.694-10.869-1.414-15.75-10.859-10.914-19.8,6.171-11.416,8.376-21.793,2.026-34.337-5.034-9.943,1.131-20.626,12.857-21.689,16.93-1.536,34.1-.393,50.765-.393-4.39,25.541-15.417,40.721-44.046,33.485Q325.918,578.47,326.923,581.188Z" transform="translate(1329.493 763.573)"/><path class="cls-13" d="M1026.192,580.378c4.662.662,9.311,1.721,13.99,1.878,5.081.17,10.19-.5,15.353-.808,6.338,11.8,2.256,17.206-9.613,18.294-5.626.516-11.274,1.33-16.9,1.222-21.652-.415-31.541-10.528-31.119-31.36.407-20.141,9.827-28.906,31.723-29.023a75.3,75.3,0,0,1,15.383,1.713c10.854,2.223,16.361,9.444,15.655,20.241-.711,10.856-9,13.341-18.174,13.7-5.326.208-10.665.037-16,.037Q1026.344,578.327,1026.192,580.378Z" transform="translate(1329.493 763.573)"/><path class="cls-14" d="M107.855,580.8h27.727c6.768,11.954,3.5,17.753-8.732,18.844-5.632.5-11.282,1.411-16.906,1.292-22.176-.469-31.619-9.979-31.3-31.014.306-20.3,9.554-29.274,31.4-29.248,6.924.009,15.505.025,20.321,3.834,5.305,4.2,9.656,12.794,9.576,19.415-.049,4.094-8.595,9.406-14.319,11.725-5.293,2.145-11.906,1.033-17.939,1.355Q107.767,578.906,107.855,580.8Z" transform="translate(1329.493 763.573)"/><path class="cls-14" d="M679.62,580.549h27.445c6.93,12.944,2.3,18.327-10.018,19.328-5.145.419-10.3,1.173-15.441,1.1-22.165-.34-31.279-9.463-31.123-30.766.157-21.258,9.132-29.661,31.981-29.645a76.382,76.382,0,0,1,12.566,1.252c11.211,1.89,17.965,8.1,17.521,20.014-.487,13.045-10.261,13.973-20.055,14.527-4.171.236-8.347.4-12.52.593Q679.8,578.749,679.62,580.549Z" transform="translate(1329.493 763.573)"/><path class="cls-13" d="M-102.188,580.78h27.669c5.718,12.07,2.508,18.014-9.6,18.976-5.612.446-11.234,1.331-16.836,1.224-21.92-.421-30.858-9.69-30.593-31.232.254-20.668,8.936-28.935,30.967-29.2a72.769,72.769,0,0,1,12.6,1.013c11.609,1.9,19.237,7.873,18.5,20.634-.752,12.986-10.656,13.665-20.393,14.183-4.146.22-8.293.414-12.44.619Z" transform="translate(1329.493 763.573)"/><path class="cls-15" d="M1190.592,580.17c.853,6.2,1.46,10.615,2.586,18.807-15.552,0-30.048,1.889-43.791-.517-14.534-2.543-17.323-15.578-17.007-28.742.3-12.594,3.256-24.319,17.544-26.927a94.688,94.688,0,0,1,29.224-.339c10.787,1.456,16.023,9.21,15.36,20.229-.687,11.434-9.216,12.941-18.076,13.508-5,.319-10.028.057-15.045.057q-.069,1.962-.14,3.924Z" transform="translate(1329.493 763.573)"/><path class="cls-14" d="M1469.464,570.934c.005,21.762-8.548,29.977-31.365,30.126-23.295.152-33.188-8.932-33.036-30.337.153-21.582,9.925-30.465,33.255-30.229C1460.964,540.724,1469.459,549.026,1469.464,570.934Zm-22.068-.364-10.108-13.32c-2.324,4.477-6.438,8.94-6.475,13.436-.038,4.619,3.906,9.27,6.107,13.907C1440.066,580.383,1443.211,576.173,1447.4,570.57Z" transform="translate(1329.493 763.573)"/><path class="cls-15" d="M1703.263,601.042c-23.131-.2-32.442-9.294-31.937-31.2.483-21,9.816-29.425,32.514-29.348,23.022.077,32.068,9,31.763,31.321C1735.315,592.937,1726.128,601.238,1703.263,601.042Zm9.744-30.187-9.088-13.576c-2.449,4.27-6.952,8.607-6.812,12.79.164,4.91,4.361,9.686,6.809,14.52C1706.668,580.432,1709.42,576.275,1713.007,570.855Z" transform="translate(1329.493 763.573)"/><path class="cls-16" d="M235.235,598.467V541.113c7.4,1.841,13.539,3.921,19.842,4.718,3.481.441,7.462-.715,10.826-2.1,19.986-8.227,30.589-1.326,30.665,20.259.039,11.212.007,22.424.007,34.6H271.847c0-9.555.507-18.867-.29-28.067-.261-3-3.919-5.716-6.023-8.561-2.094,2.936-5.7,5.731-5.994,8.836-.823,8.79-.288,17.708-.288,27.665Z" transform="translate(1329.493 763.573)"/><path class="cls-17" d="M461.56,542.979h24.416v34.958c12.2,1.724,12.234,1.724,12.35-11.04.067-7.463.012-14.927.012-23.348,4.479-.438,8.024-.927,11.584-1.1,3.71-.174,7.436-.039,13.186-.039V599.62c-7.1-.585-12.852-1.164-18.617-1.5-4.026-.233-8.506-1.3-12.036.016-21.129,7.861-30.75,1.742-30.883-20.331C461.505,566.6,461.56,555.4,461.56,542.979Z" transform="translate(1329.493 763.573)"/><path class="cls-17" d="M1554.46,542.9h23.931v57.437c-6.989-1.433-13.265-3.18-19.654-3.848a23.766,23.766,0,0,0-10.948,1.77c-19.517,7.934-29.929,1.2-29.982-19.781-.026-10.38.068-20.761.164-31.141a21.393,21.393,0,0,1,.952-3.787h23.4c0,9.04-.5,18.356.277,27.565.261,3.1,3.752,5.933,5.767,8.888,2.031-2.955,5.531-5.777,5.813-8.89C1554.979,562.289,1554.46,553.348,1554.46,542.9Z" transform="translate(1329.493 763.573)"/><path class="cls-13" d="M942.6,598.66c0-9.021.693-17.437-.3-25.649-.473-3.9-4.163-7.414-6.395-11.1-2.138,3.911-5.608,7.654-6.128,11.769-.987,7.819-.286,15.851-.286,24.827H906.173v-57.71c7.3,2.147,13.339,4.3,19.556,5.57,2.622.536,5.862-.239,8.417-1.348,23.634-10.259,33.161-3.993,33.2,22.051.013,10.25,0,20.5,0,31.593Z" transform="translate(1329.493 763.573)"/><path class="cls-12" d="M1744.552,540.249c7.746,2.52,13.437,5.073,19.386,6.036,3.387.548,7.387-1.041,10.781-2.456,19.375-8.075,30.278-1.295,30.487,19.317.105,10.376-.035,20.755-.192,31.131-.02,1.324-.818,2.637-1.455,4.555h-22.591c0-9.688.506-19-.283-28.2-.265-3.091-3.828-5.9-5.884-8.838-2.326,2.8-6.374,5.428-6.657,8.418-.877,9.258-.321,18.652-.321,28.627h-23.271Z" transform="translate(1329.493 763.573)"/><path class="cls-14" d="M398.459,600.136c-.906-26.443,19.665-10.014,28-18.991-5.638-1.859-10.985-3.643-16.347-5.384-9.314-3.025-13.812-9.439-13.219-19.183.6-9.826,7.186-14.388,15.861-14.918,12.563-.767,25.209-.2,38.63-.2v15.215H423.468l-.483,2.765c6.036,1.856,12.052,3.785,18.113,5.553,9.92,2.893,15.048,8.969,14.019,19.736-1,10.5-7.649,14.889-17.062,15.276C425.465,600.526,412.837,600.136,398.459,600.136Z" transform="translate(1329.493 763.573)"/><path class="cls-11" d="M1342.375,600.524c1.145-7.608,1.686-11.2,2.432-16.156h26.4q.389-1.8.779-3.591c-4.821-1.434-9.635-2.893-14.465-4.3-10.174-2.957-16.474-8.886-15.479-20.3,1.011-11.6,9.795-14.415,18.949-15.076,11.585-.837,23.277-.2,35.653-.2v15.6h-27.024q-.359,1.423-.718,2.847c5.232,1.75,10.394,3.752,15.709,5.194,10.276,2.788,16.755,8.332,15.664,19.924-1.129,11.989-9.538,15.52-19.687,15.938C1368.544,600.9,1356.462,600.524,1342.375,600.524Z" transform="translate(1329.493 763.573)"/><path class="cls-15" d="M773.585,540.786c-.784,7.43-1.207,11.437-1.7,16.11H746.042q-.374,1.491-.746,2.981c4.414,1.326,8.808,2.724,13.246,3.963,10.212,2.851,18.608,7.212,17.646,19.953-1.041,13.777-10.884,16.35-21.883,16.758-11.157.413-22.341.091-33.014.091-2.553-13.609-2.553-13.609,27.1-19.721-4.852-1.409-9.686-2.882-14.559-4.214-10.933-2.989-17.25-9.525-15.794-21.412,1.409-11.494,10.594-13.723,19.665-14.324C749.225,540.207,760.832,540.786,773.585,540.786Z" transform="translate(1329.493 763.573)"/><path class="cls-11" d="M781.881,599.967c.427-26.08,20.955-9.572,28.848-18.816-5.393-1.817-11.155-3.732-16.9-5.7-9.3-3.183-15.067-10.233-12.046-19.28,1.927-5.77,8.9-12.871,14.518-13.784,12.681-2.059,25.926-.646,40.19-.646-.38,6.044-.631,10.021-.938,14.9H808.386q-.342,1.375-.683,2.752,9.462,3.045,18.924,6.091c9.407,3.025,13.77,9.55,12.677,19.284-1.035,9.233-6.686,14.694-15.82,15.055C810.063,600.361,796.605,599.967,781.881,599.967Z" transform="translate(1329.493 763.573)"/><path class="cls-13" d="M8.37,543.158h25.3l9.444,38.489c3.45-14.729,6.179-26.382,9.024-38.526H77.759c-5.663,17.052-10.8,33.071-16.321,48.954-4,11.49-14.249,7.632-21.838,7-5.377-.446-13.225-4.036-15.056-8.32C18.11,575.7,13.8,559.734,8.37,543.158Z" transform="translate(1329.493 763.573)"/><path class="cls-9" d="M827.826,329.948v27.666H744.9V329.948Z" transform="translate(1329.493 763.573)"/><path class="cls-14" d="M1061.71,542.9h25.624l9.215,39.344c3.593-15.1,6.313-26.531,9.239-38.828H1130.9c-5.59,17.132-9.571,34.173-17.095,49.474-2.3,4.673-14.313,6-21.918,6.108-4.662.068-11.942-4.018-13.649-8.083C1071.914,575.852,1067.418,560.021,1061.71,542.9Z" transform="translate(1329.493 763.573)"/><path class="cls-15" d="M583.208,581.525c5.008,11.371,2.147,17.665-10.083,18.591-5.156.39-10.355,1.034-15.49.749-19.694-1.09-27.109-9.494-27.041-30.086.067-20.481,7.687-29.247,27.211-30.056a69.941,69.941,0,0,1,20.91,2.271c2.6.7,5.86,5.872,5.544,8.632-.342,2.992-4.026,6.633-7.129,7.993-3.17,1.389-8.228-.987-10.976.7-3.916,2.405-9.023,7.091-8.91,10.655.114,3.611,5.371,8.673,9.441,10.132C571.613,582.872,577.658,581.525,583.208,581.525Z" transform="translate(1329.493 763.573)"/><path class="cls-15" d="M644.964,545.952c-.678,4.192-1.4,8.651-1.9,11.752-9.089,6.718-27.616-6.436-26.414,13.8,1.053,17.751,17.3,6.216,27.278,11.29.446,3.8,1.013,8.613,1.541,13.1-21.236,8.235-42.427,6.251-50.024-4.077-6.852-9.314-6.271-34.56.989-43.023C604.7,539.158,625.894,537.7,644.964,545.952Z" transform="translate(1329.493 763.573)"/><path class="cls-17" d="M1633.176,598.905c-8.482.882-15.353,2.41-22.143,2.112-10.339-.453-15.587-6.283-17.014-17.047-1.346-10.15,7.084-23.637-8.862-29.922-.929-.366-.553-7.419,1.112-10.243,2.983-5.06,7.41-9.27,13.279-16.276h18.018c.793,4.269,1.609,8.664,1.789,9.631l13.543,12.225-12.6,13.106c1.235,5.105-8.66,17.573,8.714,21.93C1631.142,584.954,1631.483,592.607,1633.176,598.905Z" transform="translate(1329.493 763.573)"/><path class="cls-16" d="M-61.441,520h23.615c0,17.176-.472,33.57.314,49.9.211,4.38,4.448,8.487,6.5,12.879,2.137,4.584,3.863,9.36,5.776,14.07-27.137,10.02-37.315,3.013-37.313-23.416q0-24.649.144-49.3A25.741,25.741,0,0,1-61.441,520Z" transform="translate(1329.493 763.573)"/><path class="cls-12" d="M1511.936,600.547c-6.893,0-14.693,2.014-20.424-.567-5.7-2.568-12.836-9.494-13.234-14.954-1.534-21.04-.622-42.258-.622-64.39h23.193c3.422,25.743-7.542,53.592,15.494,75.868Z" transform="translate(1329.493 763.573)"/><path class="cls-11" d="M148.645,598.685V543.163c14.673-2.306,30.034,7.514,46.081-6.327-.657,11.17-1.051,17.867-1.5,25.58-34.626-4.19-15.131,23.3-22.846,36.269Z" transform="translate(1329.493 763.573)"/><path class="cls-12" d="M2.784,543.6v55H-19.527v-55Z" transform="translate(1329.493 763.573)"/><path class="cls-16" d="M201.093,598.836V543.224H224.1v55.612Z" transform="translate(1329.493 763.573)"/><path class="cls-12" d="M1662.664,543.578v54.986h-22.259V543.578Z" transform="translate(1329.493 763.573)"/><path class="cls-12" d="M893.869,598.844H872.077v-55.6h21.792Z" transform="translate(1329.493 763.573)"/><path class="cls-16" d="M213.1,542.359c-6.105-7.591-11.263-11.3-12.38-15.975-2.106-8.806,4.405-10.539,11.89-10.649,7.648-.113,13.766,1.934,12.038,10.6C223.767,530.773,219.018,534.444,213.1,542.359Z" transform="translate(1329.493 763.573)"/><path class="cls-16" d="M883.082,542.55c-6.167-8.045-11-11.693-11.974-16.177-1.994-9.2,4.815-10.642,12.267-10.613,6.966.026,13.364,1.793,11.733,9.9C894.139,530.474,889.067,534.464,883.082,542.55Z" transform="translate(1329.493 763.573)"/><path class="cls-17" d="M-8.77,542.806c-6.125-8.374-10.767-12.078-11.706-16.558-1.941-9.26,4.9-10.5,12.282-10.475,7.118.023,13.092,2.242,11.384,10.178C2.17,530.694-2.728,534.6-8.77,542.806Z" transform="translate(1329.493 763.573)"/><path class="cls-17" d="M1650.324,542.7c-5.414-8.453-9.843-12.6-10.761-17.409-1.648-8.641,5.175-9.315,11.8-9.519,7.966-.244,13.736,2.68,11.832,11.134C1662.209,531.292,1657.058,534.737,1650.324,542.7Z" transform="translate(1329.493 763.573)"/></svg>