<svg id="Layer_1" data-name="Layer 1" xmlns="http://www.w3.org/2000/svg" viewBox="0 0 3031.387 2348.168"><defs><style>.cls-1{fill:#f26629;}.cls-2{fill:#f26628;}.cls-3{fill:#3a3a3a;}.cls-4{fill:#b7b1ae;}</style></defs><path class="cls-1" d="M-2818.039,1745.468q-399.454,0-798.909-.293c-12.378-.018-25.828-1.98-36.885-7.113-18.924-8.786-28.713-25.733-28.729-46.879-.1-139.257-1.744-278.545.659-417.762,2.117-122.612,85.344-230.527,201.863-269.018,12.081-3.991,24.088-8.606,36.5-11.08,12.031-2.4,16.247-8.5,18.651-20.326,24.66-121.266,96.761-200.931,214.149-238.8,20.729-6.688,43.5-9.31,65.4-9.7,68.443-1.209,136.922-.633,205.384-.191a53.026,53.026,0,0,1,22.649,5.86c66.255,33.44,132.169,32.9,198.353-.215a53.435,53.435,0,0,1,22.706-5.653c63.74-.442,127.485-.009,191.226-.307,102.516-.479,181.158,45.2,241.331,125.422,28.177,37.567,45.644,80.3,52.345,126.946,1.385,9.647,5.923,13.535,14.678,15.861,44.974,11.951,88.088,28.117,125.264,57.224,74.394,58.247,115.347,134.685,116.767,228.946,2.063,136.867.751,273.788.525,410.685-.053,32.561-22.49,54.823-55.106,56.285-5.656.254-11.33.106-17,.106Q-2422.128,1745.471-2818.039,1745.468Zm226.862-507.561c-152.283,89.211-302.693,88.739-454.232.251,0,43.91.243,85.888-.2,127.859-.092,8.707,2.684,13.106,10.445,17.364,38.085,20.893,58.077,53.84,57.11,97.065-1.211,54.1-40.625,95.741-94.729,103.326-48.373,6.781-97.871-24.822-113.626-72.547-16.636-50.4,4.747-103.141,52.839-128.389,7.581-3.981,9.623-8.39,9.589-16.329-.27-63.246.045-126.5-.452-189.739-.05-6.376-3.257-13.362-6.757-18.968-15.955-25.557-33.718-50.053-48.56-76.218-14.435-25.45-17.626-53.623-10.556-82.313,10.941-44.4,39.1-73.039,81.668-88.607,4.827-1.766,11.832-6.733,12.022-10.509,1.135-22.448.561-44.984.561-68.475-14.2,0-26.864-.506-39.47.163a183.374,183.374,0,0,0-29.392,3.942c-91.6,20.058-152.446,94.481-154.884,189.081-.817,31.7-14.6,49.823-44.907,59.054-21.647,6.594-43.241,13.374-64.95,19.757-91.405,26.874-142.68,94.948-142.819,190.376q-.236,162.837-.011,325.676c0,4.972.428,9.944.661,15.014h1507.038c.239-3.935.6-7.138.6-10.341,0-113.75.425-227.5-.224-341.25-.452-79.243-50.94-148.286-126.176-173.978-26.755-9.137-53.993-16.873-81.054-25.1-31.287-9.516-44.506-27.156-45.216-60.092-1.21-56.185-22.2-103.84-63.638-141.726-45.153-41.286-99.266-55.071-160.092-49.863,0,19.9.786,38.772-.281,57.542-.693,12.174,2.794,17.686,14.937,22.119,61.827,22.573,94.715,81.983,78.842,142.975-10.054,38.632-34.025,70.066-57.382,101.633-4.346,5.874-7.562,14.162-7.632,21.372-.594,61.354-.118,122.717-.547,184.073-.076,10.956,2.448,17.163,13.14,22.863,45.923,24.478,65.7,79.318,48.055,128.96-17.192,48.356-67.61,77.721-118.2,68.841-46.8-8.216-80.28-42.723-88.382-91.1-7-41.819,16.563-86.891,56.169-108.771,4.491-2.48,10.153-8.191,10.227-12.49C-2590.884,1326.591-2591.177,1282.762-2591.177,1237.907ZM-2650.7,816.97c-53.053,33.448-108.26,47.225-167.574,47.331-59.6.108-114.972-14.29-167.709-46.85,0,36.529.3,69.5-.189,102.466-.136,9.281-2.913,18.494-3.807,27.8-.636,6.629-2.026,14.049.124,19.95,24.89,68.327,92.135,116.543,164.454,118.66,75.644,2.214,144.06-40.335,174.343-108.3,5.212-11.7,10.066-22.748,2.982-36.008-3.074-5.755-2.475-13.785-2.523-20.789C-2650.824,887.78-2650.7,854.32-2650.7,816.97Zm-419.156,164.668c-44.082,10.379-56.636,36.031-34.825,74.614,62.708,110.93,158.438,168.672,285.728,168.825,128.509.155,224.739-58.229,287.7-170.36,20.6-36.691,6.337-64.766-35.863-72.908-43.605,111.6-123.058,179.539-244.466,182.2C-2939.378,1166.82-3023.513,1098.618-3069.855,981.638Zm546.378,495.475a28.714,28.714,0,0,0-28.111-28.068c-15.714-.176-28.783,13.053-28.588,28.939a28.215,28.215,0,0,0,29.467,27.855A28.242,28.242,0,0,0-2523.477,1477.113Zm-561.18,28.712a28.642,28.642,0,0,0,28.3-27.821c.34-15.411-13.331-29.166-28.784-28.962a28.509,28.509,0,0,0-28.033,28.023A28.06,28.06,0,0,0-3084.657,1505.825Z" transform="translate(4240.246 602.66)"/><path class="cls-2" d="M-3196.622,418.379c-35.413,0-71.685.228-107.943-.4-3.184-.055-8.423-5.3-9.069-8.8-5.987-32.458-12.248-64.929-16.336-97.657-5.769-46.187,7.833-86.977,40.013-120.729,6.982-7.323,7.845-13.225,5.283-22.384C-3310.328,76.7-3335.4-15.182-3360.92-106.934c-29.973-107.751,27.951-209.295,135.889-237.7,6.845-1.8,12.268-3.034,14.187-12.5,33.188-163.681,169.715-261.761,337.151-243.314,51.127,5.633,99.709,19.5,146.854,39.831,69.478,29.969,141.538,49.828,217.933,48.923,62.381-.739,119.978-17.353,171.349-54,39.489-28.168,83.936-10.593,91.128,37.64,5.955,39.939,7.293,80.567,10.579,120.9.145,1.775-.685,3.629-1.305,6.628h-108.156v-31.95c-28.377,7.825-55.61,17.257-83.618,22.712-98.773,19.236-194.418,3.176-288.085-29.176-24.48-8.456-48.069-19.454-72.335-28.575-57.439-21.591-116.326-33.819-177.315-18.694C-3046.09-466.5-3101.5-396.6-3105.24-314.722c-.488,10.691-1.644,21.853-5.262,31.788-6.2,17.026-19.811,27.221-37.217,31.9-17.768,4.776-35.751,8.769-53.459,13.747-40.422,11.363-64.291,47.821-56.266,88.794,5.2,26.554,13.629,52.476,21.142,80.676,7.529-8.235,13.207-14.988,19.442-21.181,51.068-50.716,112.279-65.745,182.147-52.966,78.509,14.359,157.765,14.854,237.068,8.948,80.145-5.968,159.322-18.1,236.606-40.914,2.11-.623,4.417-.58,8.451-1.067,0,30.61,0,60.187,0,89.763,0,23.645.041,23.829-22.711,29.029-149.9,34.255-301.155,45.694-454.179,26.6-11.231-1.4-22.389-3.414-33.56-5.264-52.995-8.775-96.7,24.963-98.939,78.692-2.083,49.97-1.878,100.047-2.029,150.079-.06,20.245-5.767,38.279-22.344,49.6-32.936,22.486-40.365,51.378-29.355,88.5,5.588,18.838,6.275,39.084,10.048,58.525C-3203.931,399.405-3200.1,407.889-3196.622,418.379Z" transform="translate(4240.246 602.66)"/><path class="cls-1" d="M-2158.442,418.394c34.3-35.564,64.853-68.384,96.952-99.615,6.889-6.7,19.3-10.494,29.295-10.764,42.936-1.161,85.922-.426,128.888-.542,36.643-.1,58.285-21.334,58.321-58.009q.23-237.21-.006-474.42c-.038-36.5-21.708-57.481-58.591-57.5q-236.554-.088-473.11,0c-37.416.015-58.626,21.343-58.644,59.059q-.114,235.794,0,471.587c.018,38.02,21.647,59.237,60.084,59.29,43.912.061,87.823-.058,131.734.05,27.391.068,43.151,15.585,43.342,42.744.15,21.236-.105,42.476-.238,63.713-.005.851-.6,1.7-1.264,3.468h-76.806V386.3c-24.879,0-48.395,1.033-71.78-.279-25.24-1.416-51.591-1.076-75.278-8.474-54.12-16.9-88.056-65.728-88.285-123.941-.633-160.97-.95-321.948.114-482.914.5-76,58.313-131.581,134.172-131.731q239.388-.472,478.776,0c76.8.153,133.893,56.266,134.178,132.905q.893,240.747-.022,481.5c-.306,76.155-58.224,132.415-134.607,132.895-33.994.214-68,.459-101.982-.2-10.819-.211-19.495,1.965-25.556,11.047-12.31,18.446-29.333,23.35-50.979,21.72C-2104.42,416.966-2129.353,418.394-2158.442,418.394Z" transform="translate(4240.246 602.66)"/><path class="cls-1" d="M-2312.112,5.085c21.226,17.67,41.222,34.176,61.059,50.871,20.04,16.867,23.6,40.726,8.958,58.5-14.934,18.125-38.134,19.114-58.963,2.009q-48.124-39.517-95.824-79.549c-21.746-18.328-21.845-44.9-.077-63.358q48.574-41.183,97.914-81.461c18.655-15.272,42.575-13.437,56.869,3.557,14.123,16.792,11.633,40.895-6.621,56.623C-2269.134-30.2-2290.006-13.3-2312.112,5.085Z" transform="translate(4240.246 602.66)"/><path class="cls-1" d="M-1979.294,5.148c-22.233-18.569-43.322-35.831-64-53.575-14.219-12.2-18-29.7-10.881-46.054,6.8-15.622,22.588-25.357,39.952-22.689a47.233,47.233,0,0,1,21.561,9.276q49.565,39.894,98.08,81.087c21.755,18.4,21.95,44.954.275,63.384q-49.011,41.673-98.994,82.2c-18.3,14.89-41.375,12.831-55.652-3.912-14.556-17.07-12.3-41.025,5.907-56.586C-2022.637,40.843-2001.823,23.887-1979.294,5.148Z" transform="translate(4240.246 602.66)"/><path class="cls-1" d="M-2069.745-101.3c-.8,3.044-2.094,9.5-4.163,15.707q-34.857,104.512-69.95,208.946c-8.165,24.275-28.6,36.109-50.1,29.426-22.391-6.961-32.762-28.78-24.533-53.629q35.745-107.938,72.184-215.645c6.721-19.864,24.976-30.6,44.022-27.149C-2083.191-140.184-2069.762-124.162-2069.745-101.3Z" transform="translate(4240.246 602.66)"/><path class="cls-3" d="M-3121.791,458.029V484.4h-43.431v25.983h43.2v26.261h-43.126V563.2h42.561v26.117h-71.426V458.029Z" transform="translate(4240.246 602.66)"/><path class="cls-3" d="M-1369.325,457.61h73.857v25.049h-43.061v27.28h43.017v27.487h-43.838v52.106h-29.975Z" transform="translate(4240.246 602.66)"/><path class="cls-3" d="M-2347.959,457.949h72.741V483.8H-2318.4v26.423h43.053v26.595H-2318.9v52.443h-29.057Z" transform="translate(4240.246 602.66)"/><path class="cls-3" d="M-2263.407,510.319h43.622V485.467h-43.74V457.443c21.843,1.087,44.279-5.746,64.745,9.376,6.278,4.638,10.718,8.362,9.665,16.7a59.011,59.011,0,0,0,.007,15.534c1.489,10.452-2.16,17.145-12.4,20.312-2.549.789-4.764,2.656-9.619,5.466,22.95,4.029,23.259,19.145,22.027,35.533-.7,9.292-.125,18.679-.125,28.985h-29.292v-51.04h-44.885Z" transform="translate(4240.246 602.66)"/><path class="cls-3" d="M-2975.96,589.645h-28.581V458.281h72.009v26.013h-43.1v25.992h43.55V537.1h-43.882Z" transform="translate(4240.246 602.66)"/><path class="cls-3" d="M-2464.215,590.334V562.947h42.937V483.38h-42.952v-26.5c22.3,2.315,45.661-6.506,64.839,10.87,4.18,3.787,8.365,10.054,8.559,15.326.9,24.445.4,48.942.4,73.421,0,17.727-12.986,32.543-30.892,33.666C-2435.3,591.035-2449.388,590.334-2464.215,590.334Z" transform="translate(4240.246 602.66)"/><path class="cls-3" d="M-4208.345,562.957h42.053v27.261c-22.322-1.142-44.432,5.078-64.319-10.049-6.221-4.732-9.823-8.419-9.627-16.667.571-24.01.2-48.043.2-72.067,0-18.115,12.146-32.623,30.329-34.043,14.444-1.128,29.047-.228,44.49-.228v25.43h-43.13Z" transform="translate(4240.246 602.66)"/><path class="cls-3" d="M-1484.648,562.476h42.783V483.391h-43.084V457.3c21.616,1.752,43.691-6.13,63.721,9.121,6.631,5.049,10.281,9.311,10.063,18.013-.6,23.989-.206,48-.208,72.006,0,17.345-12.01,31.677-29.551,33.6-10.236,1.124-20.69.327-31.045.263-4.117-.026-8.232-.407-12.679-.643Z" transform="translate(4240.246 602.66)"/><path class="cls-3" d="M-2476.65,562.2v27.667c-23-.026-46.3,5.6-65.994-11.157-3.7-3.147-7.418-8.7-7.531-13.232-.691-27.826-.431-55.678-.3-83.521.043-9.386,16.782-23.543,30.042-24.636,10.315-.851,20.755-.247,31.139-.178,4.147.027,8.292.354,13.219.58v25.021h-43.79V562.2Z" transform="translate(4240.246 602.66)"/><path class="cls-3" d="M-4012.079,482.931v79.5h43.1v27.416c-22.947.126-46.314,5.316-65.995-11.452-3.379-2.879-6.756-7.99-6.844-12.139-.6-28.277-.4-56.573-.26-84.862.044-9.039,17.481-23.365,30.445-24.052,14.456-.767,28.983-.176,44.1-.176v25.763Z" transform="translate(4240.246 602.66)"/><path class="cls-3" d="M-3633.77,589.231V458.266h73.114v24.366h-43.12v27.144h42.811v27.069h-43.1v52.386Z" transform="translate(4240.246 602.66)"/><path class="cls-3" d="M-1498.421,590.038c-22.507-.582-45.335,5.725-64.056-10.862-4.187-3.71-8.273-10.042-8.47-15.315-.9-24.012-.394-48.077-.392-72.123,0-18.393,11.929-32.174,30.029-34.515a66.78,66.78,0,0,1,8.482-.107c11.72-.007,23.441,0,36.007,0v25.954h-44.4v79.1h42.8Z" transform="translate(4240.246 602.66)"/><path class="cls-3" d="M-2868.411,523.258c23.8,5.261,23.6,20.618,22.492,36.874-.634,9.338-.114,18.754-.114,29.15h-28.557v-51.4H-2920.3V510.717h44.037V485.188h-43.869V457.234c21.975,1.62,44.493-5.708,64.937,9.7,6.357,4.791,10.449,8.781,9.169,16.8a11.245,11.245,0,0,0-.01,1.411C-2846.518,500.978-2839.9,520.313-2868.411,523.258Z" transform="translate(4240.246 602.66)"/><path class="cls-3" d="M-3956.218,590.312V563.2h43.783V483.313h-43.426V457.224c21.96,1.663,45.179-6.627,64.5,10.33,4.222,3.705,8.137,10.249,8.331,15.624.883,24.489.388,49.028.387,73.548,0,17.917-13.017,32.471-31.038,33.441C-3927.274,590.9-3940.938,590.312-3956.218,590.312Z" transform="translate(4240.246 602.66)"/><path class="cls-3" d="M-3681.714,589.826h-28.129V494.741L-3754.38,535.7c-.807-17.991-5.918-33.864,11.131-45.652a104.447,104.447,0,0,0,20.664-19.152c10.871-13.118,24.111-16.645,40.871-12.468Z" transform="translate(4240.246 602.66)"/><path class="cls-3" d="M-3839.984,458.4c16.927-4.121,30.436-.819,40.993,12.6a54.1,54.1,0,0,0,12.347,11.612c18.406,12.172,24.1,28.957,18.215,51.8l-42.619-38.671V589.57h-28.936Z" transform="translate(4240.246 602.66)"/><path class="cls-3" d="M-1990.385,576.72c-3.781,2.059-5.565,2.758-7.034,3.872-13.629,10.329-25.571,8.1-38.968-2.1-17.563-13.373-36.866-24.445-55.252-36.757-11.587-7.758-11.313-28.73.382-36.534q27.612-18.423,55.435-36.528c20.948-13.679,20.98-13.629,44.164,2.321l-83.708,52.6Z" transform="translate(4240.246 602.66)"/><path class="cls-3" d="M-3379.45,457.789h28.094V562.411h43.59v27.1h-71.684Z" transform="translate(4240.246 602.66)"/><path class="cls-3" d="M-1742.436,589.542h-29.494V458.285h28.281v51.764h44.017v25.935h-42.8Z" transform="translate(4240.246 602.66)"/><path class="cls-3" d="M-1642.157,510.594V457.859h28.145V589.174h-27.465V537.433h-45.068V510.594Z" transform="translate(4240.246 602.66)"/><path class="cls-3" d="M-2733.251,465.479l27.017-8.444,21.085,99.6,25.39-27.79c5.408,23.439,1.955,42.912-16.98,58.144-11.624,9.351-29.691,3.5-32.787-10.928C-2717.314,539.783-2725.094,503.5-2733.251,465.479Z" transform="translate(4240.246 602.66)"/><path class="cls-3" d="M-2646.822,528.153l25.153,28.56,22.017-99.9,26.039,8.653c-3.32,16.26-6.445,31.835-9.688,47.385-4.335,20.783-8.478,41.615-13.343,62.275-1.251,5.314-4.929,14.33-7.437,14.311-9.184-.07-19.841-.915-27.224-5.68C-2650.768,571.2-2649.584,550.838-2646.822,528.153Z" transform="translate(4240.246 602.66)"/><path class="cls-3" d="M-1284,457.131c22.869,1.687,45.614-5.581,66.039,10.036,6.424,4.911,9.812,9.125,8.974,17.027-.5,4.663-.088,9.422-.088,14.138,0,26.455-12.944,39.34-39.67,39.436-11.669.042-23.338.007-35.51.007V510.943h43.366V483.309H-1284Z" transform="translate(4240.246 602.66)"/><path class="cls-3" d="M-1885.747,590.32V563.689h43.839V538.215h-44.429V510.549c23.145.713,47.157-5.827,67.122,11.845a23.923,23.923,0,0,1,6.863,12.17c1.174,5.4.282,11.244.282,16.9,0,26.233-12.979,38.8-40.15,38.856C-1862.959,590.337-1873.7,590.32-1885.747,590.32Z" transform="translate(4240.246 602.66)"/><path class="cls-3" d="M-1898.17,457.169v27.086h-43.856v25.813h43.677v27.224c-23.134-1.12-46.774,6.114-66.407-11.469-2.842-2.545-6.295-6.236-6.5-9.575-.763-12.669-4.106-27.212.817-37.6,4.5-9.487,17.572-17.832,28.43-20.64C-1928.434,454.5-1913.266,457.169-1898.17,457.169Z" transform="translate(4240.246 602.66)"/><path class="cls-3" d="M-3548.558,537.438V510.6h43.874V483.62h-43.586v-26.2c22.577,1.07,46.172-6.456,65.824,10.79,3.98,3.493,6.855,9.1,8.381,14.281,1.4,4.762.3,10.26.3,15.434,0,27.424-12.474,39.485-40.887,39.516C-3525.443,537.448-3536.235,537.438-3548.558,537.438Z" transform="translate(4240.246 602.66)"/><path class="cls-3" d="M-2120.421,589.592h-28.217V458.12h27.141v50.193l13.478,3.831V535.3l-12.4,3.248Z" transform="translate(4240.246 602.66)"/><path class="cls-3" d="M-3422.949,589.929h-27.734V457.8h27.734Z" transform="translate(4240.246 602.66)"/><path class="cls-3" d="M-4153.12,590.361v-27.14h42.585c.722-5.948,1.264-10.412,1.9-15.653h27.83c5.15,25.979-7.216,41.97-32.922,42.729C-4126.383,590.67-4139.059,590.361-4153.12,590.361Z" transform="translate(4240.246 602.66)"/><path class="cls-3" d="M-1886.651,485.02V455.185c19.051,2.2,37.587,2.789,55.342,6.82,18.462,4.192,23.154,18.328,17.873,36.956h-26.48c-.661-3.709-1.439-8.07-2.486-13.941Z" transform="translate(4240.246 602.66)"/><path class="cls-3" d="M-1970.458,548.567h27.144c.537,4.813,1.034,9.266,1.662,14.891h43.368V590.1c-19.058-1.762-38.533,5.255-57.129-6.1C-1974.045,572.627-1974.29,573.027-1970.458,548.567Z" transform="translate(4240.246 602.66)"/><path class="cls-3" d="M-4080.8,498.818h-27.194c-.834-4.565-1.721-9.419-2.823-15.448h-42.761V457.32c19.636,1.93,39.618-5.655,58.532,5.889C-4076.606,474.462-4076.246,474.659-4080.8,498.818Z" transform="translate(4240.246 602.66)"/><path class="cls-3" d="M-3294.407,589.207V563.648h72.7v25.559Z" transform="translate(4240.246 602.66)"/><path class="cls-3" d="M-3036.4,564.118V589.44h-72.479V564.118Z" transform="translate(4240.246 602.66)"/><path class="cls-3" d="M-3036.582,457.973v25.952h-73.1V457.973Z" transform="translate(4240.246 602.66)"/><path class="cls-4" d="M-3674.76,657.866l20.689-28.695,2.881,1.063V682.37l-3.742.2V648.794l-3.823-1.506-16.535,22.085-18.526-27.065V683.75c-7.608-8.857-8.5-40.832-2.306-55.972C-3688.836,638.039-3682.2,647.385-3674.76,657.866Z" transform="translate(4240.246 602.66)"/><path class="cls-4" d="M-3630.895,648.323V682.3l-3.92-.026V625.5l23.525,32.1,20.783-29.069,2.7,1.36v52.487l-4.438.2c-.55-11.2-1.1-22.39-1.8-36.648l-18,23.155-14.75-21.235Z" transform="translate(4240.246 602.66)"/><path class="cls-4" d="M-3044.96,656.012h19.247c-1.167,9.394,6.724,20.175-6.795,25.952-11.356,4.852-25.883,1.045-33.151-8.535-7.731-10.189-7.8-24.3-.172-34.123,9.745-12.542,25.428-14.47,41.062-1.929-8.121-1-12.645-1.825-17.2-2.079-12.035-.67-20.952,7.3-21.736,19.15-.812,12.279,6.679,22.088,18.4,21.975,4.242-.041,8.444-4.423,12.664-6.825-3.172-2.753-6.327-5.526-9.526-8.247-.962-.819-2.044-1.5-3.072-2.236Q-3045.1,657.563-3044.96,656.012Z" transform="translate(4240.246 602.66)"/><path class="cls-4" d="M-2854.747,637.311c4.791,6.519,6.937,12.077,10.892,14.105,4.254,2.18,10.207,1.047,15.418,1.359q.091,2.346.184,4.692l-21.977,3.09c-.281,4.51-.562,9-.921,14.775l26.227,2.376-.1,3.824h-32.649v-51.5h31.956l.456,3.895Z" transform="translate(4240.246 602.66)"/><path class="cls-4" d="M-3890.182,628.326c14.81.273,25.681,12.2,25.535,28.023-.147,15.85-11.16,27.526-26.027,27.593-15.243.069-26.67-12.469-26.238-28.788C-3916.5,639.449-3905.138,628.05-3890.182,628.326Zm-.509,48.663c11.431,0,19.174-8.879,18.842-21.6-.312-11.888-8.066-20.2-18.89-20.25-11.284-.05-18.96,8.86-18.679,21.685C-3909.15,669.039-3901.762,676.993-3890.691,676.989Z" transform="translate(4240.246 602.66)"/><path class="cls-4" d="M-3346.383,656.293c-.12,15.976-10.942,27.541-25.872,27.65-15.35.112-26.58-12.208-26.193-28.735.371-15.832,11.542-27.121,26.583-26.863C-3356.9,628.6-3346.262,640.273-3346.383,656.293Zm-27.979,20.651c11.1,1.055,19.524-6.316,20.765-18.16,1.306-12.467-5.78-22.379-16.818-23.526s-19.509,6.325-20.62,18.157C-3392.24,666.251-3385.407,675.894-3374.362,676.944Z" transform="translate(4240.246 602.66)"/><path class="cls-4" d="M-2580.15,684.51c-10.835-8.314-9.508-33.594-32.507-20.557-.543,4.727-1.312,11.415-2.081,18.1l-4.618.148c-2.674-16.9-.938-34.106-.793-53.21,7.929,0,14.806-.266,21.655.053,16,.745,20.117,9.681,15.719,24.676C-2585.245,662.145-2581.418,672.415-2580.15,684.51Zm-32.733-51.246V657.22c8.563-2.106,16.05-3.194,22.728-6.124,1.647-.723,1.962-10.335.676-10.909C-2596.187,637.191-2603.608,635.792-2612.883,633.264Z" transform="translate(4240.246 602.66)"/><path class="cls-4" d="M-4148.428,656.077c.081,15.913-10.7,27.64-25.6,27.853-14.816.211-26.065-11.351-26.37-27.1-.321-16.554,10.841-28.629,26.336-28.491C-4159.045,628.47-4148.511,639.87-4148.428,656.077Zm-26.424,20.9c11,.27,18.895-7.707,19.42-19.629.55-12.514-7.189-21.842-18.417-22.2-10.87-.343-18.719,7.714-19.219,19.729C-4193.606,667.8-4186.27,676.7-4174.852,676.975Z" transform="translate(4240.246 602.66)"/><path class="cls-4" d="M-3247.053,634.3c-4.285.4-8.568.835-12.858,1.177-4.123.328-8.254.557-12.2.817-.854,7.631-.854,7.631,23.489,20.609-5.441.819-8.751,1.43-12.088,1.791-3.676.4-7.377.567-11.866.894v15.832l25.8,2.641q-.12,2.542-.242,5.085c-9.481,0-18.991.384-28.42-.323-1.889-.142-4.882-4.392-4.957-6.822-.461-14.972-.231-29.965-.231-45.455h33.347Z" transform="translate(4240.246 602.66)"/><path class="cls-4" d="M-2684.879,656.682c-.228,16.047-11.073,27.33-26.155,27.212-15.335-.119-26.644-12.685-26.062-28.958.555-15.5,12.309-27.038,27.052-26.553C-2695.2,628.871-2684.653,640.73-2684.879,656.682Zm-7.125-.516c.019-12.176-7.381-20.731-18.209-21.054-11.5-.342-19.653,8.384-19.688,21.08-.034,12.421,8.475,21.592,19.689,21.221C-2699.641,677.064-2692.021,668.173-2692,656.166Z" transform="translate(4240.246 602.66)"/><path class="cls-4" d="M-2891.793,656.184l20.4-1.506c5.256,20.627,3.184,26.105-9.914,28.71-16.035,3.188-31.277-7.208-33.2-22.848-1.6-13.058,2.944-23.628,14.978-29.294,9.432-4.441,19.4-5.46,30.8,6.085-8.365-1.01-13.072-1.939-17.8-2.077-11.924-.347-20.537,8.124-20.939,20.186-.4,11.955,7.961,21.707,19.57,21.135,3.916-.193,7.635-4.4,11.444-6.77-3.095-2.844-6.18-5.7-9.289-8.525C-2886.692,660.416-2887.7,659.621-2891.793,656.184Z" transform="translate(4240.246 602.66)"/><path class="cls-4" d="M-3815.788,637.116c-4.337-.64-8.663-1.725-13.014-1.832-10.636-.262-18.4,4.34-20.863,15.1-2.294,10.033-.209,20.068,9.825,23.88,5.627,2.137,13.338-1.208,20.11-2.083l-9.744-15.982,17.249-1.846c-1.974,10.916,6.257,21.96-7.374,27.641a28.263,28.263,0,0,1-32.91-9.155,28.161,28.161,0,0,1,1.4-35.215C-3841.551,626.734-3827.228,625.454-3815.788,637.116Z" transform="translate(4240.246 602.66)"/><path class="cls-4" d="M-3521.408,664.144c-.786,5.606-1.685,12.022-2.584,18.438l-3.786-.345V629c6.034,0,12.054-.126,18.067.024,18.234.454,22.2,8.352,17.166,25.457-2.35,7.982,2.12,17.971,3.991,30.288C-3500.085,676.415-3498.736,650.7-3521.408,664.144Zm-.788-5.829c9.44-3.1,17.092-5.071,24.095-8.4,1.338-.637,1.12-9.294-.09-9.754-7.269-2.763-15.037-4.215-24.005-6.446Z" transform="translate(4240.246 602.66)"/><path class="cls-4" d="M-3540.379,683.2c-9.041,0-18.114.4-27.1-.3-2.064-.162-5.408-4.063-5.48-6.327-.488-15.358-.255-30.738-.255-46.373h32.979q.165,1.875.329,3.751l-25.358,2.591v14.574l21.625,2.226.045,4.253-21.787,2.127v16.118l24.752,1.69Q-3540.5,680.368-3540.379,683.2Z" transform="translate(4240.246 602.66)"/><path class="cls-4" d="M-3963.748,629.246c5.9,0,12.4-.117,18.895.022,18.09.389,21.65,7.862,16.663,25.458-2.258,7.969,2.294,17.866,2.758,28.256-8.608-10.776-11.282-31.332-33.427-19.248-.464,4.858-1.088,11.4-1.713,17.94l-3.176-.012Zm4.975,5.859V655.74c10.543-1.742,26.438,6.148,26.269-10.69C-3932.669,628.526-3948.851,639.384-3958.773,635.105Z" transform="translate(4240.246 602.66)"/><path class="cls-4" d="M-3442.1,640.3c-9.027-2.375-14.665-4.888-20.331-4.953-3.27-.037-6.586,3.879-9.881,6.016,2.19,3.139,3.822,7.02,6.728,9.206,2.845,2.14,7.927,1.582,10.362,3.933,4.6,4.439,11.963,11.129,10.962,15.035-1.435,5.6-8.909,12.621-14.588,13.413-7.21,1-15.2-3.62-22.861-5.818l1.746-5.207c5.865,1.741,11.692,4.613,17.609,4.813,3.742.126,7.618-3.734,11.435-5.806-2.489-3.444-4.659-7.2-7.6-10.2-1.458-1.487-4.326-1.619-6.578-2.293-8.281-2.478-16.034-6.84-13.607-16.411,1.291-5.091,7.332-10.843,12.506-12.659C-3457.743,626.4-3449.287,628.7-3442.1,640.3Z" transform="translate(4240.246 602.66)"/><path class="cls-4" d="M-3086.177,665.529V630.1l3.262-.044v51.4l-2.247,2.481-32.719-41.781v39.7l-4.251.091v-56l32.072,41.1Z" transform="translate(4240.246 602.66)"/><path class="cls-4" d="M-4131.091,629.553c0,9.364.088,18.73-.024,28.092-.117,9.842,1.7,18.9,13.851,18.714,12.112-.185,13.613-9.389,13.467-19.139-.134-9.023-.028-18.05,1.452-27.028,8.3,10.365,8.514,38.683.342,45.771-5.029,4.362-13.837,7.878-19.852,6.6-5.98-1.267-14.055-8.372-15.09-14.034-2.281-12.483-.708-25.67-.708-38.569Z" transform="translate(4240.246 602.66)"/><path class="cls-4" d="M-3728.788,628.862l21.6,52.209c-22.395-16.753-26.348-16.726-48.113.311q10.92-26.214,21.838-52.428Zm5.82,32.5c-2.891-7.105-5.246-12.893-8.52-20.937-3.309,8.136-5.658,13.909-8.516,20.937Z" transform="translate(4240.246 602.66)"/><path class="cls-4" d="M-3294.827,630.779v51.2l-3.026,1.718-29.983-38.755-3.341.978v35.986l-3.773-.064v-51l2.738-2.082L-3302.323,667l3.672-.853V630.505Z" transform="translate(4240.246 602.66)"/><path class="cls-4" d="M-3131.529,681.038c-24.4-16.707-29.691-16.7-44.011,1.271l-3.438-1.373q10.367-25.94,20.732-51.878l4.8-.655Q-3142.488,654.72-3131.529,681.038Zm-15.212-19.714c-3.1-7.1-5.7-13.077-9.256-21.23-3.395,8.638-5.673,14.436-8.343,21.23Z" transform="translate(4240.246 602.66)"/><path class="cls-4" d="M-2940.277,628.727q10.753,26.221,21.508,52.444c-22.8-17.044-28.887-17.045-47.254-.031q10.392-26.127,20.786-52.255Zm-2.763,10.934-8.455,21.377h17.456C-2936.917,654.2-2939.24,648.684-2943.04,639.661Z" transform="translate(4240.246 602.66)"/><path class="cls-4" d="M-3007.83,630.272c0,9.46.1,18.922-.029,28.381-.132,9.492,2.4,17.543,13.345,17.92,11.593.4,15.131-7.385,14.97-17.767-.149-9.564-.032-19.131-.032-32.047,9.3,13.326,8.413,42,.957,50.266-7.8,8.642-22.2,8.793-30.359.316C-3016.765,669.255-3017.872,640.987-3007.83,630.272Z" transform="translate(4240.246 602.66)"/><path class="cls-3" d="M-3109.851,511.178h35.86V535.9h-35.86Z" transform="translate(4240.246 602.66)"/><path class="cls-4" d="M-2461.751,636.3c-29.27,1.192-35.524,4.806-35.273,20.383.249,15.478,7.758,19.576,35.226,19.228-7.889,10.044-23.284,10.68-33.73,1.393-11.543-10.263-12.023-29.5-1.015-40.648C-2485.925,625.9-2470.734,625.746-2461.751,636.3Z" transform="translate(4240.246 602.66)"/><path class="cls-4" d="M-2545.925,630.657c22.592-4.3,32.864-.636,34.665,12.245,1.783,12.757-5.108,17.716-28.223,19.587-.384,3.3-.719,6.845-1.227,10.361-.474,3.272-1.133,6.517-1.71,9.773l-3.505-.213Zm5.836,27.426c8.618-3.1,15.217-4.6,20.643-7.976,1.532-.955.836-10.071-.915-10.865-5.764-2.613-12.481-3.126-19.728-4.632Z" transform="translate(4240.246 602.66)"/><path class="cls-4" d="M-2633.263,630.1c-.65,13.578.062,27.437-2.641,40.594-1.038,5.049-9.6,11.389-15.214,11.91-6.306.585-16.083-2.9-19.22-7.856-8.874-14.023-3.917-29.78-3.971-44.856l6.2-.141c0,9.444.054,18.889-.014,28.333-.071,9.94,2.3,18.66,14.23,18.511,11.759-.147,14.234-8.887,14.231-18.769q0-13.849,0-27.7Z" transform="translate(4240.246 602.66)"/><path class="cls-4" d="M-4231.536,650.72l21.263,2.6q.113,2.063.223,4.125l-21.161,3.147c-1.061,7.278-2.149,14.734-3.237,22.19l-3.888-.162V630.342h31.38l.245,3.8-24.825,2.523Z" transform="translate(4240.246 602.66)"/><path class="cls-4" d="M-4003.785,662.739c-.625,7.061-1.176,13.3-1.728,19.531l-3.409-.035v-51.5c20.459-4.721,32.142-.848,34.429,11.8C-3972.279,654.774-3979.995,660.237-4003.785,662.739Zm-.24-4.826c8.577-2.786,15.268-4.026,20.747-7.295,1.687-1.006,1.315-10.367-.262-11.068-6.11-2.713-13.085-3.477-20.485-5.134Z" transform="translate(4240.246 602.66)"/><path class="cls-4" d="M-2775.118,682.149V630.274h30.718l.321,3.61-24.486,2.551v14.814l21.214,2.02.054,4.167-21.637,2.4c-.571,7.411-1.151,14.92-1.73,22.428Z" transform="translate(4240.246 602.66)"/><path class="cls-3" d="M-2783.963,521.16c7.076.014,14.2-.438,21.2.268,2.327.235,4.353,3.442,6.517,5.289-2.285,2.2-4.489,6.191-6.867,6.3-13.654.613-27.362.613-41.018.025-2.472-.106-4.785-3.9-7.171-6,2.507-1.965,4.842-5.278,7.556-5.626C-2797.245,520.583-2790.568,521.147-2783.963,521.16Z" transform="translate(4240.246 602.66)"/><path class="cls-4" d="M-3209.857,675.464l26.559,2.228q-.086,1.719-.172,3.438h-30.4V629.9l4.016-.141Z" transform="translate(4240.246 602.66)"/><path class="cls-4" d="M-3772.851,630.41c3.809,5.057,11.962,12.474,10.708,14.78-7.1,13.054-.26,24.517-.083,38.284-2.2-2.135-6.215-4.184-6.32-6.418-.917-19.477-14.292-15.836-26.382-14.812q.025-3.681.052-7.361c3.717.215,7.439.667,11.151.605,14.687-.246,17.391-5.142,10.914-19.473Q-3772.83,633.213-3772.851,630.41Z" transform="translate(4240.246 602.66)"/><path class="cls-4" d="M-4075.934,661.438l-2.812,20.31-3.206-.072V627.4c11.439,2.361,22.434,4.632,33.426,6.9l-4.194,3.878-24.593-3.961c.578,8.989.981,15.248,1.383,21.506Z" transform="translate(4240.246 602.66)"/><path class="cls-4" d="M-3772.851,630.41q.021,2.8.04,5.605h-22.065v18.868q-.027,3.681-.052,7.361v19.775l-4.521-.145V630.41Z" transform="translate(4240.246 602.66)"/><path class="cls-4" d="M-4075.934,661.438l0-5.712L-4051,649.2q1.811,1.917,3.622,3.835c1.3,9.544,2.595,19.088,4.214,31-3.407-2.685-7.331-4.311-7.378-6.042C-4051.031,659.865-4063.517,660.832-4075.934,661.438Z" transform="translate(4240.246 602.66)"/><path class="cls-4" d="M-4047.375,653.036q-1.81-1.918-3.622-3.835-.861-5.51-1.723-11.02l4.194-3.878Q-4047.947,643.669-4047.375,653.036Z" transform="translate(4240.246 602.66)"/></svg>